<?xml version="1.0" encoding="utf-8"?>
<!-- Generator: Adobe Illustrator 16.0.0, SVG Export Plug-In . SVG Version: 6.00 Build 0)  -->
<!DOCTYPE svg PUBLIC "-//W3C//DTD SVG 1.1//EN" "http://www.w3.org/Graphics/SVG/1.1/DTD/svg11.dtd">
<svg version="1.1" id="Layer_1" xmlns="http://www.w3.org/2000/svg" xmlns:xlink="http://www.w3.org/1999/xlink" x="0px" y="0px"
	 width="170px" height="122px" viewBox="0 0 170 122" enable-background="new 0 0 170 122" xml:space="preserve">
<g>
	<polyline fill="#EEEDED" stroke="#2FA8E0" stroke-linecap="round" stroke-linejoin="round" stroke-miterlimit="10" points="
		24.4,19.8 155.2,19.8 155.2,110.4 24.4,110.4 	"/>
	
		<path fill="#EEEDED" stroke="#2FA8E0" stroke-linecap="round" stroke-linejoin="round" stroke-miterlimit="10" stroke-dasharray="3" d="
		M12.7,92.3c0,6.5,5.3,11.8,11.8,11.8h124.7V26.9H24.4"/>
	<path fill="#EEEDED" stroke="#2FA8E0" stroke-linecap="round" stroke-linejoin="round" stroke-miterlimit="10" d="M12.7,87.8"/>
	<path fill="#EEEDED" stroke="#2FA8E0" stroke-linecap="round" stroke-linejoin="round" stroke-miterlimit="10" d="M12.7,98.6V20.4
		c0-6.5,5.3-11.8,11.8-11.8s11.8,5.3,11.8,11.8v78.2c0-6.5-5.3-11.8-11.8-11.8S12.7,92.1,12.7,98.6c0,6.5,5.3,11.8,11.8,11.8"/>
	<g>
		<g>
			
				<rect x="95.2" y="84.9" fill="#EEEEEE" stroke="#2CA9E1" stroke-linecap="round" stroke-linejoin="round" stroke-miterlimit="10" width="16.8" height="9.9"/>
			
				<rect x="69.3" y="76.7" fill="#EEEEEE" stroke="#2CA9E1" stroke-linecap="round" stroke-linejoin="round" stroke-miterlimit="10" width="16.8" height="18.2"/>
			<g>
				
					<rect x="69.7" y="88.5" fill="#EEEEEE" stroke="#2CA9E1" stroke-linecap="round" stroke-linejoin="round" stroke-miterlimit="10" width="8.7" height="6.3"/>
				
					<rect x="65.8" y="88.5" fill="#EEEEEE" stroke="#2CA9E1" stroke-linecap="round" stroke-linejoin="round" stroke-miterlimit="10" width="5.3" height="6.3"/>
				
					<rect x="73.1" y="90.9" fill="#EEEEEE" stroke="#2CA9E1" stroke-linecap="round" stroke-linejoin="round" stroke-miterlimit="10" width="3.5" height="3.9"/>
			</g>
			
				<rect x="78.4" y="76.7" fill="#EEEEEE" stroke="#2CA9E1" stroke-linecap="round" stroke-linejoin="round" stroke-miterlimit="10" width="16.8" height="18.2"/>
			<rect x="80.6" y="89.6" fill="#2CA9E1" width="1.1" height="1.5"/>
			<rect x="92.2" y="89.6" fill="#2CA9E1" width="1.1" height="1.5"/>
			<g>
				
					<rect x="82.9" y="89.6" fill="#EEEEEE" stroke="#2CA9E1" stroke-linecap="round" stroke-linejoin="round" stroke-miterlimit="10" width="8.2" height="5.2"/>
			</g>
			<g>
				
					<rect x="98.9" y="89.6" fill="#EEEEEE" stroke="#2CA9E1" stroke-linecap="round" stroke-linejoin="round" stroke-miterlimit="10" width="10.7" height="5.2"/>
			</g>
			<polygon fill="#EEEEEE" stroke="#2CA9E1" stroke-linecap="round" stroke-linejoin="round" stroke-miterlimit="10" points="
				110.2,82.3 95.2,82.3 95.2,84.9 112,84.9 			"/>
			
				<rect x="78.3" y="71.9" fill="#EEEEEE" stroke="#2CA9E1" stroke-linecap="round" stroke-linejoin="round" stroke-miterlimit="10" width="2.2" height="4.8"/>
			
				<rect x="73.9" y="69.9" fill="#EEEEEE" stroke="#2CA9E1" stroke-linecap="round" stroke-linejoin="round" stroke-miterlimit="10" width="2.2" height="6.8"/>
			<g>
				<rect x="73.3" y="83.8" fill="#2CA9E1" width="1.1" height="1.5"/>
			</g>
			<rect x="73.3" y="80.1" fill="#2CA9E1" width="1.1" height="1.5"/>
		</g>
		<g>
			
				<circle fill="#EEEDED" stroke="#2FA8E0" stroke-linecap="round" stroke-linejoin="round" stroke-miterlimit="10" cx="50.8" cy="84.7" r="8.7"/>
			<g>
				<path fill="#27AAE2" d="M53.3,88.6h-4.9v-0.7l2-2c0.6-0.6,1-1,1.2-1.3c0.2-0.3,0.3-0.5,0.4-0.8c0.1-0.2,0.1-0.5,0.1-0.8
					c0-0.4-0.1-0.7-0.4-1c-0.2-0.2-0.6-0.4-1-0.4c-0.3,0-0.6,0.1-0.9,0.2c-0.3,0.1-0.6,0.3-0.9,0.6l-0.5-0.6
					c0.7-0.6,1.4-0.9,2.3-0.9c0.7,0,1.3,0.2,1.7,0.5c0.4,0.4,0.6,0.8,0.6,1.5c0,0.5-0.1,0.9-0.4,1.4c-0.3,0.5-0.8,1.1-1.5,1.8
					l-1.6,1.6v0h3.9V88.6z"/>
			</g>
		</g>
	</g>
	<g>
		<g>
			<g>
				
					<circle fill="#EEEEEE" stroke="#2CA9E1" stroke-linecap="round" stroke-linejoin="round" stroke-miterlimit="10" cx="71.9" cy="50.6" r="2.3"/>
				<path fill="#EEEEEE" stroke="#2CA9E1" stroke-linecap="round" stroke-linejoin="round" stroke-miterlimit="10" d="M101.5,45.4
					c-0.3-0.5-1.2-2.3-1.8-3.3c-0.6-1-0.9-1.4-1.8-1.4s-3.6,0-3.6,0v7.6H69v2.3h25.2H99h2.6C101.6,50.7,101.6,45.7,101.5,45.4z"/>
				
					<rect x="67.8" y="36.6" fill="#EEEEEE" stroke="#2CA9E1" stroke-linecap="round" stroke-linejoin="round" stroke-miterlimit="10" width="8.2" height="11.7"/>
				
					<rect x="76.1" y="36.6" fill="#EEEEEE" stroke="#2CA9E1" stroke-linecap="round" stroke-linejoin="round" stroke-miterlimit="10" width="18.2" height="11.7"/>
				<g>
					
						<circle fill="#EEEEEE" stroke="#2CA9E1" stroke-linecap="round" stroke-linejoin="round" stroke-miterlimit="10" cx="98.3" cy="50.7" r="2.3"/>
				</g>
				<g>
					
						<circle fill="#EEEEEE" stroke="#2CA9E1" stroke-linecap="round" stroke-linejoin="round" stroke-miterlimit="10" cx="80.4" cy="50.7" r="2.3"/>
				</g>
				<g>
					
						<circle fill="#EEEEEE" stroke="#2CA9E1" stroke-linecap="round" stroke-linejoin="round" stroke-miterlimit="10" cx="85.9" cy="50.7" r="2.3"/>
				</g>
				<path fill="#EEEEEE" stroke="#2CA9E1" stroke-linecap="round" stroke-linejoin="round" stroke-miterlimit="10" d="M96,45.2h3.4
					c0,0-0.8-1.8-1-2.1c-0.2-0.3-0.4-0.9-1-0.9c-0.6,0-1.4,0-1.4,0V45.2z"/>
			</g>
		</g>
		<g>
			<g>
				
					<circle fill="#EEEEEE" stroke="#2CA9E1" stroke-linecap="round" stroke-linejoin="round" stroke-miterlimit="10" cx="80.1" cy="58.2" r="2.3"/>
				<path fill="#EEEEEE" stroke="#2CA9E1" stroke-linecap="round" stroke-linejoin="round" stroke-miterlimit="10" d="M109.7,52.9
					c-0.3-0.5-1.2-2.3-1.8-3.3c-0.6-1-0.9-1.4-1.8-1.4s-3.6,0-3.6,0v7.6H77.2v2.3h25.2h4.8h2.6C109.8,58.2,109.8,53.2,109.7,52.9z"
					/>
				
					<rect x="76.1" y="44.2" fill="#EEEEEE" stroke="#2CA9E1" stroke-linecap="round" stroke-linejoin="round" stroke-miterlimit="10" width="8.2" height="11.7"/>
				
					<rect x="84.3" y="44.2" fill="#EEEEEE" stroke="#2CA9E1" stroke-linecap="round" stroke-linejoin="round" stroke-miterlimit="10" width="18.2" height="11.7"/>
				<g>
					
						<circle fill="#EEEEEE" stroke="#2CA9E1" stroke-linecap="round" stroke-linejoin="round" stroke-miterlimit="10" cx="106.5" cy="58.2" r="2.3"/>
				</g>
				<g>
					
						<circle fill="#EEEEEE" stroke="#2CA9E1" stroke-linecap="round" stroke-linejoin="round" stroke-miterlimit="10" cx="88.6" cy="58.2" r="2.3"/>
				</g>
				<g>
					
						<circle fill="#EEEEEE" stroke="#2CA9E1" stroke-linecap="round" stroke-linejoin="round" stroke-miterlimit="10" cx="94.1" cy="58.2" r="2.3"/>
				</g>
				<path fill="#EEEEEE" stroke="#2CA9E1" stroke-linecap="round" stroke-linejoin="round" stroke-miterlimit="10" d="M104.2,52.8
					h3.4c0,0-0.8-1.8-1-2.1c-0.2-0.3-0.4-0.9-1-0.9c-0.6,0-1.4,0-1.4,0V52.8z"/>
			</g>
		</g>
		<g>
			
				<circle fill="#EEEDED" stroke="#2FA8E0" stroke-linecap="round" stroke-linejoin="round" stroke-miterlimit="10" cx="50.8" cy="45.2" r="8.7"/>
			<g>
				<path fill="#27AAE2" d="M51.5,49.1h-0.8v-5.4c0-0.4,0-0.9,0-1.3c-0.1,0.1-0.2,0.1-0.2,0.2c-0.1,0.1-0.5,0.4-1.2,1l-0.5-0.6
					l2-1.5h0.7V49.1z"/>
			</g>
		</g>
	</g>
	<g>
		<circle fill="#2FA8E0" cx="118.5" cy="39.9" r="1.2"/>
		<line fill="none" stroke="#2FA8E0" stroke-linecap="round" stroke-miterlimit="10" x1="122.1" y1="39.9" x2="137.8" y2="39.9"/>
		<line fill="none" stroke="#2FA8E0" stroke-linecap="round" stroke-miterlimit="10" x1="122.1" y1="45.7" x2="133.7" y2="45.7"/>
		<line fill="none" stroke="#2FA8E0" stroke-linecap="round" stroke-miterlimit="10" x1="122.1" y1="42.9" x2="140.8" y2="42.9"/>
		<circle fill="#2FA8E0" cx="118.5" cy="51.6" r="1.2"/>
		<line fill="none" stroke="#2FA8E0" stroke-linecap="round" stroke-miterlimit="10" x1="122.1" y1="51.6" x2="137.8" y2="51.6"/>
		<line fill="none" stroke="#2FA8E0" stroke-linecap="round" stroke-miterlimit="10" x1="122.1" y1="57.4" x2="133.7" y2="57.4"/>
		<line fill="none" stroke="#2FA8E0" stroke-linecap="round" stroke-miterlimit="10" x1="122.1" y1="54.6" x2="140.8" y2="54.6"/>
	</g>
	<g>
		<circle fill="#2FA8E0" cx="118.5" cy="76.1" r="1.2"/>
		<line fill="none" stroke="#2FA8E0" stroke-linecap="round" stroke-miterlimit="10" x1="122.1" y1="76.1" x2="137.8" y2="76.1"/>
		<line fill="none" stroke="#2FA8E0" stroke-linecap="round" stroke-miterlimit="10" x1="122.1" y1="81.9" x2="133.7" y2="81.9"/>
		<line fill="none" stroke="#2FA8E0" stroke-linecap="round" stroke-miterlimit="10" x1="122.1" y1="79.1" x2="140.8" y2="79.1"/>
		<circle fill="#2FA8E0" cx="118.5" cy="87.9" r="1.2"/>
		<line fill="none" stroke="#2FA8E0" stroke-linecap="round" stroke-miterlimit="10" x1="122.1" y1="87.9" x2="137.8" y2="87.9"/>
		<line fill="none" stroke="#2FA8E0" stroke-linecap="round" stroke-miterlimit="10" x1="122.1" y1="93.7" x2="133.7" y2="93.7"/>
		<line fill="none" stroke="#2FA8E0" stroke-linecap="round" stroke-miterlimit="10" x1="122.1" y1="90.9" x2="140.8" y2="90.9"/>
	</g>
</g>
</svg>
