<?xml version="1.0" encoding="utf-8"?>
<!-- Generator: Adobe Illustrator 16.0.0, SVG Export Plug-In . SVG Version: 6.00 Build 0)  -->
<!DOCTYPE svg PUBLIC "-//W3C//DTD SVG 1.1//EN" "http://www.w3.org/Graphics/SVG/1.1/DTD/svg11.dtd">
<svg version="1.1" id="Layer_1" xmlns="http://www.w3.org/2000/svg" xmlns:xlink="http://www.w3.org/1999/xlink" x="0px" y="0px"
	 width="148px" height="137.5px" viewBox="0 -43.5 148 137.5" enable-background="new 0 -43.5 148 137.5" xml:space="preserve">
<g>
	<g>
		<path fill="none" stroke="#2CA9E1" stroke-linecap="round" stroke-linejoin="round" stroke-miterlimit="10" d="M106.5,23.6
			c-2.5,0-3.1,2.2-6.1,2.2s-3.5-2.2-6.1-2.2c-2.5,0-3.1,2.2-6.1,2.2s-3.5-2.2-6.1-2.2c-2.5,0-3.1,2.2-6.1,2.2s-3.5-2.2-6.1-2.2
			c-2.5,0-3.1,2.2-6.1,2.2s-3.5-2.2-6.1-2.2c-2.5,0-3.1,2.2-6.1,2.2s-3.5-2.2-6.1-2.2c-2.5,0-3.1,2.2-6.1,2.2s-3.5-2.2-6.1-2.2
			c-2.5,0-3.1,2.2-6.1,2.2s-3.5-2.2-6.1-2.2c-2.5,0-3.1,2.2-6.1,2.2s-3.5-2.2-6.1-2.2"/>
		<path fill="none" stroke="#2CA9E1" stroke-linecap="round" stroke-linejoin="round" stroke-miterlimit="10" d="M106.5,31.7
			c-2.5,0-3.1,2.2-6.1,2.2s-3.5-2.2-6.1-2.2c-2.5,0-3.1,2.2-6.1,2.2s-3.5-2.2-6.1-2.2c-2.5,0-3.1,2.2-6.1,2.2s-3.5-2.2-6.1-2.2
			c-2.5,0-3.1,2.2-6.1,2.2s-3.5-2.2-6.1-2.2c-2.5,0-3.1,2.2-6.1,2.2s-3.5-2.2-6.1-2.2c-2.5,0-3.1,2.2-6.1,2.2s-3.5-2.2-6.1-2.2
			c-2.5,0-3.1,2.2-6.1,2.2s-3.5-2.2-6.1-2.2c-2.5,0-3.1,2.2-6.1,2.2s-3.5-2.2-6.1-2.2"/>
		<path fill="none" stroke="#2CA9E1" stroke-linecap="round" stroke-linejoin="round" stroke-miterlimit="10" d="M106.5,39.8
			c-2.5,0-3.1,2.2-6.1,2.2s-3.5-2.2-6.1-2.2c-2.5,0-3.1,2.2-6.1,2.2s-3.5-2.2-6.1-2.2C79.6,39.8,79,42,76,42s-3.5-2.2-6.1-2.2
			c-2.5,0-3.1,2.2-6.1,2.2s-3.5-2.2-6.1-2.2c-2.5,0-3.1,2.2-6.1,2.2s-3.5-2.2-6.1-2.2c-2.5,0-3.1,2.2-6.1,2.2s-3.5-2.2-6.1-2.2
			c-2.5,0-3.1,2.2-6.1,2.2s-3.5-2.2-6.1-2.2C18.6,39.8,18,42,15,42s-3.5-2.2-6.1-2.2"/>
		<path fill="none" stroke="#2CA9E1" stroke-linecap="round" stroke-linejoin="round" stroke-miterlimit="10" d="M106.5,47.9
			c-2.5,0-3.1,2.2-6.1,2.2s-3.5-2.2-6.1-2.2c-2.5,0-3.1,2.2-6.1,2.2s-3.5-2.2-6.1-2.2c-2.5,0-3.1,2.2-6.1,2.2s-3.5-2.2-6.1-2.2
			c-2.5,0-3.1,2.2-6.1,2.2s-3.5-2.2-6.1-2.2c-2.5,0-3.1,2.2-6.1,2.2s-3.5-2.2-6.1-2.2c-2.5,0-3.1,2.2-6.1,2.2s-3.5-2.2-6.1-2.2
			c-2.5,0-3.1,2.2-6.1,2.2s-3.5-2.2-6.1-2.2c-2.5,0-3.1,2.2-6.1,2.2s-3.5-2.2-6.1-2.2"/>
		<path fill="none" stroke="#2CA9E1" stroke-linecap="round" stroke-linejoin="round" stroke-miterlimit="10" d="M106.5,56
			c-2.5,0-3.1,2.2-6.1,2.2S96.9,56,94.3,56c-2.5,0-3.1,2.2-6.1,2.2S84.7,56,82.1,56c-2.5,0-3.1,2.2-6.1,2.2S72.6,56,70,56
			c-2.5,0-3.1,2.2-6.1,2.2S60.4,56,57.8,56c-2.5,0-3.1,2.2-6.1,2.2S48.3,56,45.8,56s-3.1,2.2-6.1,2.2S36.2,56,33.6,56
			c-2.5,0-3.1,2.2-6.1,2.2S24,56,21.5,56s-3.1,2.2-6.1,2.2S11.9,56,9.3,56"/>
		<polygon fill="#EEEEEE" points="120,21.2 64.6,21.2 51.1,21.2 25.2,61.6 64.6,61.6 120,61.6 		"/>
		<polyline fill="none" stroke="#2CA9E1" stroke-linecap="round" stroke-linejoin="round" stroke-miterlimit="10" points="
			25.2,61.2 51.1,20.8 80.7,20.8 		"/>
	</g>
	<g>
		
			<circle fill="#EEEEEE" stroke="#2CA9E1" stroke-linecap="round" stroke-linejoin="round" stroke-miterlimit="10" cx="67.4" cy="29.5" r="5.5"/>
		
			<circle fill="#EEEEEE" stroke="#2CA9E1" stroke-linecap="round" stroke-linejoin="round" stroke-miterlimit="10" cx="80.5" cy="29.5" r="5.5"/>
		<path fill="#EEEEEE" stroke="#2CA9E1" stroke-linecap="round" stroke-linejoin="round" stroke-miterlimit="10" d="M137,17.1
			c-0.6-1.2-2.8-5.3-4.2-7.7c-1.4-2.4-2.1-3.3-4.2-3.3c-2.1,0-8.6,0-8.6,0v18H60.5v5.5h59.4h11.3h6.1
			C137.3,29.6,137.4,17.8,137,17.1z"/>
		
			<rect x="57.7" y="-3.6" fill="#EEEEEE" stroke="#2CA9E1" stroke-linecap="round" stroke-linejoin="round" stroke-miterlimit="10" width="19.4" height="27.7"/>
		
			<rect x="77.1" y="-3.6" fill="#EEEEEE" stroke="#2CA9E1" stroke-linecap="round" stroke-linejoin="round" stroke-miterlimit="10" width="43" height="27.7"/>
		
			<rect x="56.3" y="26.9" fill="#EEEEEE" stroke="#2CA9E1" stroke-linecap="round" stroke-linejoin="round" stroke-miterlimit="10" width="22.1" height="2.7"/>
		<g>
			<path fill="#EEEEEE" stroke="#2CA9E1" stroke-linecap="round" stroke-linejoin="round" stroke-miterlimit="10" d="M135.1,29.6
				c0,3.1-2.5,5.5-5.5,5.5s-5.5-2.5-5.5-5.5c0-3.1,2.5-5.5,5.5-5.5S135.1,26.5,135.1,29.6z"/>
			<path fill="#EEEEEE" stroke="#2CA9E1" stroke-linecap="round" stroke-linejoin="round" stroke-miterlimit="10" d="M132.3,29.6
				c0,1.5-1.2,2.7-2.7,2.7s-2.7-1.2-2.7-2.7s1.2-2.7,2.7-2.7S132.3,28.1,132.3,29.6z"/>
		</g>
		<g>
			<path fill="#EEEEEE" stroke="#2CA9E1" stroke-linecap="round" stroke-linejoin="round" stroke-miterlimit="10" d="M92.8,29.6
				c0,3.1-2.5,5.5-5.5,5.5s-5.5-2.5-5.5-5.5c0-3.1,2.5-5.5,5.5-5.5S92.8,26.5,92.8,29.6z"/>
			<path fill="#EEEEEE" stroke="#2CA9E1" stroke-linecap="round" stroke-linejoin="round" stroke-miterlimit="10" d="M90,29.6
				c0,1.5-1.2,2.7-2.7,2.7s-2.7-1.2-2.7-2.7s1.2-2.7,2.7-2.7S90,28.1,90,29.6z"/>
		</g>
		<g>
			<path fill="#EEEEEE" stroke="#2CA9E1" stroke-linecap="round" stroke-linejoin="round" stroke-miterlimit="10" d="M105.7,29.6
				c0,3.1-2.5,5.5-5.5,5.5c-3.1,0-5.5-2.5-5.5-5.5c0-3.1,2.5-5.5,5.5-5.5C103.3,24.1,105.7,26.5,105.7,29.6z"/>
			<path fill="#EEEEEE" stroke="#2CA9E1" stroke-linecap="round" stroke-linejoin="round" stroke-miterlimit="10" d="M102.9,29.6
				c0,1.5-1.2,2.7-2.7,2.7s-2.7-1.2-2.7-2.7s1.2-2.7,2.7-2.7S102.9,28.1,102.9,29.6z"/>
		</g>
		<polyline fill="none" stroke="#2CA9E1" stroke-linecap="round" stroke-linejoin="round" stroke-miterlimit="10" points="
			122.8,6.7 122.8,24 119.4,24 		"/>
		<path fill="#EEEEEE" stroke="#2CA9E1" stroke-linecap="round" stroke-linejoin="round" stroke-miterlimit="10" d="M125.6,15.7h8
			c0,0-1.9-4.2-2.3-4.9c-0.4-0.7-1-2-2.4-2c-1.4,0-3.3,0-3.3,0V15.7z"/>
	</g>
	<g>
		
			<circle fill="#EEEEEE" stroke="#2CA9E1" stroke-linecap="round" stroke-linejoin="round" stroke-miterlimit="10" cx="100.7" cy="10.2" r="9.1"/>
		
			<rect x="86.9" y="6.4" fill="#EEEEEE" stroke="#2CA9E1" stroke-linecap="round" stroke-linejoin="round" stroke-miterlimit="10" width="27.7" height="7.7"/>
	</g>
	<g>
		
			<rect x="105.5" y="41.4" fill="#EEEEEE" stroke="#2CA9E1" stroke-linecap="round" stroke-linejoin="round" stroke-miterlimit="10" width="11.4" height="9.8"/>
		
			<rect x="116.8" y="41.4" fill="#EEEEEE" stroke="#2CA9E1" stroke-linecap="round" stroke-linejoin="round" stroke-miterlimit="10" width="11.4" height="9.8"/>
		
			<rect x="103.8" y="51.3" fill="#EEEEEE" stroke="#2CA9E1" stroke-linecap="round" stroke-linejoin="round" stroke-miterlimit="10" width="11.4" height="9.8"/>
		
			<rect x="115.2" y="51.3" fill="#EEEEEE" stroke="#2CA9E1" stroke-linecap="round" stroke-linejoin="round" stroke-miterlimit="10" width="11.4" height="9.8"/>
		
			<rect x="116.8" y="51.3" fill="#EEEEEE" stroke="#2CA9E1" stroke-linecap="round" stroke-linejoin="round" stroke-miterlimit="10" width="11.4" height="9.8"/>
		
			<rect x="128.2" y="51.3" fill="#EEEEEE" stroke="#2CA9E1" stroke-linecap="round" stroke-linejoin="round" stroke-miterlimit="10" width="11.4" height="9.8"/>
		
			<rect x="108.9" y="31.7" fill="#EEEEEE" stroke="#2CA9E1" stroke-linecap="round" stroke-linejoin="round" stroke-miterlimit="10" width="11.4" height="9.8"/>
		
			<rect x="120.3" y="31.7" fill="#EEEEEE" stroke="#2CA9E1" stroke-linecap="round" stroke-linejoin="round" stroke-miterlimit="10" width="11.4" height="9.8"/>
		<polygon fill="#EEEEEE" stroke="#2CA9E1" stroke-linecap="round" stroke-linejoin="round" stroke-miterlimit="10" points="
			118.7,27 107.3,27 108.9,31.7 120.3,31.7 		"/>
		<polygon fill="#EEEEEE" stroke="#2CA9E1" stroke-linecap="round" stroke-linejoin="round" stroke-miterlimit="10" points="
			121.9,27 133.2,27 131.6,31.7 120.3,31.7 		"/>
		<g>
			
				<circle fill="#EEEEEE" stroke="#2CA9E1" stroke-linecap="round" stroke-linejoin="round" stroke-miterlimit="10" cx="126" cy="36.8" r="2.3"/>
			
				<rect x="122.5" y="35.8" fill="#EEEEEE" stroke="#2CA9E1" stroke-linecap="round" stroke-linejoin="round" stroke-miterlimit="10" width="7" height="1.9"/>
		</g>
		<g>
			
				<rect x="118.7" y="41.4" fill="#EEEEEE" stroke="#2CA9E1" stroke-linecap="round" stroke-linejoin="round" stroke-miterlimit="10" width="11.4" height="9.8"/>
			
				<rect x="130" y="41.4" fill="#EEEEEE" stroke="#2CA9E1" stroke-linecap="round" stroke-linejoin="round" stroke-miterlimit="10" width="11.4" height="9.8"/>
			<g>
				
					<circle fill="#EEEEEE" stroke="#2CA9E1" stroke-linecap="round" stroke-linejoin="round" stroke-miterlimit="10" cx="135.7" cy="46.3" r="2.3"/>
				
					<rect x="132.2" y="45.4" fill="#EEEEEE" stroke="#2CA9E1" stroke-linecap="round" stroke-linejoin="round" stroke-miterlimit="10" width="7" height="1.9"/>
			</g>
		</g>
		<g>
			
				<circle fill="#EEEEEE" stroke="#2CA9E1" stroke-linecap="round" stroke-linejoin="round" stroke-miterlimit="10" cx="133.9" cy="56.2" r="2.3"/>
			
				<rect x="130.4" y="55.2" fill="#EEEEEE" stroke="#2CA9E1" stroke-linecap="round" stroke-linejoin="round" stroke-miterlimit="10" width="7" height="1.9"/>
		</g>
	</g>
	<g>
		<polyline fill="#EEEEEE" stroke="#2CA9E1" stroke-linecap="round" stroke-linejoin="round" stroke-miterlimit="10" points="
			85.4,35.7 85.4,25.5 81.6,23.8 81.6,35.7 		"/>
		
			<rect x="43.7" y="35.7" fill="#EEEEEE" stroke="#2CA9E1" stroke-linecap="round" stroke-linejoin="round" stroke-miterlimit="10" width="35" height="25.3"/>
		
			<rect x="72.8" y="35.7" fill="#EEEEEE" stroke="#2CA9E1" stroke-linecap="round" stroke-linejoin="round" stroke-miterlimit="10" width="21.4" height="25.3"/>
		<g>
			<path fill="#EEEEEE" stroke="#2CA9E1" stroke-linecap="round" stroke-linejoin="round" stroke-miterlimit="10" d="M77.7,46.4
				c0-2.5,2-4.4,4.4-4.4c0.7,0,1.3,0.2,1.9,0.4h0.1L96,47.1l0,0c2,0.9,4.6,2.3,4.8,6.3c0.3,4-3.3,7.5-7.3,7.5
				c-1.8,0-3.4-0.7-4.7-1.7l0,0l0,0c-0.2-0.2-0.5-0.4-0.7-0.7l-8.7-8.6l0,0C78.4,49.1,77.7,47.8,77.7,46.4z"/>
			<g>
				<path fill="#EEEEEE" d="M82.2,47.5c-0.6,0-1.1-0.5-1.1-1.1c0-0.6,0.5-1.1,1.1-1.1c0.6,0,1.1,0.5,1.1,1.1
					C83.3,47,82.8,47.5,82.2,47.5z"/>
				<path fill="#2CA9E1" d="M82.2,45.8c0.3,0,0.6,0.3,0.6,0.6c0,0.3-0.3,0.6-0.6,0.6s-0.6-0.3-0.6-0.6
					C81.6,46.1,81.8,45.8,82.2,45.8 M82.2,44.8c-0.9,0-1.6,0.7-1.6,1.6c0,0.9,0.7,1.6,1.6,1.6c0.9,0,1.6-0.7,1.6-1.6
					C83.8,45.5,83.1,44.8,82.2,44.8L82.2,44.8z"/>
			</g>
			<g>
				<path fill="#EEEEEE" d="M93.6,57.4c-2,0-3.7-1.7-3.7-3.7s1.7-3.7,3.7-3.7s3.7,1.7,3.7,3.7S95.6,57.4,93.6,57.4z"/>
				<path fill="#2CA9E1" d="M93.6,50.4c1.8,0,3.2,1.4,3.2,3.2c0,1.8-1.4,3.2-3.2,3.2c-1.8,0-3.2-1.4-3.2-3.2
					C90.3,51.9,91.8,50.4,93.6,50.4 M93.6,49.4c-2.3,0-4.2,1.9-4.2,4.2c0,2.3,1.9,4.2,4.2,4.2c2.3,0,4.2-1.9,4.2-4.2
					C97.8,51.3,95.9,49.4,93.6,49.4L93.6,49.4z"/>
			</g>
		</g>
		
			<rect x="48.2" y="45.4" fill="#EEEEEE" stroke="#2CA9E1" stroke-linecap="round" stroke-linejoin="round" stroke-miterlimit="10" width="18.1" height="15.5"/>
		
			<line fill="none" stroke="#2CA9E1" stroke-linecap="round" stroke-linejoin="round" stroke-miterlimit="10" x1="66.3" y1="49.7" x2="48.2" y2="49.7"/>
		
			<line fill="none" stroke="#2CA9E1" stroke-linecap="round" stroke-linejoin="round" stroke-miterlimit="10" x1="66.3" y1="53" x2="48.2" y2="53"/>
		
			<line fill="none" stroke="#2CA9E1" stroke-linecap="round" stroke-linejoin="round" stroke-miterlimit="10" x1="66.3" y1="56.6" x2="48.2" y2="56.6"/>
	</g>
</g>
</svg>
