<?xml version="1.0" encoding="utf-8"?>
<!-- Generator: Adobe Illustrator 16.0.0, SVG Export Plug-In . SVG Version: 6.00 Build 0)  -->
<!DOCTYPE svg PUBLIC "-//W3C//DTD SVG 1.1//EN" "http://www.w3.org/Graphics/SVG/1.1/DTD/svg11.dtd">
<svg version="1.1" id="Layer_1" xmlns="http://www.w3.org/2000/svg" xmlns:xlink="http://www.w3.org/1999/xlink" x="0px" y="0px"
	 width="134px" height="119px" viewBox="0 0 134 119" enable-background="new 0 0 134 119" xml:space="preserve">
<g>
	<g>
		<path fill="#EEEDED" stroke="#2FA8E0" stroke-linecap="round" stroke-linejoin="round" stroke-miterlimit="10" d="M73.6,23.5
			c0,3.7-3,6.7-6.7,6.7c-3.7,0-6.7-3-6.7-6.7c0-3.7,3-6.7,6.7-6.7C70.6,16.8,73.6,19.8,73.6,23.5z"/>
		<path fill="#EEEDED" stroke="#2FA8E0" stroke-linecap="round" stroke-linejoin="round" stroke-miterlimit="10" d="M79.4,55.3V38.8
			c0-3.7-3-6.7-6.7-6.7H61.1c-3.7,0-6.7,3-6.7,6.7v16.5"/>
		<path fill="#EEEDED" stroke="#2FA8E0" stroke-linecap="round" stroke-linejoin="round" stroke-miterlimit="10" d="M113.2,85.7
			V54.2c0-3.7-3-6.7-6.7-6.7h-3.6c-3.7,0-6.7,3-6.7,6.7v12.2"/>
		<path fill="#EEEDED" stroke="#2FA8E0" stroke-linecap="round" stroke-linejoin="round" stroke-miterlimit="10" d="M125.1,99.2
			V67.8c0-3.7-3-6.7-6.7-6.7h-3.6c-3.7,0-6.7,3-6.7,6.7V80"/>
		<path fill="#EEEDED" stroke="#2FA8E0" stroke-linecap="round" stroke-linejoin="round" stroke-miterlimit="10" d="M60.2,23.5
			c0,0,6,0.1,9-3.6c0,0,1.2,3.6,4.4,4.1"/>
		<path fill="#EEEDED" stroke="#2FA8E0" stroke-linecap="round" stroke-linejoin="round" stroke-miterlimit="10" d="M111,40.7
			c0,3.7-3,6.7-6.7,6.7c-3.7,0-6.7-3-6.7-6.7c0-3.7,3-6.7,6.7-6.7C108,34,111,37,111,40.7z"/>
		<polygon fill="#EEEDED" stroke="#2FA8E0" stroke-linecap="round" stroke-linejoin="round" stroke-miterlimit="10" points="
			62.6,32.1 66.9,47.2 71.2,32.1 		"/>
		<path fill="#2FA8E0" d="M66.9,35.2c0.6,0,1.2-0.5,1.2-1.2v-1.9h-2.3V34C65.7,34.7,66.3,35.2,66.9,35.2z"/>
		<path fill="#2FA8E0" d="M66.9,47.2l1.2-4.3v-5.7c0-0.7-0.6-1.2-1.2-1.2c-0.7,0-1.2,0.6-1.2,1.2v5.7L66.9,47.2z"/>
		<path fill="#EEEDED" stroke="#2FA8E0" stroke-linecap="round" stroke-linejoin="round" stroke-miterlimit="10" d="M98.5,37.3
			c0,0,2.5,2.7,5.8,3.4v8.1h4c0,0,2.6-3.9,2.6-7.9"/>
		<path fill="#EEEDED" stroke="#2FA8E0" stroke-linecap="round" stroke-linejoin="round" stroke-miterlimit="10" d="M20,85.7V54.2
			c0-3.7,3-6.7,6.7-6.7h3.6c3.7,0,6.7,3,6.7,6.7v12.2"/>
		<path fill="#EEEDED" stroke="#2FA8E0" stroke-linecap="round" stroke-linejoin="round" stroke-miterlimit="10" d="M7.6,99.2V67.8
			c0-3.7,3-6.7,6.7-6.7h3.6c3.7,0,6.7,3,6.7,6.7V80"/>
		<path fill="#EEEDED" stroke="#2FA8E0" stroke-linecap="round" stroke-linejoin="round" stroke-miterlimit="10" d="M22.2,40.7
			c0,3.7,3,6.7,6.7,6.7c3.7,0,6.7-3,6.7-6.7c0-3.7-3-6.7-6.7-6.7C25.2,34,22.2,37,22.2,40.7z"/>
		<path fill="#EEEDED" stroke="#2FA8E0" stroke-linecap="round" stroke-linejoin="round" stroke-miterlimit="10" d="M9.4,54.2
			c0,3.7,3,6.7,6.7,6.7c3.7,0,6.7-3,6.7-6.7c0-3.7-3-6.7-6.7-6.7C12.4,47.5,9.4,50.5,9.4,54.2z"/>
		<polygon fill="#EEEDED" stroke="#2FA8E0" stroke-linecap="round" stroke-linejoin="round" stroke-miterlimit="10" points="
			4.8,102.9 46.3,55.7 86.7,55.7 128.6,103 		"/>
		<path fill="#EEEDED" stroke="#2FA8E0" stroke-linecap="round" stroke-linejoin="round" stroke-miterlimit="10" d="M24.2,45.5
			c0,0,4.7-0.6,4.7-4.8c0-1.7,0-2.8,0-2.8h5.9"/>
		<path fill="#EEEDED" stroke="#2FA8E0" stroke-linecap="round" stroke-linejoin="round" stroke-miterlimit="10" d="M123.3,54.2
			c0,3.7-3,6.7-6.7,6.7c-3.7,0-6.7-3-6.7-6.7c0-3.7,3-6.7,6.7-6.7C120.3,47.5,123.3,50.5,123.3,54.2z"/>
		<path fill="#EEEDED" stroke="#2FA8E0" stroke-linecap="round" stroke-linejoin="round" stroke-miterlimit="10" d="M121.2,59
			c0,0-4.7-0.6-4.7-4.8c0-1.7,0-2.8,0-2.8h-5.9"/>
		<path fill="#EEEEEE" stroke="#2CA9E1" stroke-linecap="round" stroke-linejoin="round" stroke-miterlimit="10" d="M32.4,76.8
			l-12.7,0l0-8.8c0-1.4-1.2-2.6-2.6-2.6c-1.4,0-2.6,1.2-2.6,2.6v11.3h0c0,0,0,0.1,0,0.1c0,1.4,1.2,2.6,2.6,2.6h15.3L32.4,76.8z"/>
		<path fill="#EEEEEE" stroke="#2CA9E1" stroke-linecap="round" stroke-linejoin="round" stroke-miterlimit="10" d="M37.4,76.8h-5
			l0,5.1h4.3l3.1-2.5C39.9,76.8,37.4,76.8,37.4,76.8z"/>
		<polyline fill="#EEEDED" stroke="#2FA8E0" stroke-linecap="round" stroke-linejoin="round" stroke-miterlimit="10" points="
			22.7,52.7 17.5,52.7 17.5,67.6 9.4,67.6 9.4,54 		"/>
		<polygon fill="#EEEDED" stroke="#2FA8E0" stroke-linecap="round" stroke-linejoin="round" stroke-miterlimit="10" points="
			39.6,70.8 66.5,70.8 66.5,59.9 48.3,59.9 		"/>
		<polygon fill="#EEEDED" stroke="#2FA8E0" stroke-linecap="round" stroke-linejoin="round" stroke-miterlimit="10" points="
			95,80.5 61.3,80.5 61.3,66.9 84.1,66.9 		"/>
		<path fill="#EEEEEE" stroke="#2CA9E1" stroke-linecap="round" stroke-linejoin="round" stroke-miterlimit="10" d="M103.6,51.2
			c-1-1-2.6-1-3.6,0L85.7,65.4l3.6,3.6l14.2-14.2C104.6,53.9,104.6,52.2,103.6,51.2z"/>
		<path fill="#EEEEEE" stroke="#2CA9E1" stroke-linecap="round" stroke-linejoin="round" stroke-miterlimit="10" d="M82.2,68.9
			l3.5-3.5l3.6,3.6l-3.1,3.1l-4,0.5C80.4,70.7,82.2,68.9,82.2,68.9z"/>
		<path fill="#EEEEEE" stroke="#2CA9E1" stroke-linecap="round" stroke-linejoin="round" stroke-miterlimit="10" d="M43.7,61.4
			l-12.7,0l0-8.8c0-1.4-1.2-2.6-2.6-2.6c-1.4,0-2.6,1.2-2.6,2.6v11.3h0c0,0,0,0.1,0,0.1c0,1.4,1.2,2.6,2.6,2.6h15.3L43.7,61.4z"/>
		<path fill="#EEEEEE" stroke="#2CA9E1" stroke-linecap="round" stroke-linejoin="round" stroke-miterlimit="10" d="M48.7,61.4h-5
			l0,5.1h4.3l3.1-2.5C51.2,61.3,48.7,61.4,48.7,61.4z"/>
		<path fill="#EEEEEE" stroke="#2CA9E1" stroke-linecap="round" stroke-linejoin="round" stroke-miterlimit="10" d="M87.3,18.2h28.7
			c2.9,0,5.2,2.1,5.2,5s-2.3,5-5.2,5c-0.2,0-21.5,0-22.5,0v3.9l-3.3-3.9c-2.6,0-3,0-3,0c-2.9,0-5.2-2.1-5.2-5S84.5,18.2,87.3,18.2z"
			/>
		<path fill="#EEEEEE" stroke="#2CA9E1" stroke-linecap="round" stroke-linejoin="round" stroke-miterlimit="10" d="M16.4,12.7h30
			c3.8,0,6.9,2.9,6.9,6.7c0,3.8-3.1,6.7-6.9,6.7c-0.3,0-20.3,0-21.6,0v5.3L20.3,26c-3.5,0-3.9,0-3.9,0c-3.8,0-6.9-2.9-6.9-6.7
			C9.5,15.5,12.6,12.7,16.4,12.7z"/>
	</g>
	
		<rect x="5.1" y="103.1" fill="#EEEDED" stroke="#2FA8E0" stroke-linecap="round" stroke-linejoin="round" stroke-miterlimit="10" width="124" height="6"/>
</g>
</svg>
