<?xml version="1.0" encoding="utf-8"?>
<!-- Generator: Adobe Illustrator 16.0.0, SVG Export Plug-In . SVG Version: 6.00 Build 0)  -->
<!DOCTYPE svg PUBLIC "-//W3C//DTD SVG 1.1//EN" "http://www.w3.org/Graphics/SVG/1.1/DTD/svg11.dtd">
<svg version="1.1" id="Layer_1" xmlns="http://www.w3.org/2000/svg" xmlns:xlink="http://www.w3.org/1999/xlink" x="0px" y="0px"
	 width="167px" height="137.5px" viewBox="0 -21.5 167 137.5" enable-background="new 0 -21.5 167 137.5" xml:space="preserve">
<g>
	<g>
		<g>
			<g>
				
					<rect x="45.3" y="15.3" fill="#EEEEEE" stroke="#2CA9E1" stroke-linecap="round" stroke-linejoin="round" stroke-miterlimit="10" width="8.8" height="23.4"/>
				
					<rect x="54.1" y="15.3" fill="#EEEEEE" stroke="#2CA9E1" stroke-linecap="round" stroke-linejoin="round" stroke-miterlimit="10" width="8.3" height="23.4"/>
				
					<rect x="33.3" y="26.2" fill="#EEEEEE" stroke="#2CA9E1" stroke-linecap="round" stroke-linejoin="round" stroke-miterlimit="10" width="20.8" height="12.5"/>
				
					<rect x="56.7" y="33.5" fill="#EEEEEE" stroke="#2CA9E1" stroke-linecap="round" stroke-linejoin="round" stroke-miterlimit="10" width="3.6" height="5.2"/>
				<g>
					<rect x="35.5" y="31.9" fill="#EEEEEE" width="0.6" height="1.1"/>
					<polygon fill="#2CA9E1" points="36.6,31.4 35,31.4 35,33.5 36.6,33.5 					"/>
				</g>
				<g>
					<rect x="51.8" y="31.9" fill="#EEEEEE" width="0.6" height="1.1"/>
					<polygon fill="#2CA9E1" points="52.8,31.4 51.3,31.4 51.3,33.5 52.8,33.5 					"/>
				</g>
				<g>
					<rect x="58.3" y="24.1" fill="#EEEEEE" width="0.6" height="1.1"/>
					<polygon fill="#2CA9E1" points="59.3,23.6 57.8,23.6 57.8,25.7 59.3,25.7 					"/>
				</g>
				<path fill="#EEEEEE" stroke="#2CA9E1" stroke-linecap="round" stroke-linejoin="round" stroke-miterlimit="10" d="M23.7,21.6
					h19.9c5.7,0,10.5,2.7,10.5,4.7h-21"/>
				<path fill="#EEEEEE" stroke="#2CA9E1" stroke-linecap="round" stroke-linejoin="round" stroke-miterlimit="10" d="M12.5,26.2
					c0-2,4.7-4.7,10.4-4.7c5.7,0,10.4,2.7,10.4,4.7"/>
				
					<rect x="12.5" y="26.2" fill="#EEEEEE" stroke="#2CA9E1" stroke-linecap="round" stroke-linejoin="round" stroke-miterlimit="10" width="20.8" height="12.5"/>
				<g>
					
						<rect x="38.3" y="31.4" fill="#EEEEEE" stroke="#2CA9E1" stroke-linecap="round" stroke-linejoin="round" stroke-miterlimit="10" width="11.4" height="7.3"/>
					
						<line fill="none" stroke="#2CA9E1" stroke-linecap="round" stroke-linejoin="round" stroke-miterlimit="10" x1="38.3" y1="37.6" x2="49.8" y2="37.6"/>
				</g>
				<g>
					
						<rect x="17.5" y="30.8" fill="#EEEEEE" stroke="#2CA9E1" stroke-linecap="round" stroke-linejoin="round" stroke-miterlimit="10" width="11" height="7.9"/>
					
						<rect x="12.6" y="30.8" fill="#EEEEEE" stroke="#2CA9E1" stroke-linecap="round" stroke-linejoin="round" stroke-miterlimit="10" width="6.7" height="7.9"/>
					<g>
						<path fill="#EEEEEE" stroke="#2CA9E1" stroke-linecap="round" stroke-linejoin="round" stroke-miterlimit="10" d="M17.7,34.2
							c0-0.8-0.6-1.4-1.4-1.4c-0.2,0-0.4,0.1-0.6,0.1l0,0L12,34.4l0,0c-0.6,0.3-1.4,0.7-1.5,2c-0.1,1.3,1,2.3,2.3,2.3
							c0.6,0,1.1-0.2,1.5-0.5l0,0l0,0c0.1-0.1,0.1-0.1,0.2-0.2l2.7-2.7l0,0C17.5,35,17.7,34.6,17.7,34.2z"/>
					</g>
					
						<rect x="21.3" y="33.8" fill="#EEEEEE" stroke="#2CA9E1" stroke-linecap="round" stroke-linejoin="round" stroke-miterlimit="10" width="5.7" height="4.9"/>
					<path fill="#EEEEEE" stroke="#2CA9E1" stroke-linecap="round" stroke-linejoin="round" stroke-miterlimit="10" d="M27,36.2"/>
					<path fill="#EEEEEE" stroke="#2CA9E1" stroke-linecap="round" stroke-linejoin="round" stroke-miterlimit="10" d="M21.3,36.2"
						/>
					
						<line fill="none" stroke="#2CA9E1" stroke-linecap="round" stroke-linejoin="round" stroke-miterlimit="10" x1="21.3" y1="37.4" x2="27" y2="37.4"/>
				</g>
			</g>
			<path fill="#EEEEEE" d="M6,36.2c1.6,0,2,1.4,3.9,1.4s2.3-1.4,3.9-1.4c1.6,0,2,1.4,3.8,1.4c1.9,0,2.3-1.4,3.8-1.4
				c1.6,0,2,1.4,3.8,1.4c1.9,0,2.3-1.4,3.8-1.4c1.6,0,2,1.4,3.8,1.4c1.9,0,2.3-1.4,3.8-1.4c1.6,0,2,1.4,3.8,1.4
				c1.9,0,2.3-1.4,3.8-1.4c1.6,0,2,1.4,3.8,1.4s2.3-1.4,3.8-1.4c1.6,0,2,1.4,3.8,1.4c1.9,0,2.3-1.4,3.8-1.4c1.6,0,1.9,1.4,3.8,1.4
				c1.9,0,2.3-1.4,3.8-1.4v23.7H6V36.2z"/>
			<path fill="none" stroke="#2CA9E1" stroke-linecap="round" stroke-linejoin="round" stroke-miterlimit="10" d="M67.4,36.2
				c-1.6,0-2,1.4-3.8,1.4c-1.8,0-2.2-1.4-3.8-1.4c-1.6,0-2,1.4-3.8,1.4c-1.9,0-2.2-1.4-3.8-1.4c-1.6,0-2,1.4-3.8,1.4
				c-1.8,0-2.2-1.4-3.8-1.4s-2,1.4-3.8,1.4c-1.9,0-2.2-1.4-3.8-1.4s-2,1.4-3.8,1.4c-1.8,0-2.2-1.4-3.8-1.4s-2,1.4-3.8,1.4
				c-1.9,0-2.2-1.4-3.8-1.4c-1.6,0-2,1.4-3.8,1.4c-1.9,0-2.2-1.4-3.8-1.4c-1.6,0-2,1.4-3.8,1.4c-1.8,0-2.2-1.4-3.8-1.4"/>
			<path fill="none" stroke="#2CA9E1" stroke-linecap="round" stroke-linejoin="round" stroke-miterlimit="10" d="M67.4,40.2
				c-1.6,0-2,1.4-3.8,1.4c-1.8,0-2.2-1.4-3.8-1.4c-1.6,0-2,1.4-3.8,1.4c-1.9,0-2.2-1.4-3.8-1.4c-1.6,0-2,1.4-3.8,1.4
				c-1.8,0-2.2-1.4-3.8-1.4s-2,1.4-3.8,1.4c-1.9,0-2.2-1.4-3.8-1.4s-2,1.4-3.8,1.4c-1.8,0-2.2-1.4-3.8-1.4s-2,1.4-3.8,1.4
				c-1.9,0-2.2-1.4-3.8-1.4c-1.6,0-2,1.4-3.8,1.4c-1.9,0-2.2-1.4-3.8-1.4c-1.6,0-2,1.4-3.8,1.4c-1.8,0-2.2-1.4-3.8-1.4"/>
		</g>
		
			<rect x="49.7" y="10.5" fill="#EEEEEE" stroke="#2CA9E1" stroke-linecap="round" stroke-linejoin="round" stroke-miterlimit="10" width="2.2" height="4.9"/>
		
			<rect x="45.3" y="8.5" fill="#EEEEEE" stroke="#2CA9E1" stroke-linecap="round" stroke-linejoin="round" stroke-miterlimit="10" width="2.2" height="6.8"/>
	</g>
	<g>
		<polygon fill="#EEEEEE" stroke="#2CA9E1" stroke-linecap="round" stroke-linejoin="round" stroke-miterlimit="10" points="
			156.3,38 133.2,38 133.2,44.2 160.7,44.2 		"/>
		
			<rect x="133.2" y="44.2" fill="#EEEEEE" stroke="#2CA9E1" stroke-linecap="round" stroke-linejoin="round" stroke-miterlimit="10" width="27.5" height="24.1"/>
		
			<rect x="73.6" y="24.3" fill="#EEEEEE" stroke="#2CA9E1" stroke-linecap="round" stroke-linejoin="round" stroke-miterlimit="10" width="40.7" height="44"/>
		<g>
			<polyline fill="#EEEEEE" stroke="#2CA9E1" stroke-linecap="round" stroke-linejoin="round" stroke-miterlimit="10" points="
				71.3,53 71.3,46.9 73.6,45.8 73.6,53 			"/>
			
				<rect x="74.6" y="53" fill="#EEEEEE" stroke="#2CA9E1" stroke-linecap="round" stroke-linejoin="round" stroke-miterlimit="10" width="21.1" height="15.2"/>
			
				<rect x="65.2" y="53" fill="#EEEEEE" stroke="#2CA9E1" stroke-linecap="round" stroke-linejoin="round" stroke-miterlimit="10" width="12.9" height="15.2"/>
			<g>
				<path fill="#EEEEEE" stroke="#2CA9E1" stroke-linecap="round" stroke-linejoin="round" stroke-miterlimit="10" d="M75.1,59.5
					c0-1.5-1.2-2.7-2.7-2.7c-0.4,0-0.8,0.1-1.2,0.3l0,0L64.1,60l0,0c-1.2,0.5-2.8,1.4-2.9,3.8c-0.2,2.4,2,4.5,4.4,4.5
					c1.1,0,2.1-0.4,2.8-1l0,0l0,0c0.1-0.1,0.3-0.3,0.4-0.4l5.3-5.2l0,0C74.7,61.1,75.1,60.4,75.1,59.5z"/>
				<g>
					<path fill="#EEEEEE" d="M72.4,60c-0.3,0-0.5-0.2-0.5-0.5s0.2-0.5,0.5-0.5c0.3,0,0.5,0.2,0.5,0.5S72.7,60,72.4,60z"/>
					<path fill="#2CA9E1" d="M72.4,58.6c-0.5,0-1,0.4-1,1c0,0.6,0.4,1,1,1c0.5,0,1-0.4,1-1C73.4,59,73,58.6,72.4,58.6L72.4,58.6z"/>
				</g>
				<g>
					<path fill="#EEEEEE" d="M65.6,65.9c-1.1,0-2-0.9-2-2c0-1.1,0.9-2,2-2s2,0.9,2,2C67.6,65,66.7,65.9,65.6,65.9z"/>
					<path fill="#2CA9E1" d="M65.6,62.3c0.9,0,1.5,0.7,1.5,1.5c0,0.9-0.7,1.5-1.5,1.5c-0.9,0-1.5-0.7-1.5-1.5
						C64,63,64.7,62.3,65.6,62.3 M65.6,61.3c-1.4,0-2.5,1.1-2.5,2.5c0,1.4,1.1,2.5,2.5,2.5s2.5-1.1,2.5-2.5
						C68.1,62.5,67,61.3,65.6,61.3L65.6,61.3z"/>
				</g>
			</g>
			
				<rect x="82" y="58.9" fill="#EEEEEE" stroke="#2CA9E1" stroke-linecap="round" stroke-linejoin="round" stroke-miterlimit="10" width="10.9" height="9.4"/>
			
				<line fill="none" stroke="#2CA9E1" stroke-linecap="round" stroke-linejoin="round" stroke-miterlimit="10" x1="82" y1="61.5" x2="92.9" y2="61.5"/>
			
				<line fill="none" stroke="#2CA9E1" stroke-linecap="round" stroke-linejoin="round" stroke-miterlimit="10" x1="82" y1="63.5" x2="92.9" y2="63.5"/>
			
				<line fill="none" stroke="#2CA9E1" stroke-linecap="round" stroke-linejoin="round" stroke-miterlimit="10" x1="82" y1="65.7" x2="92.9" y2="65.7"/>
		</g>
		
			<rect x="95.7" y="24.3" fill="#EEEEEE" stroke="#2CA9E1" stroke-linecap="round" stroke-linejoin="round" stroke-miterlimit="10" width="40.7" height="44"/>
		
			<rect x="101" y="55.7" fill="#EEEEEE" stroke="#2CA9E1" stroke-linecap="round" stroke-linejoin="round" stroke-miterlimit="10" width="2.7" height="3.6"/>
		
			<rect x="129.2" y="55.7" fill="#EEEEEE" stroke="#2CA9E1" stroke-linecap="round" stroke-linejoin="round" stroke-miterlimit="10" width="2.7" height="3.6"/>
		<g>
			
				<rect x="106.6" y="55.6" fill="#EEEEEE" stroke="#2CA9E1" stroke-linecap="round" stroke-linejoin="round" stroke-miterlimit="10" width="19.9" height="12.6"/>
			
				<line fill="none" stroke="#2CA9E1" stroke-linecap="round" stroke-linejoin="round" stroke-miterlimit="10" x1="106.6" y1="57.6" x2="126.5" y2="57.6"/>
			
				<line fill="none" stroke="#2CA9E1" stroke-linecap="round" stroke-linejoin="round" stroke-miterlimit="10" x1="106.6" y1="59.8" x2="126.5" y2="59.8"/>
			
				<line fill="none" stroke="#2CA9E1" stroke-linecap="round" stroke-linejoin="round" stroke-miterlimit="10" x1="106.6" y1="62" x2="126.5" y2="62"/>
			
				<line fill="none" stroke="#2CA9E1" stroke-linecap="round" stroke-linejoin="round" stroke-miterlimit="10" x1="106.6" y1="64.1" x2="126.5" y2="64.1"/>
			
				<line fill="none" stroke="#2CA9E1" stroke-linecap="round" stroke-linejoin="round" stroke-miterlimit="10" x1="106.6" y1="66.3" x2="126.5" y2="66.3"/>
		</g>
		<g>
			
				<rect x="142.3" y="55.6" fill="#EEEEEE" stroke="#2CA9E1" stroke-linecap="round" stroke-linejoin="round" stroke-miterlimit="10" width="12.6" height="12.6"/>
			
				<line fill="none" stroke="#2CA9E1" stroke-linecap="round" stroke-linejoin="round" stroke-miterlimit="10" x1="142.3" y1="57.6" x2="154.9" y2="57.6"/>
			
				<line fill="none" stroke="#2CA9E1" stroke-linecap="round" stroke-linejoin="round" stroke-miterlimit="10" x1="142.3" y1="59.8" x2="154.9" y2="59.8"/>
			
				<line fill="none" stroke="#2CA9E1" stroke-linecap="round" stroke-linejoin="round" stroke-miterlimit="10" x1="142.3" y1="62" x2="154.9" y2="62"/>
			
				<line fill="none" stroke="#2CA9E1" stroke-linecap="round" stroke-linejoin="round" stroke-miterlimit="10" x1="142.3" y1="64.1" x2="154.9" y2="64.1"/>
			
				<line fill="none" stroke="#2CA9E1" stroke-linecap="round" stroke-linejoin="round" stroke-miterlimit="10" x1="142.3" y1="66.3" x2="154.9" y2="66.3"/>
		</g>
		
			<rect x="93" y="12.6" fill="#EEEEEE" stroke="#2CA9E1" stroke-linecap="round" stroke-linejoin="round" stroke-miterlimit="10" width="5.2" height="11.6"/>
		
			<rect x="84.7" y="7.9" fill="#EEEEEE" stroke="#2CA9E1" stroke-linecap="round" stroke-linejoin="round" stroke-miterlimit="10" width="5.2" height="16.4"/>
		
			<rect x="83.4" y="41.7" fill="#EEEEEE" stroke="#2CA9E1" stroke-linecap="round" stroke-linejoin="round" stroke-miterlimit="10" width="2.7" height="3.6"/>
		
			<rect x="83.4" y="32.6" fill="#EEEEEE" stroke="#2CA9E1" stroke-linecap="round" stroke-linejoin="round" stroke-miterlimit="10" width="2.7" height="3.6"/>
		<g>
			<path fill="#EEEEEE" d="M100,9.1c-1.9,0-3.4-1.5-3.4-3.4c0-1.5,1-2.8,2.5-3.2C99,2.2,99,1.9,99,1.6c0-3,2.4-5.4,5.4-5.4
				s5.4,2.4,5.4,5.4S107.4,7,104.4,7c-0.4,0-0.8-0.1-1.2-0.2C102.8,8.2,101.5,9.1,100,9.1z"/>
			<path fill="#2CA9E1" d="M104.4-3.3c2.7,0,4.9,2.2,4.9,4.9c0,2.7-2.2,4.9-4.9,4.9c-0.6,0-1.1-0.1-1.6-0.3
				c-0.2,1.4-1.4,2.4-2.8,2.4c-1.6,0-2.9-1.3-2.9-2.9c0-1.5,1.1-2.7,2.6-2.8c-0.1-0.4-0.2-0.9-0.2-1.3C99.5-1.1,101.7-3.3,104.4-3.3
				 M104.4-4.3c-3.3,0-5.9,2.6-5.9,5.9c0,0.2,0,0.4,0,0.6c-1.4,0.6-2.4,2-2.4,3.6c0,2.1,1.7,3.9,3.9,3.9c1.5,0,2.9-0.9,3.5-2.2
				c0.3,0.1,0.6,0.1,0.9,0.1c3.3,0,5.9-2.6,5.9-5.9C110.3-1.7,107.7-4.3,104.4-4.3L104.4-4.3z"/>
		</g>
	</g>
	<g>
		<g>
			<g>
				
					<rect x="63.9" y="52.6" fill="#EEEEEE" stroke="#2CA9E1" stroke-linecap="round" stroke-linejoin="round" stroke-miterlimit="10" width="18.4" height="26.3"/>
				<g>
					
						<rect x="72.1" y="71.2" fill="#EEEEEE" stroke="#2CA9E1" stroke-linecap="round" stroke-linejoin="round" stroke-miterlimit="10" width="8.6" height="7.4"/>
					
						<rect x="63.5" y="71.2" fill="#EEEEEE" stroke="#2CA9E1" stroke-linecap="round" stroke-linejoin="round" stroke-miterlimit="10" width="8.6" height="7.4"/>
					<g>
						
							<circle fill="#EEEEEE" stroke="#2CA9E1" stroke-linecap="round" stroke-linejoin="round" stroke-miterlimit="10" cx="67.8" cy="74.9" r="1.7"/>
						
							<rect x="65.2" y="74.2" fill="#EEEEEE" stroke="#2CA9E1" stroke-linecap="round" stroke-linejoin="round" stroke-miterlimit="10" width="5.3" height="1.5"/>
					</g>
				</g>
				<g>
					
						<rect x="70.4" y="63.8" fill="#EEEEEE" stroke="#2CA9E1" stroke-linecap="round" stroke-linejoin="round" stroke-miterlimit="10" width="8.6" height="7.4"/>
					
						<rect x="61.8" y="63.8" fill="#EEEEEE" stroke="#2CA9E1" stroke-linecap="round" stroke-linejoin="round" stroke-miterlimit="10" width="8.6" height="7.4"/>
					<g>
						
							<circle fill="#EEEEEE" stroke="#2CA9E1" stroke-linecap="round" stroke-linejoin="round" stroke-miterlimit="10" cx="66.1" cy="67.5" r="1.7"/>
						
							<rect x="63.5" y="66.8" fill="#EEEEEE" stroke="#2CA9E1" stroke-linecap="round" stroke-linejoin="round" stroke-miterlimit="10" width="5.3" height="1.5"/>
					</g>
				</g>
				<path fill="#EEEEEE" stroke="#2CA9E1" stroke-linecap="round" stroke-linejoin="round" stroke-miterlimit="10" d="M67.9,84.1
					c0,2.9,2.4,5.3,5.3,5.3c2.9,0,5.3-2.4,5.3-5.3c0-2.9-2.4-5.3-5.3-5.3C70.2,78.9,67.9,81.2,67.9,84.1z"/>
				
					<circle fill="#EEEEEE" stroke="#2CA9E1" stroke-linecap="round" stroke-linejoin="round" stroke-miterlimit="10" cx="60.6" cy="84.1" r="5.3"/>
				<path fill="#EEEEEE" stroke="#2CA9E1" stroke-linecap="round" stroke-linejoin="round" stroke-miterlimit="10" d="M6.9,72.4
					c0.6-1.1,2.7-5.1,4-7.3c1.3-2.3,2-3.2,4-3.2s8.2,0,8.2,0V79h56.7v5.3H23.2H12.4H6.6C6.6,84.2,6.5,73,6.9,72.4z"/>
				
					<rect x="62.6" y="81.7" fill="#EEEEEE" stroke="#2CA9E1" stroke-linecap="round" stroke-linejoin="round" stroke-miterlimit="10" width="21.1" height="2.5"/>
				<g>
					
						<circle fill="#EEEEEE" stroke="#2CA9E1" stroke-linecap="round" stroke-linejoin="round" stroke-miterlimit="10" cx="13.9" cy="84.2" r="5.3"/>
					
						<circle fill="#EEEEEE" stroke="#2CA9E1" stroke-linecap="round" stroke-linejoin="round" stroke-miterlimit="10" cx="13.9" cy="84.2" r="2.5"/>
				</g>
				<g>
					<path fill="#EEEEEE" stroke="#2CA9E1" stroke-linecap="round" stroke-linejoin="round" stroke-miterlimit="10" d="M48.9,84.2
						c0,2.9,2.4,5.3,5.3,5.3c2.9,0,5.3-2.4,5.3-5.3c0-2.9-2.5-5.2-5.4-5.2S48.9,81.3,48.9,84.2z"/>
					
						<circle fill="#EEEEEE" stroke="#2CA9E1" stroke-linecap="round" stroke-linejoin="round" stroke-miterlimit="10" cx="54.1" cy="84.2" r="2.5"/>
				</g>
				<g>
					
						<circle fill="#EEEEEE" stroke="#2CA9E1" stroke-linecap="round" stroke-linejoin="round" stroke-miterlimit="10" cx="41.9" cy="84.2" r="5.3"/>
					<path fill="#EEEEEE" stroke="#2CA9E1" stroke-linecap="round" stroke-linejoin="round" stroke-miterlimit="10" d="M39.3,84.2
						c0,1.4,1.1,2.5,2.5,2.5c1.4,0,2.5-1.1,2.5-2.5c0-1.4-1.1-2.5-2.5-2.5C40.5,81.7,39.3,82.8,39.3,84.2z"/>
				</g>
				<polyline fill="none" stroke="#2CA9E1" stroke-linecap="round" stroke-linejoin="round" stroke-miterlimit="10" points="
					20.3,62.5 20.3,79 23.6,79 				"/>
				<path fill="#EEEEEE" stroke="#2CA9E1" stroke-linecap="round" stroke-linejoin="round" stroke-miterlimit="10" d="M17.7,71.1
					h-7.6c0,0,1.8-4,2.2-4.7c0.4-0.7,0.9-1.9,2.3-1.9c1.3,0,3.2,0,3.2,0L17.7,71.1L17.7,71.1z"/>
				<g>
					
						<rect x="61.3" y="71.2" fill="#EEEEEE" stroke="#2CA9E1" stroke-linecap="round" stroke-linejoin="round" stroke-miterlimit="10" width="8.6" height="7.4"/>
					
						<rect x="52.7" y="71.2" fill="#EEEEEE" stroke="#2CA9E1" stroke-linecap="round" stroke-linejoin="round" stroke-miterlimit="10" width="8.6" height="7.4"/>
					<g>
						
							<circle fill="#EEEEEE" stroke="#2CA9E1" stroke-linecap="round" stroke-linejoin="round" stroke-miterlimit="10" cx="57" cy="74.9" r="1.7"/>
						
							<rect x="54.3" y="74.2" fill="#EEEEEE" stroke="#2CA9E1" stroke-linecap="round" stroke-linejoin="round" stroke-miterlimit="10" width="5.3" height="1.5"/>
					</g>
				</g>
				<g>
					
						<rect x="59.6" y="63.8" fill="#EEEEEE" stroke="#2CA9E1" stroke-linecap="round" stroke-linejoin="round" stroke-miterlimit="10" width="8.6" height="7.4"/>
					
						<rect x="51" y="63.8" fill="#EEEEEE" stroke="#2CA9E1" stroke-linecap="round" stroke-linejoin="round" stroke-miterlimit="10" width="8.6" height="7.4"/>
					<g>
						
							<circle fill="#EEEEEE" stroke="#2CA9E1" stroke-linecap="round" stroke-linejoin="round" stroke-miterlimit="10" cx="55.3" cy="67.5" r="1.7"/>
						
							<rect x="52.7" y="66.8" fill="#EEEEEE" stroke="#2CA9E1" stroke-linecap="round" stroke-linejoin="round" stroke-miterlimit="10" width="5.3" height="1.5"/>
					</g>
				</g>
				
					<rect x="23" y="52.6" fill="#EEEEEE" stroke="#2CA9E1" stroke-linecap="round" stroke-linejoin="round" stroke-miterlimit="10" width="40.9" height="26.3"/>
			</g>
			<g>
				
					<circle fill="#EEEEEE" stroke="#2CA9E1" stroke-linecap="round" stroke-linejoin="round" stroke-miterlimit="10" cx="43.4" cy="66" r="8.6"/>
				
					<rect x="30.3" y="62.3" fill="#EEEEEE" stroke="#2CA9E1" stroke-linecap="round" stroke-linejoin="round" stroke-miterlimit="10" width="26.4" height="7.3"/>
			</g>
		</g>
		<polygon fill="#EEEEEE" stroke="#2CA9E1" stroke-linecap="round" stroke-linejoin="round" stroke-miterlimit="10" points="
			63.9,52.6 54.8,50.7 54.8,78 63.9,79 		"/>
		<polygon fill="#EEEEEE" stroke="#2CA9E1" stroke-linecap="round" stroke-linejoin="round" stroke-miterlimit="10" points="
			82.3,52.6 91.4,50.7 91.4,78 82.3,79 		"/>
	</g>
	<g>
		<g>
			<path fill="#EEEEEE" stroke="#2CA9E1" stroke-linecap="round" stroke-linejoin="round" stroke-miterlimit="10" d="M110.1,87
				c-0.7-0.7-1.8-0.7-2.5,0l-9.9,9.9l2.5,2.5l9.9-9.9C110.8,88.8,110.8,87.7,110.1,87z"/>
			
				<line fill="none" stroke="#2CA9E1" stroke-linecap="round" stroke-linejoin="round" stroke-miterlimit="10" x1="100.2" y1="99.4" x2="96.6" y2="95.7"/>
			<path fill="#EEEEEE" stroke="#2CA9E1" stroke-linecap="round" stroke-linejoin="round" stroke-miterlimit="10" d="M108.9,85.4
				c-1,0-1.8,0.8-1.8,1.8v14h3.5v-14C110.6,86.2,109.8,85.4,108.9,85.4z"/>
			
				<line fill="none" stroke="#2CA9E1" stroke-linecap="round" stroke-linejoin="round" stroke-miterlimit="10" x1="110.6" y1="101.2" x2="105.4" y2="101.2"/>
			
				<circle fill="#EEEEEE" stroke="#2CA9E1" stroke-linecap="round" stroke-linejoin="round" stroke-miterlimit="10" cx="107.6" cy="76.1" r="3.1"/>
			
				<line fill="none" stroke="#2CA9E1" stroke-linecap="round" stroke-linejoin="round" stroke-miterlimit="10" x1="101.5" y1="76.1" x2="110.7" y2="76.1"/>
			<path fill="#EEEEEE" stroke="#2CA9E1" stroke-linecap="round" stroke-linejoin="round" stroke-miterlimit="10" d="M107.6,79.2
				c-1.7,0-3.1,1.4-3.1,3.1V90h6.2v-7.7C110.7,80.6,109.3,79.2,107.6,79.2z"/>
			<g>
				
					<rect x="98.8" y="81.6" fill="#EEEEEE" stroke="#2CA9E1" stroke-linecap="round" stroke-linejoin="round" stroke-miterlimit="10" width="7" height="6"/>
				
					<rect x="91.8" y="81.6" fill="#EEEEEE" stroke="#2CA9E1" stroke-linecap="round" stroke-linejoin="round" stroke-miterlimit="10" width="7" height="6"/>
				<g>
					
						<circle fill="#EEEEEE" stroke="#2CA9E1" stroke-linecap="round" stroke-linejoin="round" stroke-miterlimit="10" cx="95.3" cy="84.6" r="1.4"/>
					
						<rect x="93.1" y="84" fill="#EEEEEE" stroke="#2CA9E1" stroke-linecap="round" stroke-linejoin="round" stroke-miterlimit="10" width="4.3" height="1.2"/>
				</g>
			</g>
			<path fill="#EEEEEE" stroke="#2CA9E1" stroke-linecap="round" stroke-linejoin="round" stroke-miterlimit="10" d="M109.9,82.1
				c-0.4-0.4-1.1-0.4-1.5,0l-5.9,5.9l1.5,1.5l5.9-5.9C110.3,83.1,110.3,82.5,109.9,82.1z"/>
		</g>
		<g>
			<path fill="#EEEEEE" stroke="#2CA9E1" stroke-linecap="round" stroke-linejoin="round" stroke-miterlimit="10" d="M136.4,87
				c-0.7-0.7-1.8-0.7-2.5,0l-9.9,9.9l2.5,2.5l9.9-9.9C137.1,88.8,137.1,87.7,136.4,87z"/>
			
				<line fill="none" stroke="#2CA9E1" stroke-linecap="round" stroke-linejoin="round" stroke-miterlimit="10" x1="126.6" y1="99.4" x2="122.9" y2="95.7"/>
			<path fill="#EEEEEE" stroke="#2CA9E1" stroke-linecap="round" stroke-linejoin="round" stroke-miterlimit="10" d="M135.2,85.4
				c-1,0-1.8,0.8-1.8,1.8v14h3.5v-14C137,86.2,136.2,85.4,135.2,85.4z"/>
			
				<line fill="none" stroke="#2CA9E1" stroke-linecap="round" stroke-linejoin="round" stroke-miterlimit="10" x1="137" y1="101.2" x2="131.8" y2="101.2"/>
			
				<circle fill="#EEEEEE" stroke="#2CA9E1" stroke-linecap="round" stroke-linejoin="round" stroke-miterlimit="10" cx="133.9" cy="76.1" r="3.1"/>
			
				<line fill="none" stroke="#2CA9E1" stroke-linecap="round" stroke-linejoin="round" stroke-miterlimit="10" x1="127.8" y1="76.1" x2="137" y2="76.1"/>
			<path fill="#EEEEEE" stroke="#2CA9E1" stroke-linecap="round" stroke-linejoin="round" stroke-miterlimit="10" d="M133.9,79.2
				c-1.7,0-3.1,1.4-3.1,3.1V90h6.2v-7.7C137,80.6,135.6,79.2,133.9,79.2z"/>
			<g>
				
					<rect x="125.1" y="81.6" fill="#EEEEEE" stroke="#2CA9E1" stroke-linecap="round" stroke-linejoin="round" stroke-miterlimit="10" width="7" height="6"/>
				
					<rect x="118.1" y="81.6" fill="#EEEEEE" stroke="#2CA9E1" stroke-linecap="round" stroke-linejoin="round" stroke-miterlimit="10" width="7" height="6"/>
				<g>
					
						<circle fill="#EEEEEE" stroke="#2CA9E1" stroke-linecap="round" stroke-linejoin="round" stroke-miterlimit="10" cx="121.6" cy="84.6" r="1.4"/>
					
						<rect x="119.5" y="84" fill="#EEEEEE" stroke="#2CA9E1" stroke-linecap="round" stroke-linejoin="round" stroke-miterlimit="10" width="4.3" height="1.2"/>
				</g>
			</g>
			<g>
				
					<rect x="123.2" y="75.6" fill="#EEEEEE" stroke="#2CA9E1" stroke-linecap="round" stroke-linejoin="round" stroke-miterlimit="10" width="7" height="6"/>
				
					<rect x="116.2" y="75.6" fill="#EEEEEE" stroke="#2CA9E1" stroke-linecap="round" stroke-linejoin="round" stroke-miterlimit="10" width="7" height="6"/>
				<g>
					
						<circle fill="#EEEEEE" stroke="#2CA9E1" stroke-linecap="round" stroke-linejoin="round" stroke-miterlimit="10" cx="119.7" cy="78.6" r="1.4"/>
					
						<rect x="117.5" y="78" fill="#EEEEEE" stroke="#2CA9E1" stroke-linecap="round" stroke-linejoin="round" stroke-miterlimit="10" width="4.3" height="1.2"/>
				</g>
			</g>
			<path fill="#EEEEEE" stroke="#2CA9E1" stroke-linecap="round" stroke-linejoin="round" stroke-miterlimit="10" d="M136.2,82.1
				c-0.4-0.4-1.1-0.4-1.5,0l-5.9,5.9l1.5,1.5l5.9-5.9C136.6,83.1,136.6,82.5,136.2,82.1z"/>
		</g>
	</g>
	
		<line fill="none" stroke="#2CA9E1" stroke-linecap="round" stroke-linejoin="round" stroke-miterlimit="10" x1="71.3" y1="47.3" x2="8" y2="47.3"/>
</g>
</svg>
