<?xml version="1.0" encoding="utf-8"?>
<!-- Generator: Adobe Illustrator 16.0.0, SVG Export Plug-In . SVG Version: 6.00 Build 0)  -->
<!DOCTYPE svg PUBLIC "-//W3C//DTD SVG 1.1//EN" "http://www.w3.org/Graphics/SVG/1.1/DTD/svg11.dtd">
<svg version="1.1" id="Layer_1" xmlns="http://www.w3.org/2000/svg" xmlns:xlink="http://www.w3.org/1999/xlink" x="0px" y="0px"
	 width="110px" height="137px" viewBox="0 0 110 137" enable-background="new 0 0 110 137" xml:space="preserve">
<g>
	<g>
		<g>
			<g>
				
					<rect x="74.5" y="68.2" fill="#EEEEEE" stroke="#2CA9E1" stroke-linecap="round" stroke-linejoin="round" stroke-miterlimit="10" width="8.3" height="21.9"/>
				
					<rect x="82.8" y="68.2" fill="#EEEEEE" stroke="#2CA9E1" stroke-linecap="round" stroke-linejoin="round" stroke-miterlimit="10" width="7.8" height="21.9"/>
				
					<rect x="63.4" y="78.4" fill="#EEEEEE" stroke="#2CA9E1" stroke-linecap="round" stroke-linejoin="round" stroke-miterlimit="10" width="19.5" height="11.7"/>
				
					<rect x="85.2" y="85.2" fill="#EEEEEE" stroke="#2CA9E1" stroke-linecap="round" stroke-linejoin="round" stroke-miterlimit="10" width="3.4" height="4.9"/>
				<g>
					<rect x="65.5" y="83.8" fill="#EEEEEE" width="0.5" height="0.9"/>
					<polygon fill="#2CA9E1" points="66.4,83.3 65,83.3 65,85.2 66.4,85.2 66.4,83.3 					"/>
				</g>
				<g>
					<rect x="80.6" y="83.8" fill="#EEEEEE" width="0.5" height="0.9"/>
					<polygon fill="#2CA9E1" points="81.6,83.3 80.1,83.3 80.1,85.2 81.6,85.2 81.6,83.3 					"/>
				</g>
				<g>
					<rect x="86.7" y="76.5" fill="#EEEEEE" width="0.5" height="0.9"/>
					<polygon fill="#2CA9E1" points="87.7,76 86.2,76 86.2,77.9 87.7,77.9 87.7,76 					"/>
				</g>
				<path fill="#EEEEEE" stroke="#2CA9E1" stroke-linecap="round" stroke-linejoin="round" stroke-miterlimit="10" d="M54.4,74H73
					c5.4,0,9.8,2.5,9.8,4.4H63.1"/>
				<path fill="#EEEEEE" stroke="#2CA9E1" stroke-linecap="round" stroke-linejoin="round" stroke-miterlimit="10" d="M43.9,78.4
					c0-1.9,4.4-4.4,9.7-4.4s9.7,2.5,9.7,4.4"/>
				
					<rect x="43.9" y="78.4" fill="#EEEEEE" stroke="#2CA9E1" stroke-linecap="round" stroke-linejoin="round" stroke-miterlimit="10" width="19.5" height="11.7"/>
				<g>
					
						<rect x="68" y="83.3" fill="#EEEEEE" stroke="#2CA9E1" stroke-linecap="round" stroke-linejoin="round" stroke-miterlimit="10" width="10.7" height="6.8"/>
					
						<line fill="#EEEEEE" stroke="#2CA9E1" stroke-linecap="round" stroke-linejoin="round" stroke-miterlimit="10" x1="68" y1="89" x2="78.7" y2="89"/>
				</g>
				<g>
					
						<rect x="48.5" y="82.7" fill="#EEEEEE" stroke="#2CA9E1" stroke-linecap="round" stroke-linejoin="round" stroke-miterlimit="10" width="10.3" height="7.4"/>
					
						<rect x="43.9" y="82.7" fill="#EEEEEE" stroke="#2CA9E1" stroke-linecap="round" stroke-linejoin="round" stroke-miterlimit="10" width="6.3" height="7.4"/>
					<g>
						<path fill="#EEEEEE" stroke="#2CA9E1" stroke-linecap="round" stroke-linejoin="round" stroke-miterlimit="10" d="M48.8,85.8
							c0-0.7-0.6-1.3-1.3-1.3c-0.2,0-0.4,0-0.6,0.1l0,0L43.4,86l0,0c-0.6,0.3-1.3,0.7-1.4,1.9c-0.1,1.2,1,2.2,2.1,2.2
							c0.5,0,1-0.2,1.4-0.5h0l0,0c0.1-0.1,0.1-0.1,0.2-0.2l2.6-2.5l0,0C48.6,86.6,48.8,86.2,48.8,85.8z"/>
					</g>
					
						<rect x="52.1" y="85.5" fill="#EEEEEE" stroke="#2CA9E1" stroke-linecap="round" stroke-linejoin="round" stroke-miterlimit="10" width="5.3" height="4.6"/>
					<path fill="#EEEEEE" stroke="#2CA9E1" stroke-linecap="round" stroke-linejoin="round" stroke-miterlimit="10" d="M57.5,87.8"
						/>
					<path fill="#EEEEEE" stroke="#2CA9E1" stroke-linecap="round" stroke-linejoin="round" stroke-miterlimit="10" d="M52.1,87.8"
						/>
					
						<line fill="#EEEEEE" stroke="#2CA9E1" stroke-linecap="round" stroke-linejoin="round" stroke-miterlimit="10" x1="52.1" y1="88.8" x2="57.5" y2="88.8"/>
				</g>
			</g>
			<path fill="#EEEEEE" d="M37.8,87.7c1.5,0,1.9,1.3,3.7,1.3c1.8,0,2.2-1.3,3.6-1.3c1.5,0,1.8,1.3,3.6,1.3s2.1-1.3,3.6-1.3
				c1.5,0,1.8,1.3,3.6,1.3c1.8,0,2.1-1.3,3.6-1.3c1.5,0,1.8,1.3,3.6,1.3c1.8,0,2.1-1.3,3.6-1.3c1.5,0,1.8,1.3,3.6,1.3
				c1.7,0,2.1-1.3,3.6-1.3c1.5,0,1.8,1.3,3.6,1.3c1.8,0,2.1-1.3,3.6-1.3c1.5,0,1.8,1.3,3.6,1.3c1.8,0,2.1-1.3,3.6-1.3
				c1.5,0,1.8,1.3,3.6,1.3s2.1-1.3,3.6-1.3v22.2H37.8V87.7z"/>
			<path fill="none" stroke="#2CA9E1" stroke-linecap="round" stroke-linejoin="round" stroke-miterlimit="10" d="M95.2,87.8
				c-1.5,0-1.8,1.3-3.6,1.3s-2.1-1.3-3.6-1.3c-1.5,0-1.8,1.3-3.6,1.3c-1.7,0-2.1-1.3-3.6-1.3c-1.5,0-1.8,1.3-3.6,1.3
				c-1.8,0-2.1-1.3-3.6-1.3c-1.5,0-1.8,1.3-3.6,1.3c-1.8,0-2.1-1.3-3.6-1.3c-1.5,0-1.8,1.3-3.6,1.3c-1.8,0-2.1-1.3-3.6-1.3
				c-1.5,0-1.8,1.3-3.6,1.3c-1.7,0-2.1-1.3-3.6-1.3c-1.5,0-1.8,1.3-3.6,1.3c-1.8,0-2.1-1.3-3.6-1.3c-1.5,0-1.8,1.3-3.6,1.3
				s-2.1-1.3-3.6-1.3"/>
			<path fill="none" stroke="#2CA9E1" stroke-linecap="round" stroke-linejoin="round" stroke-miterlimit="10" d="M37.8,87.8
				c-1.5,0-1.9,1.4-3.8,1.4c-1.8,0-2.2-1.4-3.8-1.4c-1.5,0-1.9,1.4-3.8,1.4c-1.8,0-2.2-1.4-3.8-1.4c-1.5,0-1.9,1.4-3.8,1.4
				c-1.8,0-2.2-1.4-3.8-1.4"/>
		</g>
		
			<rect x="78.7" y="63.7" fill="#EEEEEE" stroke="#2CA9E1" stroke-linecap="round" stroke-linejoin="round" stroke-miterlimit="10" width="2" height="4.5"/>
		
			<rect x="74.5" y="61.8" fill="#EEEEEE" stroke="#2CA9E1" stroke-linecap="round" stroke-linejoin="round" stroke-miterlimit="10" width="2" height="6.4"/>
	</g>
	<g>
		
			<circle fill="#EEEEEE" stroke="#2CA9E1" stroke-linecap="round" stroke-linejoin="round" stroke-miterlimit="10" cx="23" cy="99" r="2.9"/>
		<path fill="#EEEEEE" stroke="#2CA9E1" stroke-linecap="round" stroke-linejoin="round" stroke-miterlimit="10" d="M53.1,92.3
			c-1.3-0.3-4.6-0.8-4.6-0.8s-0.8-1.7-1.5-2.9c-0.7-1.2-1.1-1.7-2.2-1.7c-1.1,0-4.5,0-4.5,0v9.4H19.4V99h20.8h5.9h9.4v-1.8
			c0,0,0,0,0-1.8S54.5,92.6,53.1,92.3z"/>
		
			<rect x="18" y="81.7" fill="#EEEEEE" stroke="#2CA9E1" stroke-linecap="round" stroke-linejoin="round" stroke-miterlimit="10" width="10.1" height="14.4"/>
		
			<rect x="28.1" y="81.7" fill="#EEEEEE" stroke="#2CA9E1" stroke-linecap="round" stroke-linejoin="round" stroke-miterlimit="10" width="12.3" height="14.4"/>
		
			<rect x="17.3" y="96.9" fill="#EEEEEE" stroke="#2CA9E1" stroke-linecap="round" stroke-linejoin="round" stroke-miterlimit="10" width="11.6" height="2.2"/>
		
			<circle fill="#EEEEEE" stroke="#2CA9E1" stroke-linecap="round" stroke-linejoin="round" stroke-miterlimit="10" cx="33.2" cy="99" r="2.9"/>
		
			<rect x="50.5" y="96.9" fill="#EEEEEE" stroke="#2CA9E1" stroke-linecap="round" stroke-linejoin="round" stroke-miterlimit="10" width="5.8" height="2.2"/>
		
			<circle fill="#EEEEEE" stroke="#2CA9E1" stroke-linecap="round" stroke-linejoin="round" stroke-miterlimit="10" cx="49.1" cy="99" r="2.9"/>
		
			<circle fill="#EEEEEE" stroke="#2CA9E1" stroke-linecap="round" stroke-linejoin="round" stroke-miterlimit="10" cx="49.1" cy="99" r="1.4"/>
		
			<circle fill="#EEEEEE" stroke="#2CA9E1" stroke-linecap="round" stroke-linejoin="round" stroke-miterlimit="10" cx="33.2" cy="99" r="1.4"/>
		<path fill="#EEEEEE" stroke="#2CA9E1" stroke-linecap="round" stroke-linejoin="round" stroke-miterlimit="10" d="M42.3,92.1h4.2
			c0,0-1-2.2-1.2-2.6c-0.2-0.4-0.5-1.1-1.2-1.1c-0.7,0-1.7,0-1.7,0V92.1z"/>
	</g>
	<path fill="#EEEEEE" d="M95,95.3c-2.6,0-3.1-1.9-5.3-1.9c-2.2,0-2.7,1.9-5.3,1.9c-2.6,0-3.1-1.9-5.3-1.9c-2.2,0-2.7,1.9-5.3,1.9
		s-3.1-1.9-5.3-1.9c-2.2,0-2.7,1.9-5.3,1.9s-3.1-1.9-5.3-1.9c-2.2,0-2.7,1.9-5.3,1.9s-3.1-1.9-5.3-1.9c-2.2,0-2.7,1.9-5.3,1.9
		s-3.1-1.9-5.3-1.9c-2.2,0-2.7,1.9-5.3,1.9c-2.6,0-3.1-1.9-5.3-1.9c-2.2,0-2.8,1.9-5.4,1.9s-3.3-1.9-5.4-1.9v14.1H95L95,95.3z"/>
	<path fill="none" stroke="#2CA9E1" stroke-linecap="round" stroke-linejoin="round" stroke-miterlimit="10" d="M95,95.3
		c-2.6,0-3.1-1.9-5.3-1.9c-2.2,0-2.7,1.9-5.3,1.9c-2.6,0-3.1-1.9-5.3-1.9c-2.2,0-2.7,1.9-5.3,1.9s-3.1-1.9-5.3-1.9
		c-2.2,0-2.7,1.9-5.3,1.9c-2.6,0-3.1-1.9-5.3-1.9c-2.2,0-2.7,1.9-5.3,1.9c-2.6,0-3.1-1.9-5.3-1.9c-2.2,0-2.7,1.9-5.3,1.9
		c-2.6,0-3.1-1.9-5.3-1.9c-2.2,0-2.7,1.9-5.3,1.9c-2.6,0-3.1-1.9-5.3-1.9c-2.2,0-2.7,1.9-5.3,1.9s-3.1-1.9-5.3-1.9"/>
	<path fill="none" stroke="#2CA9E1" stroke-linecap="round" stroke-linejoin="round" stroke-miterlimit="10" d="M95,100.7
		c-2.6,0-3.1-1.9-5.3-1.9c-2.2,0-2.7,1.9-5.3,1.9c-2.6,0-3.1-1.9-5.3-1.9c-2.2,0-2.7,1.9-5.3,1.9s-3.1-1.9-5.3-1.9
		c-2.2,0-2.7,1.9-5.3,1.9c-2.6,0-3.1-1.9-5.3-1.9c-2.2,0-2.7,1.9-5.3,1.9c-2.6,0-3.1-1.9-5.3-1.9c-2.2,0-2.7,1.9-5.3,1.9
		c-2.6,0-3.1-1.9-5.3-1.9c-2.2,0-2.7,1.9-5.3,1.9c-2.6,0-3.1-1.9-5.3-1.9c-2.2,0-2.7,1.9-5.3,1.9s-3.1-1.9-5.3-1.9"/>
	<path fill="none" stroke="#2CA9E1" stroke-linecap="round" stroke-linejoin="round" stroke-miterlimit="10" d="M95,106.2
		c-2.6,0-3.1-1.9-5.3-1.9c-2.2,0-2.7,1.9-5.3,1.9c-2.6,0-3.1-1.9-5.3-1.9c-2.2,0-2.7,1.9-5.3,1.9s-3.1-1.9-5.3-1.9
		c-2.2,0-2.7,1.9-5.3,1.9c-2.6,0-3.1-1.9-5.3-1.9c-2.2,0-2.7,1.9-5.3,1.9c-2.6,0-3.1-1.9-5.3-1.9c-2.2,0-2.7,1.9-5.3,1.9
		c-2.6,0-3.1-1.9-5.3-1.9c-2.2,0-2.7,1.9-5.3,1.9c-2.6,0-3.1-1.9-5.3-1.9c-2.2,0-2.7,1.9-5.3,1.9s-3.1-1.9-5.3-1.9"/>
	
		<rect x="15.2" y="48.8" fill="none" stroke="#2CA9E1" stroke-linecap="round" stroke-linejoin="round" stroke-miterlimit="10" width="80.1" height="62.6"/>
	<path fill="none" stroke="#2CA9E1" stroke-linecap="round" stroke-linejoin="round" stroke-miterlimit="10" d="M92.2,42.2H18.4
		c-4.9,0-8.8,4-8.8,8.8V118c0,4.9,4,8.8,8.8,8.8h73.8c4.9,0,8.8-4,8.8-8.8V51C101.1,46.2,97.1,42.2,92.2,42.2z"/>
	<g>
		
			<rect x="20.1" y="53.2" fill="none" stroke="#2CA9E1" stroke-linecap="round" stroke-linejoin="round" stroke-miterlimit="10" width="28.4" height="9.9"/>
		<path fill="#2CA9E1" d="M27.8,61.1h-1.7l-2.7-4.6h0c0.1,0.8,0.1,1.4,0.1,1.8v2.9h-1.2V55H24l2.7,4.6h0c0-0.8-0.1-1.4-0.1-1.7V55
			h1.2V61.1z"/>
		<path fill="#2CA9E1" d="M32.9,61.1h-3.5V55h3.5v1.1h-2.2v1.3h2.1v1.1h-2.1v1.6h2.2V61.1z"/>
		<path fill="#2CA9E1" d="M40.2,61.1h-1.5l-0.8-3.2c0-0.1-0.1-0.4-0.2-0.7s-0.1-0.6-0.1-0.7c0,0.2-0.1,0.4-0.1,0.7
			c-0.1,0.3-0.1,0.6-0.2,0.7l-0.8,3.2H35L33.4,55h1.3l0.8,3.3c0.1,0.6,0.2,1.2,0.3,1.6c0-0.2,0.1-0.4,0.1-0.7
			c0.1-0.3,0.1-0.6,0.2-0.8l0.9-3.4h1.2l0.9,3.4c0,0.2,0.1,0.4,0.1,0.7c0.1,0.3,0.1,0.6,0.1,0.8c0-0.2,0.1-0.5,0.1-0.8
			c0.1-0.3,0.1-0.6,0.2-0.8l0.8-3.3h1.3L40.2,61.1z"/>
		<path fill="#2CA9E1" d="M46.1,59.4c0,0.6-0.2,1-0.6,1.3c-0.4,0.3-1,0.5-1.7,0.5c-0.7,0-1.2-0.1-1.7-0.4v-1.2
			c0.4,0.2,0.8,0.3,1.1,0.4c0.3,0.1,0.5,0.1,0.8,0.1c0.3,0,0.5-0.1,0.7-0.2c0.2-0.1,0.2-0.3,0.2-0.5c0-0.1,0-0.2-0.1-0.3
			c-0.1-0.1-0.2-0.2-0.3-0.3c-0.1-0.1-0.4-0.2-0.8-0.4c-0.4-0.2-0.7-0.3-0.8-0.5c-0.2-0.2-0.3-0.4-0.4-0.6c-0.1-0.2-0.2-0.5-0.2-0.8
			c0-0.5,0.2-1,0.6-1.3c0.4-0.3,0.9-0.5,1.5-0.5c0.3,0,0.6,0,0.9,0.1c0.3,0.1,0.6,0.2,0.9,0.3l-0.4,1c-0.3-0.1-0.6-0.2-0.8-0.3
			C44.6,56,44.4,56,44.2,56c-0.2,0-0.4,0.1-0.6,0.2c-0.1,0.1-0.2,0.3-0.2,0.4c0,0.1,0,0.2,0.1,0.3s0.1,0.2,0.3,0.2
			c0.1,0.1,0.4,0.2,0.8,0.4c0.6,0.3,1,0.5,1.2,0.8S46.1,59,46.1,59.4z"/>
	</g>
	
		<circle fill="none" stroke="#2CA9E1" stroke-linecap="round" stroke-linejoin="round" stroke-miterlimit="10" cx="91.8" cy="118" r="3.2"/>
	
		<circle fill="none" stroke="#2CA9E1" stroke-linecap="round" stroke-linejoin="round" stroke-miterlimit="10" cx="82.8" cy="118" r="1.7"/>
	
		<circle fill="none" stroke="#2CA9E1" stroke-linecap="round" stroke-linejoin="round" stroke-miterlimit="10" cx="76.8" cy="118" r="1.7"/>
	<polyline fill="none" stroke="#2CA9E1" stroke-linecap="round" stroke-linejoin="round" stroke-miterlimit="10" points="44.7,10.8 
		66.3,39 87.7,10.8 	"/>
	<path fill="#EEEEEE" stroke="#2CA9E1" stroke-linecap="round" stroke-linejoin="round" stroke-miterlimit="10" d="M66.2,36
		c-3.4,0-6.2,2.8-6.2,6.2h12.3C72.3,38.8,69.6,36,66.2,36z"/>
</g>
</svg>
