<?xml version="1.0" encoding="UTF-8"?>
<svg width="86px" height="86px" viewBox="0 0 86 86" version="1.1" xmlns="http://www.w3.org/2000/svg" xmlns:xlink="http://www.w3.org/1999/xlink">
    <!-- Generator: Sketch 40.3 (33839) - http://www.bohemiancoding.com/sketch -->
    <title>Group 5</title>
    <desc>Created with Sketch.</desc>
    <defs></defs>
    <g id="Page-1" stroke="none" stroke-width="1" fill="none" fill-rule="evenodd">
        <g id="[2016.10.17]-iPrepare_All-Desktop-(NoDisaster)" transform="translate(-655.000000, -973.000000)">
            <g id="draft">
                <g id="Group-5" transform="translate(655.000000, 973.000000)">
                    <circle id="XMLID_6415_" fill="#F2F2F2" cx="43.096" cy="42.759" r="42.336"></circle>
                    <g id="XMLID_1028_" transform="translate(14.000000, 18.000000)" fill="#003C2F">
                        <g id="XMLID_1039_">
                            <path d="M21.09,33.97 C20.874,33.97 20.658,33.915 20.465,33.803 L1.57,22.894 C1.183,22.671 0.945,22.258 0.945,21.811 C0.945,21.364 1.184,20.952 1.57,20.729 L36.479,0.574 C36.866,0.351 37.342,0.351 37.729,0.574 L56.624,11.483 C57.011,11.706 57.249,12.118 57.249,12.565 C57.249,13.012 57.011,13.424 56.624,13.648 L21.715,33.803 C21.521,33.915 21.306,33.97 21.09,33.97 L21.09,33.97 Z M4.694,21.811 L21.09,31.277 L53.499,12.566 L37.104,3.101 L4.694,21.811 L4.694,21.811 Z" id="XMLID_1042_"></path>
                        </g>
                        <g id="XMLID_1036_" transform="translate(0.000000, 19.000000)">
                            <path d="M21.09,22.793 C20.874,22.793 20.658,22.737 20.465,22.625 L1.57,11.717 C0.972,11.372 0.767,10.607 1.112,10.009 C1.457,9.411 2.223,9.207 2.82,9.552 L21.09,20.1 L55.374,0.307 C55.971,-0.038 56.736,0.166 57.082,0.765 C57.427,1.362 57.222,2.127 56.624,2.472 L21.715,22.626 C21.521,22.737 21.306,22.793 21.09,22.793 L21.09,22.793 Z" id="XMLID_1038_"></path>
                        </g>
                        <g id="XMLID_1033_" transform="translate(0.000000, 26.000000)">
                            <path d="M21.09,23.616 C20.874,23.616 20.658,23.56 20.465,23.449 L1.57,12.541 C0.972,12.196 0.767,11.431 1.112,10.833 C1.457,10.235 2.223,10.031 2.82,10.375 L21.09,20.923 L55.374,1.129 C55.971,0.784 56.736,0.988 57.082,1.587 C57.427,2.185 57.222,2.95 56.624,3.295 L21.715,23.449 C21.521,23.561 21.306,23.616 21.09,23.616 L21.09,23.616 Z" id="XMLID_1034_"></path>
                        </g>
                    </g>
                </g>
            </g>
        </g>
    </g>
</svg>