<?xml version="1.0" encoding="UTF-8"?>
<svg width="350px" height="239px" viewBox="0 0 350 239" version="1.1" xmlns="http://www.w3.org/2000/svg" xmlns:xlink="http://www.w3.org/1999/xlink">
    <!-- Generator: Sketch 40.3 (33839) - http://www.bohemiancoding.com/sketch -->
    <title>XMLID_2637_</title>
    <desc>Created with Sketch.</desc>
    <defs></defs>
    <g id="Page-1" stroke="none" stroke-width="1" fill="none" fill-rule="evenodd">
        <g id="[2016.10.17]-iPrepare_All-Desktop-(NoDisaster)" transform="translate(-8722.000000, -11965.000000)">
            <g id="draft">
                <g id="Group" transform="translate(8500.000000, 6149.000000)">
                    <g id="XMLID_2637_" transform="translate(222.000000, 5816.000000)">
                        <g id="XMLID_2841_" transform="translate(0.000000, 28.000000)">
                            <g id="XMLID_2844_" transform="translate(0.000000, 16.000000)">
                                <g id="XMLID_2848_" transform="translate(10.000000, 0.000000)">
                                    <rect id="XMLID_2882_" stroke="#FFFFFF" stroke-width="2" fill="#33A8DF" x="78.555" y="0.109" width="19.894" height="52.664"></rect>
                                    <rect id="XMLID_2881_" stroke="#FFFFFF" stroke-width="2" fill="#33A8DF" x="98.449" y="0.109" width="18.725" height="52.664"></rect>
                                    <rect id="XMLID_2880_" stroke="#FFFFFF" stroke-width="2" fill="#33A8DF" x="51.637" y="24.684" width="46.812" height="28.09"></rect>
                                    <rect id="XMLID_2878_" stroke="#FFFFFF" stroke-width="2" fill="#33A8DF" x="104.303" y="41.066" width="8.192" height="11.707"></rect>
                                    <g id="XMLID_2873_" transform="translate(55.000000, 36.000000)">
                                        <rect id="Rectangle-path" fill="#33A8DF" x="1.48" y="1.385" width="1.512" height="2.682"></rect>
                                        <polygon id="Shape" fill="#FFFFFF" points="3.992 0.385 0.48 0.385 0.48 5.066 3.992 5.066"></polygon>
                                    </g>
                                    <g id="XMLID_2869_" transform="translate(92.000000, 36.000000)">
                                        <rect id="Rectangle-path" fill="#33A8DF" x="1.016" y="1.385" width="1.507" height="2.682"></rect>
                                        <polygon id="Shape" fill="#FFFFFF" points="3.523 0.385 0.017 0.385 0.017 5.066 3.523 5.066"></polygon>
                                    </g>
                                    <g id="XMLID_2865_" transform="translate(106.000000, 18.000000)">
                                        <rect id="Rectangle-path" fill="#33A8DF" x="1.643" y="1.83" width="1.513" height="2.684"></rect>
                                        <polygon id="Shape" fill="#FFFFFF" points="4.154 0.83 0.642 0.83 0.642 5.514 4.154 5.514"></polygon>
                                    </g>
                                    <path d="M29.987,14.149 L74.872,14.149 C87.798,14.149 98.449,20.16 98.449,24.683 L51.053,24.683" id="XMLID_2864_" stroke="#FFFFFF" stroke-width="2" fill="#33A8DF"></path>
                                    <path d="M4.864,24.684 C4.864,20.161 15.345,14.15 28.273,14.15 C41.197,14.15 51.677,20.161 51.677,24.684" id="XMLID_2863_" stroke="#FFFFFF" stroke-width="2" fill="#33A8DF"></path>
                                    <rect id="XMLID_2862_" stroke="#FFFFFF" stroke-width="2" fill="#33A8DF" x="4.833" y="24.684" width="46.805" height="28.09"></rect>
                                    <g id="XMLID_2859_" transform="translate(62.000000, 36.000000)" stroke="#FFFFFF" stroke-width="2" fill="#33A8DF">
                                        <rect id="XMLID_2861_" x="0.832" y="0.385" width="25.744" height="16.389"></rect>
                                        <path d="M0.832,14.172 L26.576,14.172" id="XMLID_2860_"></path>
                                    </g>
                                    <g id="XMLID_2849_" transform="translate(0.000000, 34.000000)" stroke="#FFFFFF" stroke-width="2" fill="#33A8DF">
                                        <rect id="XMLID_2857_" x="15.917" y="0.887" width="24.734" height="17.863"></rect>
                                        <rect id="XMLID_2856_" x="4.926" y="0.887" width="15.112" height="17.863"></rect>
                                        <g id="XMLID_2854_" transform="translate(0.000000, 5.000000)">
                                            <path d="M16.564,3.502 C16.564,1.768 15.16,0.356 13.416,0.356 C12.931,0.356 12.475,0.479 12.067,0.678 L12.032,0.668 L3.602,4.018 L3.602,4.018 C2.213,4.641 0.381,5.653 0.184,8.473 C-0.014,11.307 2.512,13.75 5.352,13.75 C6.62,13.75 7.786,13.293 8.686,12.525 L8.691,12.529 L8.704,12.519 C8.882,12.371 9.04,12.208 9.191,12.04 L15.375,5.962 L15.371,5.954 C16.092,5.379 16.564,4.496 16.564,3.502 L16.564,3.502 Z" id="XMLID_2855_"></path>
                                        </g>
                                        <rect id="XMLID_2853_" x="24.621" y="7.764" width="12.829" height="10.986"></rect>
                                        <path d="M24.62,15.701 L37.449,15.701" id="XMLID_2850_"></path>
                                    </g>
                                </g>
                                <path d="M0.203,47.096 C3.715,47.096 4.813,50.207 9.023,50.207 C13.238,50.207 14.207,47.096 17.733,47.096 C21.349,47.096 22.179,50.207 26.391,50.207 C30.605,50.207 31.495,47.096 35.025,47.096 C38.642,47.096 39.434,50.207 43.647,50.207 C47.857,50.207 48.728,47.096 52.261,47.096 C55.872,47.096 56.651,50.207 60.869,50.207 C65.084,50.207 65.944,47.096 69.473,47.096 C73.09,47.096 73.87,50.207 78.083,50.207 C82.291,50.207 83.158,47.096 86.685,47.096 C90.303,47.096 91.077,50.207 95.291,50.207 C99.505,50.207 100.366,47.096 103.899,47.096 C107.516,47.096 108.298,50.207 112.505,50.207 C116.718,50.207 117.582,47.096 121.112,47.096 C124.723,47.096 125.484,50.207 129.697,50.207 C133.914,50.207 134.778,47.096 138.29,47.096 L138.29,100.432 L0.2,100.432 L0.2,47.096 L0.203,47.096 Z" id="XMLID_2847_" fill="#29A9E0"></path>
                                <path d="M138.324,47.17 C134.795,47.17 133.934,50.277 129.718,50.277 C125.506,50.277 124.727,47.17 121.115,47.17 C117.585,47.17 116.72,50.277 112.508,50.277 C108.301,50.277 107.519,47.17 103.902,47.17 C100.369,47.17 99.507,50.277 95.294,50.277 C91.079,50.277 90.306,47.17 86.688,47.17 C83.162,47.17 82.294,50.277 78.086,50.277 C73.873,50.277 73.093,47.17 69.476,47.17 C65.947,47.17 65.086,50.277 60.872,50.277 C56.658,50.277 55.881,47.17 52.268,47.17 C48.734,47.17 47.873,50.277 43.662,50.277 C39.451,50.277 38.667,47.17 35.058,47.17 C31.529,47.17 30.662,50.277 26.447,50.277 C22.235,50.277 21.453,47.17 17.845,47.17 C14.312,47.17 13.45,50.277 9.237,50.277 C5.025,50.277 4.244,47.17 0.631,47.17" id="XMLID_2846_" stroke="#FFFFFF" stroke-width="2"></path>
                                <path d="M138.324,56.09 C134.795,56.09 133.934,59.197 129.718,59.197 C125.506,59.197 124.727,56.09 121.115,56.09 C117.585,56.09 116.72,59.197 112.508,59.197 C108.301,59.197 107.519,56.09 103.902,56.09 C100.369,56.09 99.507,59.197 95.294,59.197 C91.079,59.197 90.306,56.09 86.688,56.09 C83.162,56.09 82.294,59.197 78.086,59.197 C73.873,59.197 73.093,56.09 69.476,56.09 C65.947,56.09 65.086,59.197 60.872,59.197 C56.658,59.197 55.881,56.09 52.268,56.09 C48.734,56.09 47.873,59.197 43.662,59.197 C39.451,59.197 38.667,56.09 35.058,56.09 C31.529,56.09 30.662,59.197 26.447,59.197 C22.235,59.197 21.453,56.09 17.845,56.09 C14.312,56.09 13.45,59.197 9.237,59.197 C5.025,59.197 4.244,56.09 0.631,56.09" id="XMLID_2845_" stroke="#FFFFFF" stroke-width="2"></path>
                            </g>
                            <rect id="XMLID_2843_" stroke="#FFFFFF" stroke-width="2" fill="#33A8DF" x="98.506" y="5.193" width="4.926" height="10.916"></rect>
                            <rect id="XMLID_2842_" stroke="#FFFFFF" stroke-width="2" fill="#33A8DF" x="88.557" y="0.711" width="4.923" height="15.398"></rect>
                        </g>
                        <g id="XMLID_2788_" transform="translate(124.000000, 0.000000)">
                            <polygon id="XMLID_2840_" stroke="#FFFFFF" stroke-width="2" fill="#33A8DF" points="214.315 95.086 162.318 95.086 162.318 109.037 224.123 109.037"></polygon>
                            <rect id="XMLID_2839_" stroke="#FFFFFF" stroke-width="2" fill="#33A8DF" x="162.318" y="109.037" width="61.805" height="54.242"></rect>
                            <rect id="XMLID_2838_" stroke="#FFFFFF" stroke-width="2" fill="#33A8DF" x="28.189" y="64.236" width="91.518" height="99.043"></rect>
                            <g id="XMLID_2816_" transform="translate(0.000000, 112.000000)">
                                <polyline id="XMLID_2837_" stroke="#FFFFFF" stroke-width="2" fill="#33A8DF" points="22.959 16.985 22.959 3.242 28.231 0.822 28.231 16.985"></polyline>
                                <rect id="XMLID_2836_" stroke="#FFFFFF" stroke-width="2" fill="#33A8DF" x="30.385" y="16.985" width="47.487" height="34.294"></rect>
                                <rect id="XMLID_2835_" stroke="#FFFFFF" stroke-width="2" fill="#33A8DF" x="9.283" y="16.985" width="29.018" height="34.294"></rect>
                                <g id="XMLID_2821_" transform="translate(0.000000, 25.000000)">
                                    <path d="M31.627,6.602 C31.627,3.266 28.926,0.563 25.592,0.563 C24.66,0.563 23.784,0.795 22.994,1.174 L22.928,1.16 L6.752,7.594 L6.752,7.594 C4.085,8.789 0.564,10.723 0.178,16.141 C-0.202,21.582 4.652,26.28 10.11,26.28 C12.545,26.28 14.785,25.393 16.505,23.928 L16.519,23.928 L16.544,23.907 C16.869,23.626 17.187,23.319 17.471,22.993 L29.351,11.321 L29.338,11.303 C30.72,10.195 31.627,8.512 31.627,6.602 L31.627,6.602 Z" id="XMLID_2834_" stroke="#FFFFFF" stroke-width="2" fill="#33A8DF"></path>
                                    <g id="XMLID_2828_" transform="translate(23.000000, 4.000000)">
                                        <path d="M2.592,3.789 C1.94,3.789 1.408,3.257 1.408,2.601 C1.408,1.945 1.939,1.412 2.592,1.412 C3.249,1.412 3.784,1.945 3.784,2.601 C3.784,3.257 3.249,3.789 2.592,3.789 L2.592,3.789 Z" id="Shape" fill="#33A8DF"></path>
                                        <path d="M2.592,2.412 C2.696,2.412 2.784,2.5 2.784,2.601 C2.784,2.702 2.695,2.789 2.592,2.789 C2.489,2.789 2.408,2.707 2.408,2.601 C2.408,2.495 2.489,2.412 2.592,2.412 L2.592,2.412 Z M2.592,0.412 C1.382,0.412 0.408,1.392 0.408,2.601 C0.408,3.808 1.382,4.789 2.592,4.789 C3.8,4.789 4.784,3.809 4.784,2.601 C4.784,1.393 3.8,0.412 2.592,0.412 L2.592,0.412 L2.592,0.412 Z" id="Shape" fill="#FFFFFF"></path>
                                    </g>
                                    <g id="XMLID_2822_" transform="translate(4.000000, 10.000000)">
                                        <path d="M6.136,11.127 C3.528,11.127 1.406,9.007 1.406,6.401 C1.406,3.797 3.528,1.679 6.136,1.679 C8.74,1.679 10.862,3.797 10.862,6.401 C10.861,9.007 8.74,11.127 6.136,11.127 L6.136,11.127 Z" id="Shape" fill="#33A8DF"></path>
                                        <path d="M6.136,2.68 C8.191,2.68 9.862,4.35 9.862,6.402 C9.862,8.456 8.191,10.128 6.136,10.128 C4.079,10.128 2.406,8.456 2.406,6.402 C2.405,4.35 4.079,2.68 6.136,2.68 L6.136,2.68 Z M6.136,0.68 C2.972,0.68 0.406,3.241 0.406,6.402 C0.406,9.566 2.972,12.128 6.136,12.128 C9.295,12.128 11.862,9.566 11.862,6.402 C11.861,3.24 9.295,0.68 6.136,0.68 L6.136,0.68 L6.136,0.68 Z" id="Shape" fill="#FFFFFF"></path>
                                    </g>
                                </g>
                                <rect id="XMLID_2820_" stroke="#FFFFFF" stroke-width="2" fill="#33A8DF" x="47.094" y="30.172" width="24.627" height="21.107"></rect>
                                <path d="M47.094,36.035 L71.721,36.035" id="XMLID_2819_" stroke="#FFFFFF" stroke-width="2" fill="#33A8DF"></path>
                                <path d="M47.094,40.557 L71.721,40.557" id="XMLID_2818_" stroke="#FFFFFF" stroke-width="2" fill="#33A8DF"></path>
                                <path d="M47.094,45.418 L71.721,45.418" id="XMLID_2817_" stroke="#FFFFFF" stroke-width="2" fill="#33A8DF"></path>
                            </g>
                            <rect id="XMLID_2815_" stroke="#FFFFFF" stroke-width="2" fill="#33A8DF" x="77.873" y="64.236" width="91.521" height="99.043"></rect>
                            <rect id="XMLID_2814_" stroke="#FFFFFF" stroke-width="2" fill="#33A8DF" x="89.811" y="134.939" width="6.099" height="8.126"></rect>
                            <rect id="XMLID_2813_" stroke="#FFFFFF" stroke-width="2" fill="#33A8DF" x="153.268" y="134.939" width="6.095" height="8.126"></rect>
                            <g id="XMLID_2806_" transform="translate(102.000000, 134.000000)" stroke="#FFFFFF" stroke-width="2" fill="#33A8DF">
                                <rect id="XMLID_2812_" x="0.574" y="0.82" width="44.719" height="28.459"></rect>
                                <path d="M0.574,5.33 L45.293,5.33" id="XMLID_2811_"></path>
                                <path d="M0.574,10.193 L45.293,10.193" id="XMLID_2810_"></path>
                                <path d="M0.574,15.055 L45.293,15.055" id="XMLID_2809_"></path>
                                <path d="M0.574,19.91 L45.293,19.91" id="XMLID_2808_"></path>
                                <path d="M0.574,24.771 L45.293,24.771" id="XMLID_2807_"></path>
                            </g>
                            <g id="XMLID_2799_" transform="translate(182.000000, 134.000000)" stroke="#FFFFFF" stroke-width="2" fill="#33A8DF">
                                <rect id="XMLID_2805_" x="0.779" y="0.82" width="28.416" height="28.459"></rect>
                                <path d="M0.779,5.33 L29.195,5.33" id="XMLID_2804_"></path>
                                <path d="M0.779,10.193 L29.195,10.193" id="XMLID_2803_"></path>
                                <path d="M0.779,15.055 L29.195,15.055" id="XMLID_2802_"></path>
                                <path d="M0.779,19.91 L29.195,19.91" id="XMLID_2801_"></path>
                                <path d="M0.779,24.771 L29.195,24.771" id="XMLID_2800_"></path>
                            </g>
                            <rect id="XMLID_2798_" stroke="#FFFFFF" stroke-width="2" fill="#33A8DF" x="71.967" y="38.07" width="11.81" height="26.166"></rect>
                            <rect id="XMLID_2797_" stroke="#FFFFFF" stroke-width="2" fill="#33A8DF" x="53.238" y="27.33" width="11.812" height="36.906"></rect>
                            <rect id="XMLID_2796_" stroke="#FFFFFF" stroke-width="2" fill="#33A8DF" x="50.187" y="103.404" width="6.102" height="8.135"></rect>
                            <rect id="XMLID_2795_" stroke="#FFFFFF" stroke-width="2" fill="#33A8DF" x="50.187" y="82.939" width="6.102" height="8.133"></rect>
                            <g id="XMLID_2789_" transform="translate(79.000000, 0.000000)">
                                <path d="M8.715,29.979 C4.62,29.979 1.288,26.648 1.288,22.553 C1.288,19.127 3.611,16.225 6.853,15.394 C6.692,14.621 6.613,13.894 6.613,13.194 C6.613,6.565 12.006,1.173 18.634,1.173 C25.259,1.173 30.648,6.566 30.648,13.194 C30.648,19.817 25.259,25.206 18.634,25.206 C17.693,25.206 16.747,25.081 15.769,24.827 C14.808,27.869 11.999,29.979 8.715,29.979 L8.715,29.979 Z" id="Shape" fill="#33A8DF"></path>
                                <path d="M18.634,2.172 C24.717,2.172 29.648,7.108 29.648,13.193 C29.648,19.276 24.717,24.205 18.634,24.205 C17.368,24.205 16.172,23.951 15.041,23.56 C14.562,26.626 11.925,28.978 8.715,28.978 C5.166,28.978 2.288,26.103 2.288,22.552 C2.288,19.222 4.832,16.515 8.081,16.189 C7.807,15.233 7.613,14.235 7.613,13.193 C7.613,7.107 12.547,2.172 18.634,2.172 L18.634,2.172 Z M18.634,0.172 C11.454,0.172 5.613,6.014 5.613,13.193 C5.613,13.685 5.647,14.186 5.719,14.704 C2.509,15.912 0.287,18.982 0.287,22.553 C0.287,27.199 4.067,30.979 8.714,30.979 C12.123,30.979 15.081,28.977 16.396,25.993 C17.15,26.136 17.892,26.206 18.633,26.206 C25.81,26.206 31.647,20.369 31.647,13.194 C31.647,6.014 25.811,0.172 18.634,0.172 L18.634,0.172 L18.634,0.172 Z" id="Shape" fill="#FFFFFF"></path>
                            </g>
                        </g>
                        <g id="XMLID_2738_" transform="translate(1.000000, 123.000000)" stroke-width="2" stroke="#FFFFFF">
                            <g id="XMLID_2741_" transform="translate(0.000000, 5.000000)">
                                <g id="XMLID_2745_">
                                    <rect id="XMLID_2787_" fill="#33A8DF" x="129.334" y="0.074" width="41.468" height="59.238"></rect>
                                    <g id="XMLID_2781_" transform="translate(128.000000, 41.000000)" fill="#33A8DF">
                                        <rect id="XMLID_2786_" x="19.818" y="0.928" width="19.312" height="16.572"></rect>
                                        <rect id="XMLID_2785_" x="0.513" y="0.928" width="19.307" height="16.572"></rect>
                                        <g id="XMLID_2782_" transform="translate(4.000000, 5.000000)">
                                            <path d="M2.305,4.213 C2.305,6.348 4.033,8.08 6.168,8.08 C8.299,8.08 10.032,6.348 10.032,4.213 C10.032,2.076 8.299,0.35 6.168,0.35 C4.032,0.35 2.305,2.076 2.305,4.213 L2.305,4.213 Z" id="XMLID_2784_"></path>
                                            <rect id="XMLID_2783_" x="0.258" y="2.582" width="11.82" height="3.266"></rect>
                                        </g>
                                    </g>
                                    <g id="XMLID_2775_" transform="translate(124.000000, 25.000000)" fill="#33A8DF">
                                        <rect id="XMLID_2780_" x="20.074" y="0.229" width="19.308" height="16.572"></rect>
                                        <rect id="XMLID_2779_" x="0.773" y="0.229" width="19.301" height="16.572"></rect>
                                        <g id="XMLID_2776_" transform="translate(4.000000, 4.000000)">
                                            <path d="M2.562,4.514 C2.562,6.65 4.289,8.381 6.426,8.381 C8.554,8.381 10.291,6.65 10.291,4.514 C10.291,2.377 8.554,0.652 6.426,0.652 C4.288,0.651 2.562,2.377 2.562,4.514 L2.562,4.514 Z" id="XMLID_2778_"></path>
                                            <rect id="XMLID_2777_" x="0.514" y="2.879" width="11.821" height="3.27"></rect>
                                        </g>
                                    </g>
                                    <path d="M138.305,70.938 C138.305,77.477 143.594,82.772 150.134,82.772 C156.674,82.772 161.964,77.477 161.964,70.938 C161.964,64.403 156.674,59.108 150.134,59.108 C143.594,59.108 138.305,64.402 138.305,70.938 L138.305,70.938 Z" id="XMLID_2774_" fill="#33A8DF"></path>
                                    <path d="M110.151,70.938 C110.151,77.477 115.448,82.772 121.982,82.772 C128.521,82.772 133.821,77.477 133.821,70.938 C133.821,64.403 128.521,59.108 121.982,59.108 C115.448,59.107 110.151,64.402 110.151,70.938 L110.151,70.938 Z" id="XMLID_2773_" fill="#33A8DF"></path>
                                    <path d="M1.059,44.455 C2.342,41.951 7.053,33.029 10,27.935 C12.931,22.843 14.461,20.808 18.959,20.808 L37.335,20.808 L37.335,59.312 L164.873,59.312 L164.873,71.16 L37.732,71.16 L13.586,71.16 L0.472,71.16 C0.473,71.16 0.271,45.985 1.059,44.455 L1.059,44.455 Z" id="XMLID_2772_" fill="#33A8DF"></path>
                                    <rect id="XMLID_2771_" fill="#33A8DF" x="126.373" y="65.475" width="47.391" height="5.686"></rect>
                                    <g id="XMLID_2768_" transform="translate(5.000000, 59.000000)" fill="#33A8DF">
                                        <path d="M0.062,12.16 C0.062,18.695 5.354,23.99 11.891,23.99 C18.431,23.99 23.732,18.695 23.732,12.16 C23.732,5.627 18.431,0.33 11.891,0.33 C5.354,0.33 0.062,5.627 0.062,12.16 L0.062,12.16 Z" id="XMLID_2770_"></path>
                                        <path d="M6.204,12.16 C6.204,15.303 8.75,17.848 11.891,17.848 C15.037,17.848 17.582,15.303 17.582,12.16 C17.582,9.019 15.036,6.474 11.891,6.474 C8.75,6.475 6.204,9.02 6.204,12.16 L6.204,12.16 Z" id="XMLID_2769_"></path>
                                    </g>
                                    <g id="XMLID_2765_" transform="translate(95.000000, 59.000000)" fill="#33A8DF">
                                        <path d="M0.594,12.16 C0.594,18.695 5.885,23.99 12.426,23.99 C18.963,23.99 24.258,18.695 24.258,12.16 C24.258,5.627 18.963,0.33 12.426,0.33 C5.885,0.33 0.594,5.627 0.594,12.16 L0.594,12.16 Z" id="XMLID_2767_"></path>
                                        <path d="M6.735,12.16 C6.735,15.303 9.281,17.848 12.425,17.848 C15.566,17.848 18.107,15.303 18.107,12.16 C18.107,9.019 15.566,6.474 12.425,6.474 C9.281,6.475 6.735,9.02 6.735,12.16 L6.735,12.16 Z" id="XMLID_2766_"></path>
                                    </g>
                                    <g id="XMLID_2762_" transform="translate(68.000000, 59.000000)" fill="#33A8DF">
                                        <path d="M0.021,12.16 C0.021,18.695 5.312,23.99 11.852,23.99 C18.381,23.99 23.686,18.695 23.686,12.16 C23.686,5.627 18.381,0.33 11.852,0.33 C5.312,0.33 0.021,5.627 0.021,12.16 L0.021,12.16 Z" id="XMLID_2764_"></path>
                                        <path d="M6.166,12.16 C6.166,15.303 8.715,17.848 11.853,17.848 C14.999,17.848 17.535,15.303 17.535,12.16 C17.535,9.019 14.999,6.474 11.853,6.474 C8.715,6.475 6.166,9.02 6.166,12.16 L6.166,12.16 Z" id="XMLID_2763_"></path>
                                    </g>
                                    <polyline id="XMLID_2761_" points="31.411 22.289 31.411 59.312 38.815 59.312"></polyline>
                                    <path d="M25.483,41.541 L8.304,41.541 C8.304,41.541 12.42,32.564 13.252,31.065 C14.073,29.567 15.353,26.733 18.349,26.733 L25.483,26.733 L25.483,41.541 L25.483,41.541 Z" id="XMLID_2760_" fill="#33A8DF"></path>
                                    <g id="XMLID_2754_" transform="translate(104.000000, 41.000000)" fill="#33A8DF">
                                        <rect id="XMLID_2759_" x="19.461" y="0.928" width="19.309" height="16.572"></rect>
                                        <rect id="XMLID_2758_" x="0.158" y="0.928" width="19.303" height="16.572"></rect>
                                        <g id="XMLID_2755_" transform="translate(3.000000, 5.000000)">
                                            <circle id="XMLID_2757_" cx="6.811" cy="4.213" r="3.865"></circle>
                                            <rect id="XMLID_2756_" x="0.902" y="2.582" width="11.82" height="3.266"></rect>
                                        </g>
                                    </g>
                                    <g id="XMLID_2747_" transform="translate(100.000000, 25.000000)" fill="#33A8DF">
                                        <rect id="XMLID_2753_" x="19.717" y="0.229" width="19.307" height="16.572"></rect>
                                        <rect id="XMLID_2752_" x="0.414" y="0.229" width="19.303" height="16.572"></rect>
                                        <g id="XMLID_2748_" transform="translate(4.000000, 4.000000)">
                                            <path d="M2.201,4.514 C2.201,6.65 3.93,8.381 6.064,8.381 C8.195,8.381 9.927,6.65 9.927,4.514 C9.927,2.377 8.195,0.652 6.064,0.652 C3.931,0.651 2.201,2.377 2.201,4.514 L2.201,4.514 Z" id="XMLID_2750_"></path>
                                            <rect id="XMLID_2749_" x="0.158" y="2.879" width="11.817" height="3.27"></rect>
                                        </g>
                                    </g>
                                    <rect id="XMLID_2746_" fill="#33A8DF" x="37.334" y="0.074" width="91.999" height="59.238"></rect>
                                </g>
                                <g id="XMLID_2742_" transform="translate(53.000000, 10.000000)" fill="#33A8DF">
                                    <path d="M10.982,20.094 C10.982,30.809 19.667,39.496 30.381,39.496 C41.102,39.496 49.786,30.808 49.786,20.094 C49.786,9.375 41.101,0.688 30.381,0.688 C19.667,0.688 10.982,9.375 10.982,20.094 L10.982,20.094 Z" id="XMLID_2744_"></path>
                                    <rect id="XMLID_2743_" x="0.709" y="11.889" width="59.348" height="16.4"></rect>
                                </g>
                            </g>
                            <polygon id="XMLID_2740_" fill="#33A8DF" points="129.334 5.074 108.877 0.826 108.877 62.062 129.334 64.33"></polygon>
                            <polygon id="XMLID_2739_" fill="#33A8DF" points="170.802 5.074 191.258 0.826 191.258 62.062 170.802 64.33"></polygon>
                        </g>
                        <g id="XMLID_2639_" transform="translate(193.000000, 173.000000)" stroke-width="2" stroke="#FFFFFF" fill="#33A8DF">
                            <g id="XMLID_2720_">
                                <path d="M41.41,32.441 C39.859,30.884 37.336,30.884 35.775,32.441 L13.548,54.668 L19.184,60.303 L41.41,38.074 C42.966,36.52 42.966,33.996 41.41,32.441 L41.41,32.441 Z" id="XMLID_2736_"></path>
                                <path d="M19.185,60.303 L10.912,52.031" id="XMLID_2735_"></path>
                                <path d="M38.594,28.912 C36.393,28.912 34.608,30.695 34.608,32.898 L34.608,64.332 L42.575,64.332 L42.575,32.898 C42.574,30.695 40.795,28.912 38.594,28.912 L38.594,28.912 Z" id="XMLID_2734_"></path>
                                <path d="M42.574,64.332 L30.873,64.332" id="XMLID_2733_"></path>
                                <path d="M42.693,7.844 C42.693,11.703 39.561,14.836 35.7,14.836 C31.834,14.836 28.704,11.703 28.704,7.844 C28.704,3.983 31.834,0.848 35.7,0.848 C39.562,0.848 42.693,3.982 42.693,7.844 L42.693,7.844 Z" id="XMLID_2732_"></path>
                                <path d="M22.04,7.844 L42.693,7.844" id="XMLID_2731_"></path>
                                <path d="M35.7,14.836 C31.834,14.836 28.704,17.969 28.704,21.832 L28.704,39.098 L42.693,39.098 L42.693,21.832 C42.693,17.969 39.562,14.836 35.7,14.836 L35.7,14.836 Z" id="XMLID_2730_"></path>
                                <g id="XMLID_2722_" transform="translate(0.000000, 20.000000)">
                                    <rect id="XMLID_2729_" x="15.854" y="0.229" width="15.692" height="13.479"></rect>
                                    <rect id="XMLID_2728_" x="0.158" y="0.229" width="15.694" height="13.479"></rect>
                                    <g id="XMLID_2723_" transform="translate(3.000000, 3.000000)">
                                        <path d="M1.861,3.969 C1.861,5.705 3.268,7.112 5.003,7.112 C6.735,7.112 8.149,5.706 8.149,3.969 C8.149,2.235 6.736,0.828 5.003,0.828 C3.269,0.828 1.861,2.234 1.861,3.969 L1.861,3.969 Z" id="XMLID_2727_"></path>
                                        <rect id="XMLID_2725_" x="0.205" y="2.643" width="9.603" height="2.654"></rect>
                                    </g>
                                </g>
                                <path d="M40.961,21.279 C40.035,20.355 38.536,20.355 37.613,21.279 L24.403,34.492 L27.749,37.842 L40.961,24.627 C41.885,23.705 41.885,22.205 40.961,21.279 L40.961,21.279 Z" id="XMLID_2721_"></path>
                            </g>
                            <g id="XMLID_2640_" transform="translate(55.000000, 0.000000)">
                                <path d="M45.617,32.441 C44.067,30.884 41.544,30.884 39.986,32.441 L17.756,54.668 L23.392,60.303 L45.618,38.074 C47.176,36.52 47.176,33.996 45.617,32.441 L45.617,32.441 Z" id="XMLID_2718_"></path>
                                <path d="M23.392,60.303 L15.12,52.031" id="XMLID_2717_"></path>
                                <path d="M42.802,28.912 C40.603,28.912 38.82,30.695 38.816,32.898 L38.82,64.332 L46.788,64.332 L46.788,32.898 C46.787,30.695 44.998,28.912 42.802,28.912 L42.802,28.912 Z" id="XMLID_2716_"></path>
                                <path d="M46.787,64.332 L35.088,64.332" id="XMLID_2715_"></path>
                                <path d="M46.905,7.844 C46.905,11.703 43.768,14.836 39.908,14.836 C36.043,14.836 32.912,11.703 32.912,7.844 C32.912,3.983 36.043,0.848 39.908,0.848 C43.769,0.848 46.905,3.982 46.905,7.844 L46.905,7.844 Z" id="XMLID_2714_"></path>
                                <path d="M26.246,7.844 L46.905,7.844" id="XMLID_2711_"></path>
                                <path d="M39.908,14.836 C36.043,14.836 32.912,17.969 32.912,21.832 L32.912,39.098 L46.905,39.098 L46.905,21.832 C46.905,17.969 43.769,14.836 39.908,14.836 L39.908,14.836 Z" id="XMLID_2708_"></path>
                                <g id="XMLID_2697_" transform="translate(4.000000, 20.000000)">
                                    <rect id="XMLID_2705_" x="16.053" y="0.229" width="15.702" height="13.479"></rect>
                                    <rect id="XMLID_2701_" x="0.366" y="0.229" width="15.688" height="13.479"></rect>
                                    <g id="XMLID_2698_" transform="translate(3.000000, 3.000000)">
                                        <circle id="XMLID_2700_" cx="5.215" cy="3.969" r="3.144"></circle>
                                        <rect id="XMLID_2699_" x="0.408" y="2.643" width="9.61" height="2.654"></rect>
                                    </g>
                                </g>
                                <g id="XMLID_2642_" transform="translate(0.000000, 6.000000)">
                                    <rect id="XMLID_2696_" x="15.762" y="0.76" width="15.697" height="13.469"></rect>
                                    <rect id="XMLID_2695_" x="0.07" y="0.76" width="15.69" height="13.469"></rect>
                                    <g id="XMLID_2690_" transform="translate(3.000000, 4.000000)">
                                        <path d="M1.775,3.496 C1.775,5.232 3.182,6.639 4.918,6.639 C6.647,6.639 8.059,5.233 8.059,3.496 C8.059,1.759 6.648,0.353 4.918,0.353 C3.183,0.354 1.775,1.76 1.775,3.496 L1.775,3.496 Z" id="XMLID_2694_"></path>
                                        <rect id="XMLID_2693_" x="0.119" y="2.168" width="9.603" height="2.654"></rect>
                                    </g>
                                </g>
                                <path d="M45.165,21.279 C44.246,20.355 42.74,20.355 41.819,21.279 L28.611,34.492 L31.955,37.842 L45.165,24.627 C46.092,23.705 46.092,22.205 45.165,21.279 L45.165,21.279 Z" id="XMLID_2641_"></path>
                            </g>
                        </g>
                        <path d="M146.959,116.039 L4.709,116.039" id="XMLID_2638_" stroke="#FFFFFF" stroke-width="2" fill="#33A8DF"></path>
                    </g>
                </g>
            </g>
        </g>
    </g>
</svg>