<?xml version="1.0" encoding="UTF-8"?>
<svg width="384px" height="297px" viewBox="0 0 384 297" version="1.1" xmlns="http://www.w3.org/2000/svg" xmlns:xlink="http://www.w3.org/1999/xlink">
    <!-- Generator: Sketch 40.3 (33839) - http://www.bohemiancoding.com/sketch -->
    <title>XMLID_4426_</title>
    <desc>Created with Sketch.</desc>
    <defs></defs>
    <g id="Page-1" stroke="none" stroke-width="1" fill="none" fill-rule="evenodd">
        <g id="[2016.10.17]-iPrepare_All-Desktop-(NoDisaster)" transform="translate(-8703.000000, -7424.000000)">
            <g id="draft">
                <g id="Group" transform="translate(8500.000000, 6149.000000)">
                    <g id="XMLID_4426_" transform="translate(205.000000, 1276.000000)">
                        <g id="XMLID_4428_">
                            <path d="M211.019,33.182 C211.019,44.467 201.851,53.631 190.561,53.631 C179.261,53.631 170.103,44.467 170.103,33.182 C170.103,21.881 179.261,12.716 190.561,12.716 C201.851,12.716 211.019,21.881 211.019,33.182 L211.019,33.182 Z" id="XMLID_4457_" stroke="#FFFFFF" stroke-width="2" fill="#35A6DE"></path>
                            <path d="M228.735,130.456 L228.735,79.943 C228.735,68.646 219.567,59.486 208.282,59.486 L172.819,59.486 C161.511,59.486 152.359,68.646 152.359,79.943 L152.359,130.456" id="XMLID_4456_" stroke="#FFFFFF" stroke-width="2" fill="#35A6DE"></path>
                            <path d="M332.015,223.128 L332.015,127.101 C332.015,115.803 322.846,106.645 311.563,106.645 L300.542,106.645 C289.236,106.645 280.077,115.803 280.077,127.101 L280.077,164.352" id="XMLID_4455_" stroke="#FFFFFF" stroke-width="2" fill="#35A6DE"></path>
                            <path d="M368.173,264.575 L368.173,168.547 C368.173,157.25 359.002,148.091 347.72,148.091 L336.699,148.091 C325.392,148.091 316.235,157.25 316.235,168.547 L316.235,205.799" id="XMLID_4454_" stroke="#FFFFFF" stroke-width="2" fill="#35A6DE"></path>
                            <path d="M170.103,33.182 C170.103,33.182 188.411,33.518 197.577,22.253 C197.577,22.253 201.235,33.327 210.955,34.663" id="XMLID_4453_" stroke="#FFFFFF" stroke-width="2" fill="#35A6DE"></path>
                            <path d="M325.238,85.749 C325.238,97.034 316.07,106.2 304.777,106.2 C293.477,106.2 284.321,97.034 284.321,85.749 C284.321,74.448 293.477,65.284 304.777,65.284 C316.07,65.284 325.238,74.448 325.238,85.749 L325.238,85.749 Z" id="XMLID_4452_" stroke="#FFFFFF" stroke-width="2" fill="#35A6DE"></path>
                            <polygon id="XMLID_4451_" stroke="#FFFFFF" stroke-width="2" fill="#35A6DE" points="177.337 59.485 190.545 105.689 203.76 59.485"></polygon>
                            <path d="M190.545,69.004 C192.515,69.004 194.115,67.405 194.115,65.437 L194.115,59.487 L186.977,59.487 L186.977,65.437 C186.978,67.405 188.576,69.004 190.545,69.004 L190.545,69.004 Z" id="XMLID_4450_" fill="#FFFFFF"></path>
                            <path d="M190.542,105.689 L194.299,92.55 L194.299,74.997 C194.299,72.914 192.614,71.228 190.528,71.228 C188.453,71.228 186.765,72.914 186.765,74.997 L186.765,92.46 L190.542,105.689 L190.542,105.689 Z" id="XMLID_4449_" fill="#FFFFFF"></path>
                            <path d="M287.15,75.398 C287.15,75.398 294.702,83.675 304.777,85.74 L304.777,110.333 L317.151,110.333 C317.151,110.333 325.238,98.496 325.238,86.277" id="XMLID_4448_" stroke="#FFFFFF" stroke-width="2" fill="#35A6DE"></path>
                            <path d="M47.142,223.128 L47.142,127.101 C47.142,115.803 56.311,106.645 67.594,106.645 L78.617,106.645 C89.925,106.645 99.076,115.803 99.076,127.101 L99.076,164.352" id="XMLID_4447_" stroke="#FFFFFF" stroke-width="2" fill="#35A6DE"></path>
                            <path d="M9.468,264.575 L9.468,168.547 C9.468,157.25 18.636,148.091 29.919,148.091 L40.94,148.091 C52.249,148.091 61.403,157.25 61.403,168.547 L61.403,205.799" id="XMLID_4446_" stroke="#FFFFFF" stroke-width="2" fill="#35A6DE"></path>
                            <path d="M53.923,85.749 C53.923,97.034 63.088,106.2 74.376,106.2 C85.681,106.2 94.834,97.034 94.834,85.749 C94.834,74.448 85.681,65.284 74.376,65.284 C63.088,65.284 53.923,74.448 53.923,85.749 L53.923,85.749 Z" id="XMLID_4445_" stroke="#FFFFFF" stroke-width="2" fill="#35A6DE"></path>
                            <path d="M14.979,127.109 C14.979,138.394 24.145,147.559 35.432,147.559 C46.741,147.559 55.891,138.394 55.891,127.109 C55.891,115.808 46.741,106.644 35.432,106.644 C24.145,106.645 14.979,115.809 14.979,127.109 L14.979,127.109 Z" id="XMLID_4444_" stroke="#FFFFFF" stroke-width="2" fill="#35A6DE"></path>
                            <polygon id="XMLID_4443_" stroke="#FFFFFF" stroke-width="2" fill="#35A6DE" points="0.885 275.753 127.727 131.489 251.043 131.489 378.902 276.194"></polygon>
                            <path d="M60.085,100.367 C60.085,100.367 74.376,98.472 74.376,85.743 L74.376,77.24 L92.489,77.24" id="XMLID_4442_" stroke="#FFFFFF" stroke-width="2" fill="#35A6DE"></path>
                            <path d="M362.66,127.109 C362.66,138.394 353.494,147.559 342.201,147.559 C330.899,147.559 321.743,138.394 321.743,127.109 C321.743,115.808 330.899,106.644 342.201,106.644 C353.494,106.645 362.66,115.809 362.66,127.109 L362.66,127.109 Z" id="XMLID_4441_" stroke="#FFFFFF" stroke-width="2" fill="#35A6DE"></path>
                            <path d="M356.496,141.728 C356.496,141.728 342.201,139.833 342.201,127.103 L342.201,118.601 L324.09,118.601" id="XMLID_4440_" stroke="#FFFFFF" stroke-width="2" fill="#35A6DE"></path>
                            <path d="M85.136,196.036 L46.291,196.028 L46.302,169.142 C46.3,164.811 42.784,161.291 38.448,161.291 C34.109,161.291 30.588,164.811 30.588,169.148 L30.588,203.624 L30.616,203.624 C30.613,203.71 30.588,203.797 30.588,203.88 C30.592,208.218 34.109,211.738 38.448,211.738 L85.14,211.738 L85.136,196.036 L85.136,196.036 Z" id="XMLID_4439_" stroke="#FFFFFF" stroke-width="2" fill="#35A6DE"></path>
                            <path d="M100.337,196.036 L85.136,196.036 L85.141,211.738 L98.426,211.738 L107.975,204.157 C107.975,195.948 100.337,196.036 100.337,196.036 L100.337,196.036 Z" id="XMLID_4438_" stroke="#FFFFFF" stroke-width="2" fill="#35A6DE"></path>
                            <polyline id="XMLID_4437_" stroke="#FFFFFF" stroke-width="2" fill="#35A6DE" points="55.358 122.488 39.496 122.488 39.496 167.932 14.979 167.932 14.979 126.311"></polyline>
                            <polygon id="XMLID_4436_" stroke="#FFFFFF" stroke-width="2" fill="#35A6DE" points="106.996 177.607 189.385 177.607 189.385 144.281 133.738 144.281"></polygon>
                            <polygon id="XMLID_4435_" stroke="#FFFFFF" stroke-width="2" fill="#35A6DE" points="276.384 207.323 173.491 207.323 173.491 165.703 242.987 165.703"></polygon>
                            <path d="M302.483,117.96 C299.416,114.896 294.443,114.896 291.371,117.96 L247.982,161.368 L259.079,172.478 L302.483,129.073 C305.547,126.005 305.547,121.029 302.483,117.96 L302.483,117.96 Z" id="XMLID_4434_" stroke="#FFFFFF" stroke-width="2" fill="#35A6DE"></path>
                            <path d="M237.29,172.043 L248.045,161.291 L259.143,172.398 L249.748,181.791 L237.636,183.182 C231.831,177.38 237.29,172.043 237.29,172.043 L237.29,172.043 Z" id="XMLID_4433_" stroke="#FFFFFF" stroke-width="2" fill="#35A6DE"></path>
                            <path d="M119.758,148.929 L80.912,148.917 L80.926,122.035 C80.921,117.703 77.406,114.186 73.072,114.186 C68.731,114.186 65.213,117.704 65.213,122.04 L65.213,156.515 L65.239,156.515 C65.234,156.601 65.213,156.685 65.213,156.771 C65.213,161.109 68.732,164.628 73.072,164.628 L119.765,164.628 L119.758,148.929 L119.758,148.929 Z" id="XMLID_4432_" stroke="#FFFFFF" stroke-width="2" fill="#35A6DE"></path>
                            <path d="M134.961,148.929 L119.758,148.929 L119.766,164.629 L133.053,164.629 L142.603,157.049 C142.603,148.838 134.961,148.929 134.961,148.929 L134.961,148.929 Z" id="XMLID_4431_" stroke="#FFFFFF" stroke-width="2" fill="#35A6DE"></path>
                            <path d="M252.876,16.913 L340.678,16.913 C349.419,16.913 356.496,23.45 356.496,32.185 C356.496,40.92 349.419,47.461 340.678,47.461 L272.072,47.461 L272.072,59.485 L261.907,47.461 L252.877,47.461 C244.142,47.461 237.057,40.92 237.057,32.185 C237.057,23.45 244.141,16.913 252.876,16.913 L252.876,16.913 Z" id="XMLID_4430_" stroke="#FFFFFF" stroke-width="2" fill="#35A6DE"></path>
                            <path d="M36.156,0.141 L127.868,0.141 C139.539,0.141 148.989,8.867 148.989,20.529 C148.989,32.194 139.539,40.928 127.868,40.928 L61.787,40.928 L61.787,56.981 L48.214,40.928 L36.156,40.928 C24.495,40.928 15.04,32.194 15.04,20.529 C15.04,8.867 24.495,0.141 36.156,0.141 L36.156,0.141 Z" id="XMLID_4429_" stroke="#FFFFFF" stroke-width="2" fill="#35A6DE"></path>
                        </g>
                        <rect id="XMLID_4427_" stroke="#FFFFFF" stroke-width="2" fill="#35A6DE" x="1.585" y="276.38" width="378.805" height="18.328"></rect>
                    </g>
                </g>
            </g>
        </g>
    </g>
</svg>