<?xml version="1.0" encoding="utf-8"?>
<!-- Generator: Adobe Illustrator 16.0.0, SVG Export Plug-In . SVG Version: 6.00 Build 0)  -->
<!DOCTYPE svg PUBLIC "-//W3C//DTD SVG 1.0//EN" "http://www.w3.org/TR/2001/REC-SVG-20010904/DTD/svg10.dtd">
<svg version="1.0" id="Layer_1" xmlns="http://www.w3.org/2000/svg" xmlns:xlink="http://www.w3.org/1999/xlink" x="0px" y="0px"
	 width="204.371px" height="168.516px" viewBox="0 0 204.371 168.516" enable-background="new 0 0 204.371 168.516"
	 xml:space="preserve">
<g id="XMLID_4714_">
	<g id="XMLID_4720_">
		<g id="XMLID_4721_">
			<g id="XMLID_4740_">
				<g id="XMLID_4744_">
					<circle id="XMLID_4748_" fill="#29A9E0" cx="61.116" cy="87.564" r="13.22"/>
					<path id="XMLID_4745_" fill="#FFFFFF" d="M61.116,102.288c-8.113,0-14.725-6.606-14.725-14.725
						c0-8.119,6.611-14.724,14.725-14.724c8.118,0,14.724,6.605,14.724,14.724C75.84,95.682,69.234,102.288,61.116,102.288z
						 M61.116,75.85c-6.461,0-11.714,5.255-11.714,11.714c0,6.458,5.253,11.714,11.714,11.714c6.46,0,11.713-5.256,11.713-11.714
						C72.829,81.105,67.576,75.85,61.116,75.85z"/>
				</g>
				<g id="XMLID_4741_">
					<path id="XMLID_4743_" fill="#29A9E0" d="M38.661,134.319v-11.073c0-12.4,10.047-22.45,22.455-22.45
						c12.396,0,22.45,10.05,22.45,22.45v15.733"/>
					<path id="XMLID_4742_" fill="#FFFFFF" d="M83.566,140.485c-0.831,0-1.505-0.674-1.505-1.506v-15.733
						c0-11.549-9.396-20.945-20.945-20.945s-20.95,9.396-20.95,20.945v11.073c0,0.83-0.674,1.505-1.505,1.505
						s-1.506-0.675-1.506-1.505v-11.073c0-13.209,10.749-23.956,23.961-23.956c13.211,0,23.956,10.747,23.956,23.956v15.733
						C85.072,139.811,84.401,140.485,83.566,140.485z"/>
				</g>
			</g>
			<g id="XMLID_4731_">
				<g id="XMLID_4735_">
					<path id="XMLID_4739_" fill="#29A9E0" d="M157.729,87.564c0,7.302-5.916,13.219-13.219,13.219
						c-7.296,0-13.212-5.917-13.212-13.219c0-7.301,5.916-13.219,13.212-13.219C151.813,74.345,157.729,80.262,157.729,87.564z"/>
					<path id="XMLID_4736_" fill="#FFFFFF" d="M144.511,102.288c-8.115,0-14.717-6.606-14.717-14.725
						c0-8.119,6.602-14.724,14.717-14.724c8.119,0,14.724,6.605,14.724,14.724C159.234,95.682,152.63,102.288,144.511,102.288z
						 M144.511,75.85c-6.457,0-11.706,5.255-11.706,11.714c0,6.458,5.249,11.714,11.706,11.714c6.46,0,11.713-5.256,11.713-11.714
						C156.224,81.105,150.971,75.85,144.511,75.85z"/>
				</g>
				<g id="XMLID_4732_">
					<path id="XMLID_4734_" fill="#29A9E0" d="M166.969,134.319v-11.073c0-12.4-10.05-22.45-22.458-22.45
						c-12.396,0-22.451,10.05-22.451,22.45v15.733"/>
					<path id="XMLID_4733_" fill="#FFFFFF" d="M122.06,140.485c-0.831,0-1.505-0.674-1.505-1.506v-15.733
						c0-13.209,10.748-23.956,23.956-23.956c13.215,0,23.964,10.747,23.964,23.956v11.073c0,0.83-0.675,1.505-1.506,1.505
						s-1.505-0.675-1.505-1.505v-11.073c0-11.549-9.4-20.945-20.953-20.945c-11.55,0-20.946,9.396-20.946,20.945v15.733
						C123.564,139.811,122.891,140.485,122.06,140.485z"/>
				</g>
			</g>
			<g id="XMLID_4722_">
				<g id="XMLID_4726_">
					<path id="XMLID_4730_" fill="#29A9E0" d="M116.034,76.991c0,7.297-5.916,13.218-13.219,13.218
						c-7.3,0-13.219-5.921-13.219-13.218c0-7.303,5.919-13.219,13.219-13.219C110.118,63.772,116.034,69.688,116.034,76.991z"/>
					<path id="XMLID_4727_" fill="#FFFFFF" d="M102.815,91.715c-8.119,0-14.725-6.605-14.725-14.724s6.605-14.724,14.725-14.724
						c8.118,0,14.724,6.605,14.724,14.724S110.934,91.715,102.815,91.715z M102.815,65.278c-6.461,0-11.714,5.256-11.714,11.713
						c0,6.458,5.253,11.713,11.714,11.713c6.456,0,11.713-5.255,11.713-11.713C114.528,70.533,109.271,65.278,102.815,65.278z"/>
				</g>
				<g id="XMLID_4723_">
					<path id="XMLID_4725_" fill="#29A9E0" d="M125.27,150.494v-37.822c0-12.4-10.055-22.452-22.454-22.452
						c-12.404,0-22.451,10.052-22.451,22.452v37.822"/>
					<path id="XMLID_4724_" fill="#FFFFFF" d="M125.27,152c-0.831,0-1.505-0.672-1.505-1.506v-37.822
						c0-11.551-9.396-20.947-20.949-20.947c-11.549,0-20.946,9.396-20.946,20.947v37.822c0,0.834-0.674,1.506-1.505,1.506
						s-1.506-0.672-1.506-1.506v-37.822c0-13.211,10.745-23.958,23.957-23.958c13.211,0,23.96,10.747,23.96,23.958v37.822
						C126.775,151.328,126.105,152,125.27,152z"/>
				</g>
			</g>
		</g>
	</g>
	<g id="XMLID_4715_">
		<path id="XMLID_4719_" fill="#29A9E0" d="M59.548,17.106h86.534c8.613,0,15.588,6.98,15.588,15.589
			c0,8.609-6.975,15.595-15.588,15.595c-0.6,0-1.771,0-3.246,0v10.78l-10.792-10.78c-7.931,0-72.496,0-72.496,0
			c-8.608,0-15.591-6.986-15.591-15.595C43.957,24.086,50.939,17.106,59.548,17.106z"/>
		<path id="XMLID_4716_" fill="#FFFFFF" d="M142.836,60.575c-0.392,0-0.775-0.153-1.065-0.439l-10.35-10.341H59.548
			c-9.428,0-17.097-7.672-17.097-17.1c0-9.426,7.669-17.094,17.097-17.094h86.534c9.425,0,17.092,7.668,17.092,17.094
			c0,9.428-7.667,17.1-17.092,17.1h-1.74v9.275c0,0.61-0.368,1.159-0.929,1.392C143.229,60.54,143.028,60.575,142.836,60.575z
			 M59.548,18.612c-7.766,0-14.086,6.317-14.086,14.083c0,7.77,6.32,14.089,14.086,14.089h72.496c0.4,0,0.784,0.159,1.066,0.441
			l8.221,8.213v-7.148c0-0.831,0.675-1.505,1.505-1.505h3.246c7.763,0,14.082-6.319,14.082-14.089
			c0-7.766-6.319-14.083-14.082-14.083H59.548z"/>
	</g>
</g>
</svg>
