<?xml version="1.0" encoding="utf-8"?>
<!-- Generator: Adobe Illustrator 16.0.0, SVG Export Plug-In . SVG Version: 6.00 Build 0)  -->
<!DOCTYPE svg PUBLIC "-//W3C//DTD SVG 1.0//EN" "http://www.w3.org/TR/2001/REC-SVG-20010904/DTD/svg10.dtd">
<svg version="1.0" id="Layer_1" xmlns="http://www.w3.org/2000/svg" xmlns:xlink="http://www.w3.org/1999/xlink" x="0px" y="0px"
	 width="204.371px" height="168.516px" viewBox="0 0 204.371 168.516" enable-background="new 0 0 204.371 168.516"
	 xml:space="preserve">
<g id="XMLID_4644_">
	<g id="XMLID_4688_">
		<g id="XMLID_4709_">
			<path id="XMLID_4713_" fill="#29A9E0" d="M142.365,88.293L142.365,88.293L142.365,88.293c0-19.23-15.578-34.815-34.811-34.815
				c-19.225,0-34.814,15.585-34.814,34.815l0,0l0,0c0,0-1.766,13.854,12.136,29.301c8.891,9.879,1.376,21.283,13.388,21.283h9.291
				h9.286c12.02,0,4.505-11.404,13.388-21.283C144.138,102.147,142.365,88.293,142.365,88.293z"/>
			<path id="XMLID_4710_" fill="#FFFFFF" d="M116.841,140.383H98.264c-8.028,0-8.837-4.969-9.612-9.777
				c-0.607-3.752-1.298-8.008-4.896-12.004c-14.195-15.779-12.588-29.908-12.509-30.5c-0.013-19.835,16.285-36.128,36.308-36.128
				c20.028,0,36.316,16.293,36.316,36.32c0.066,0.4,1.686,14.529-12.521,30.309c-3.595,3.994-4.28,8.248-4.888,12
				C125.686,135.411,124.882,140.383,116.841,140.383z M107.555,54.984c-18.366,0-33.31,14.939-33.31,33.309
				c-0.027,0.318-1.466,13.604,11.753,28.293c4.19,4.658,4.986,9.582,5.626,13.539c0.804,4.977,1.172,7.246,6.641,7.246h18.577
				c5.477,0,5.842-2.271,6.649-7.25c0.639-3.957,1.438-8.879,5.621-13.535c13.295-14.764,11.78-27.973,11.765-28.104
				C140.86,69.924,125.921,54.984,107.555,54.984z"/>
		</g>
		<g id="XMLID_4704_">
			<path id="XMLID_4708_" fill="#29A9E0" d="M97.715,145.42c-1.812,0-3.277-1.463-3.277-3.27c0-1.805,1.466-3.273,3.277-3.273
				h19.691c1.807,0,3.27,1.469,3.27,3.273c0,1.807-1.463,3.27-3.27,3.27H97.715z"/>
			<path id="XMLID_4705_" fill="#FFFFFF" d="M117.406,146.926H97.715c-2.638,0-4.783-2.143-4.783-4.775
				c0-2.635,2.146-4.779,4.783-4.779h19.691c2.63,0,4.774,2.145,4.774,4.779C122.181,144.784,120.036,146.926,117.406,146.926z
				 M97.715,140.383c-0.98,0-1.772,0.793-1.772,1.768c0,0.973,0.792,1.764,1.772,1.764h19.691c0.972,0,1.764-0.791,1.764-1.764
				c0-0.975-0.792-1.768-1.764-1.768H97.715z"/>
		</g>
		<g id="XMLID_4699_">
			<path id="XMLID_4703_" fill="#29A9E0" d="M97.715,151.965c-1.812,0-3.277-1.465-3.277-3.271s1.466-3.273,3.277-3.273h19.691
				c1.807,0,3.27,1.467,3.27,3.273s-1.463,3.271-3.27,3.271H97.715z"/>
			<path id="XMLID_4700_" fill="#FFFFFF" d="M117.406,153.469H97.715c-2.638,0-4.783-2.143-4.783-4.775
				c0-2.635,2.146-4.779,4.783-4.779h19.691c2.63,0,4.774,2.145,4.774,4.779C122.181,151.327,120.036,153.469,117.406,153.469z
				 M97.715,146.926c-0.98,0-1.772,0.791-1.772,1.768c0,0.973,0.792,1.766,1.772,1.766h19.691c0.972,0,1.764-0.793,1.764-1.766
				c0-0.977-0.792-1.768-1.764-1.768H97.715z"/>
		</g>
		<g id="XMLID_4694_">
			<polygon id="XMLID_4698_" fill="#29A9E0" points="100.671,138.877 98.342,97.243 102.953,101.852 107.555,97.243 112.16,101.852 
				116.771,97.243 114.442,138.877 			"/>
			<path id="XMLID_4695_" fill="#FFFFFF" d="M114.442,140.383h-13.771c-0.801,0-1.459-0.625-1.502-1.422l-2.328-41.635
				c-0.036-0.623,0.317-1.203,0.886-1.457c0.564-0.252,1.234-0.133,1.682,0.309l3.544,3.545l3.54-3.545
				c0.564-0.564,1.563-0.564,2.128,0l3.54,3.545l3.548-3.545c0.436-0.443,1.105-0.564,1.678-0.309
				c0.569,0.254,0.922,0.834,0.887,1.457l-2.329,41.635C115.9,139.758,115.242,140.383,114.442,140.383z M102.094,137.372h10.924
				l2.031-36.277l-1.827,1.822c-0.282,0.283-0.662,0.441-1.062,0.441l0,0c-0.399,0-0.779-0.158-1.062-0.441l-3.544-3.543
				l-3.536,3.543c-0.564,0.566-1.568,0.566-2.133,0l-1.819-1.822L102.094,137.372z"/>
		</g>
		<g id="XMLID_4689_">
			<path id="XMLID_4693_" fill="#29A9E0" d="M98.099,151.965c1.686,3.551,5.267,6.021,9.456,6.021c4.187,0,7.777-2.471,9.455-6.021
				H98.099z"/>
			<path id="XMLID_4690_" fill="#FFFFFF" d="M107.555,159.491c-4.657,0-8.805-2.635-10.814-6.881
				c-0.222-0.467-0.186-1.014,0.088-1.451c0.274-0.436,0.758-0.699,1.271-0.699h18.911c0.518,0,1,0.264,1.274,0.699
				c0.274,0.438,0.31,0.984,0.09,1.451C116.391,156.79,112.145,159.491,107.555,159.491z M100.875,153.469
				c1.671,1.9,4.069,3.012,6.68,3.012c2.614,0,5.014-1.111,6.686-3.012H100.875z"/>
		</g>
	</g>
	<g id="XMLID_4645_">
		<g id="XMLID_4672_">
			<g id="XMLID_4679_">
				<g id="XMLID_4680_">
					<g id="XMLID_4681_">
						<g id="XMLID_4685_">
							<line id="XMLID_4687_" fill="#29A9E0" x1="49.834" y1="87.87" x2="21.185" y2="87.87"/>
							<path id="XMLID_4686_" fill="#FFFFFF" d="M49.834,89.375H21.185c-0.831,0-1.506-0.674-1.506-1.506
								c0-0.834,0.675-1.506,1.506-1.506h28.649c0.835,0,1.505,0.672,1.505,1.506C51.339,88.702,50.669,89.375,49.834,89.375z"/>
						</g>
						<g id="XMLID_4682_">
							<line id="XMLID_4684_" fill="#29A9E0" x1="193.92" y1="87.87" x2="165.275" y2="87.87"/>
							<path id="XMLID_4683_" fill="#FFFFFF" d="M193.92,89.375h-28.645c-0.831,0-1.506-0.674-1.506-1.506
								c0-0.834,0.675-1.506,1.506-1.506h28.645c0.832,0,1.506,0.672,1.506,1.506C195.426,88.702,194.752,89.375,193.92,89.375z"/>
						</g>
					</g>
				</g>
			</g>
			<g id="XMLID_4673_">
				<g id="XMLID_4674_">
					<g id="XMLID_4675_">
						<g id="XMLID_4676_">
							<line id="XMLID_4678_" fill="#29A9E0" x1="107.555" y1="1.505" x2="107.555" y2="30.147"/>
							<path id="XMLID_4677_" fill="#FFFFFF" d="M107.555,31.653c-0.831,0-1.506-0.672-1.506-1.506V1.505
								c0-0.831,0.675-1.505,1.506-1.505s1.505,0.674,1.505,1.505v28.643C109.06,30.981,108.386,31.653,107.555,31.653z"/>
						</g>
					</g>
				</g>
			</g>
		</g>
		<g id="XMLID_4659_">
			<g id="XMLID_4666_">
				<g id="XMLID_4667_">
					<g id="XMLID_4668_">
						<g id="XMLID_4669_">
							<line id="XMLID_4671_" fill="#29A9E0" x1="182.348" y1="44.689" x2="157.545" y2="59.009"/>
							<path id="XMLID_4670_" fill="#FFFFFF" d="M157.545,60.514c-0.518,0-1.027-0.27-1.301-0.753
								c-0.42-0.719-0.174-1.641,0.548-2.056l24.803-14.318c0.718-0.418,1.643-0.171,2.055,0.551
								c0.42,0.721,0.174,1.641-0.549,2.056l-24.803,14.318C158.059,60.449,157.8,60.514,157.545,60.514z"/>
						</g>
					</g>
				</g>
			</g>
			<g id="XMLID_4660_">
				<g id="XMLID_4661_">
					<g id="XMLID_4662_">
						<g id="XMLID_4663_">
							<line id="XMLID_4665_" fill="#29A9E0" x1="64.37" y1="13.077" x2="78.69" y2="37.881"/>
							<path id="XMLID_4664_" fill="#FFFFFF" d="M78.69,39.386c-0.517,0-1.026-0.269-1.301-0.752L63.068,13.83
								c-0.415-0.722-0.168-1.641,0.549-2.057c0.718-0.413,1.643-0.172,2.059,0.551l14.317,24.804
								c0.419,0.721,0.172,1.641-0.55,2.056C79.204,39.321,78.945,39.386,78.69,39.386z"/>
						</g>
					</g>
				</g>
			</g>
		</g>
		<g id="XMLID_4646_">
			<g id="XMLID_4653_">
				<g id="XMLID_4654_">
					<g id="XMLID_4655_">
						<g id="XMLID_4656_">
							<line id="XMLID_4658_" fill="#29A9E0" x1="150.735" y1="13.077" x2="136.415" y2="37.881"/>
							<path id="XMLID_4657_" fill="#FFFFFF" d="M136.415,39.386c-0.255,0-0.514-0.064-0.753-0.202
								c-0.718-0.415-0.964-1.335-0.547-2.056l14.318-24.804c0.416-0.719,1.337-0.96,2.057-0.551
								c0.72,0.416,0.966,1.335,0.547,2.057l-14.316,24.804C137.442,39.115,136.933,39.386,136.415,39.386z"/>
						</g>
					</g>
				</g>
			</g>
			<g id="XMLID_4647_">
				<g id="XMLID_4648_">
					<g id="XMLID_4649_">
						<g id="XMLID_4650_">
							<line id="XMLID_4652_" fill="#29A9E0" x1="32.757" y1="44.689" x2="57.564" y2="59.009"/>
							<path id="XMLID_4651_" fill="#FFFFFF" d="M57.564,60.514c-0.259,0-0.517-0.064-0.752-0.202L32.004,45.993
								c-0.717-0.415-0.964-1.335-0.548-2.056c0.415-0.722,1.34-0.963,2.054-0.551l24.807,14.318
								c0.718,0.415,0.965,1.337,0.549,2.056C58.587,60.244,58.083,60.514,57.564,60.514z"/>
						</g>
					</g>
				</g>
			</g>
		</g>
	</g>
</g>
</svg>
