<?xml version="1.0" encoding="utf-8"?>
<!-- Generator: Adobe Illustrator 16.0.0, SVG Export Plug-In . SVG Version: 6.00 Build 0)  -->
<!DOCTYPE svg PUBLIC "-//W3C//DTD SVG 1.1//EN" "http://www.w3.org/Graphics/SVG/1.1/DTD/svg11.dtd">
<svg version="1.1" id="Layer_1" xmlns="http://www.w3.org/2000/svg" xmlns:xlink="http://www.w3.org/1999/xlink" x="0px" y="0px"
	 width="347.923px" height="263px" viewBox="-69.8 0 347.923 263" enable-background="new -69.8 0 347.923 263"
	 xml:space="preserve">
<title>XMLID_2961_</title>
<desc>Created with Sketch.</desc>
<g id="Page-1">
	<g id="_x5B_2016.10.17_x5D_-iPrepare_x5F_All-Desktop-_x28_NoDisaster_x29_" transform="translate(-8792.000000, -11312.000000)">
		<g id="draft">
			<g id="Group" transform="translate(8500.000000, 6149.000000)">
				<g id="XMLID_2961_" transform="translate(293.000000, 5163.000000)">
					<g id="XMLID_2996_" transform="translate(12.000000, 115.000000)">
						<g id="XMLID_2999_" transform="translate(0.000000, 14.000000)">
							<g id="XMLID_3003_" transform="translate(61.000000, 0.000000)">
								
									<rect id="XMLID_3034_" x="73.363" y="0.811" fill="#33A8DF" stroke="#FFFFFF" stroke-width="2" width="18.597" height="49.246"/>
								
									<rect id="XMLID_3033_" x="91.961" y="0.811" fill="#33A8DF" stroke="#FFFFFF" stroke-width="2" width="17.514" height="49.246"/>
								
									<rect id="XMLID_3032_" x="48.189" y="23.791" fill="#33A8DF" stroke="#FFFFFF" stroke-width="2" width="43.771" height="26.266"/>
								
									<rect id="XMLID_3031_" x="97.438" y="39.113" fill="#33A8DF" stroke="#FFFFFF" stroke-width="2" width="7.662" height="10.943"/>
								<g id="XMLID_3027_" transform="translate(51.000000, 34.000000)">
									<rect id="Rectangle-path" x="1.777" y="1.736" fill="#33A8DF" width="1.287" height="2.377"/>
									<polygon id="Shape" fill="#FFFFFF" points="4.064,0.736 0.777,0.736 0.777,5.113 4.064,5.113 									"/>
								</g>
								<g id="XMLID_3023_" transform="translate(85.000000, 34.000000)">
									<rect id="Rectangle-path_1_" x="1.943" y="1.736" fill="#33A8DF" width="1.283" height="2.377"/>
									<polygon id="Shape_1_" fill="#FFFFFF" points="4.227,0.736 0.943,0.736 0.943,5.113 4.227,5.113 									"/>
								</g>
								<g id="XMLID_3019_" transform="translate(99.000000, 18.000000)">
									<rect id="Rectangle-path_2_" x="1.625" y="1.318" fill="#33A8DF" width="1.283" height="2.377"/>
									<polygon id="Shape_2_" fill="#FFFFFF" points="3.908,0.318 0.625,0.318 0.625,4.695 3.908,4.695 									"/>
								</g>
								<path id="XMLID_3018_" fill="#33A8DF" stroke="#FFFFFF" stroke-width="2" d="M27.941,13.941h41.973
									c12.092,0,22.047,5.617,22.047,9.85H47.643"/>
								<path id="XMLID_3017_" fill="#33A8DF" stroke="#FFFFFF" stroke-width="2" d="M4.446,23.791c0-4.232,9.804-9.85,21.891-9.85
									c12.089,0,21.89,5.617,21.89,9.85"/>
								
									<rect id="XMLID_3016_" x="4.418" y="23.791" fill="#33A8DF" stroke="#FFFFFF" stroke-width="2" width="43.771" height="26.266"/>
								<g id="XMLID_3013_" transform="translate(58.000000, 34.000000)">
									
										<rect id="XMLID_3015_" x="0.656" y="0.736" fill="#33A8DF" stroke="#FFFFFF" stroke-width="2" width="24.078" height="15.32"/>
									<path id="XMLID_3014_" fill="#33A8DF" stroke="#FFFFFF" stroke-width="2" d="M0.656,13.631h24.078"/>
								</g>
								<g id="XMLID_3004_" transform="translate(0.000000, 33.000000)">
									
										<rect id="XMLID_3012_" x="14.784" y="0.336" fill="#33A8DF" stroke="#FFFFFF" stroke-width="2" width="23.131" height="16.707"/>
									
										<rect id="XMLID_3011_" x="4.501" y="0.336" fill="#33A8DF" stroke="#FFFFFF" stroke-width="2" width="14.137" height="16.707"/>
									<g id="XMLID_3009_" transform="translate(0.000000, 4.000000)">
										<path id="XMLID_3010_" fill="#33A8DF" stroke="#FFFFFF" stroke-width="2" d="M15.389,3.455
											c0-1.623-1.317-2.941-2.945-2.941c-0.451,0-0.878,0.111-1.264,0.301l-0.028-0.01L3.27,3.939l0,0
											c-1.3,0.578-3.012,1.523-3.2,4.166c-0.188,2.648,2.181,4.938,4.834,4.938c1.187,0,2.279-0.436,3.12-1.146h0.002
											l0.015-0.011c0.163-0.141,0.314-0.284,0.456-0.446l5.781-5.683l-0.004-0.014C14.941,5.207,15.389,4.387,15.389,3.455
											L15.389,3.455z"/>
									</g>
									
										<rect id="XMLID_3008_" x="22.926" y="6.76" fill="#33A8DF" stroke="#FFFFFF" stroke-width="2" width="11.995" height="10.283"/>
									<path id="XMLID_3005_" fill="#33A8DF" stroke="#FFFFFF" stroke-width="2" d="M22.926,14.188h11.995"/>
								</g>
							</g>
							<path id="XMLID_3002_" fill="#29A9E0" d="M51.731,44.752c3.291,0,4.315,2.91,8.247,2.91c3.945,0,4.854-2.91,8.152-2.91
								c3.379,0,4.153,2.91,8.096,2.91c3.939,0,4.775-2.91,8.075-2.91c3.376,0,4.119,2.91,8.059,2.91c3.941,0,4.752-2.91,8.059-2.91
								c3.38,0,4.109,2.91,8.049,2.91c3.947,0,4.751-2.91,8.053-2.91c3.381,0,4.104,2.91,8.049,2.91c3.934,0,4.748-2.91,8.043-2.91
								c3.388,0,4.109,2.91,8.048,2.91c3.942,0,4.751-2.91,8.055-2.91c3.382,0,4.109,2.91,8.045,2.91c3.944,0,4.753-2.91,8.052-2.91
								c3.381,0,4.086,2.91,8.027,2.91s4.748-2.91,8.038-2.91v49.873H51.732L51.731,44.752L51.731,44.752z"/>
							<path id="XMLID_3001_" fill="none" stroke="#FFFFFF" stroke-width="2" d="M180.902,44.822c-3.307,0-4.107,2.904-8.049,2.904
								c-3.942,0-4.664-2.904-8.045-2.904c-3.3,0-4.106,2.904-8.052,2.904c-3.937,0-4.664-2.904-8.045-2.904
								c-3.304,0-4.11,2.904-8.055,2.904c-3.938,0-4.66-2.904-8.048-2.904c-3.295,0-4.104,2.904-8.043,2.904
								c-3.943,0-4.668-2.904-8.049-2.904c-3.302,0-4.104,2.904-8.053,2.904c-3.939,0-4.665-2.904-8.046-2.904
								c-3.299,0-4.106,2.904-8.05,2.904c-3.932,0-4.664-2.904-8.041-2.904c-3.301,0-4.111,2.904-8.051,2.904
								c-3.942,0-4.672-2.904-8.05-2.904c-3.299,0-4.109,2.904-8.046,2.904c-3.938,0-4.669-2.904-8.05-2.904"/>
							<path id="XMLID_3000_" fill="none" stroke="#FFFFFF" stroke-width="2" d="M51.731,44.822c-3.481,0-4.321,3.062-8.481,3.062
								c-4.158,0-4.922-3.062-8.486-3.062c-3.479,0-4.333,3.062-8.489,3.062c-4.154,0-4.918-3.062-8.483-3.062
								c-3.484,0-4.334,3.062-8.489,3.062c-4.156,0-4.923-3.062-8.482-3.062"/>
						</g>
						
							<rect id="XMLID_2998_" x="143.665" y="4.604" fill="#33A8DF" stroke="#FFFFFF" stroke-width="2" width="4.604" height="10.207"/>
						
							<rect id="XMLID_2997_" x="134.363" y="0.412" fill="#33A8DF" stroke="#FFFFFF" stroke-width="2" width="4.603" height="14.398"/>
					</g>
					<g id="XMLID_2984_" transform="translate(17.000000, 160.000000)">
						<path id="XMLID_2995_" fill="#33A8DF" stroke="#FFFFFF" stroke-width="2" d="M19.97,39.043c0,3.586-2.901,6.49-6.483,6.49
							c-3.589,0-6.494-2.904-6.494-6.49s2.905-6.49,6.494-6.49C17.068,32.553,19.97,35.457,19.97,39.043L19.97,39.043z"/>
						<path id="XMLID_2994_" fill="#33A8DF" stroke="#FFFFFF" stroke-width="2" d="M81.138,23.926
							c-3.021-0.707-10.304-1.889-10.304-1.889s-1.709-3.793-3.326-6.584c-1.607-2.795-2.439-3.912-4.918-3.912H52.515v21.125H5.398
							v6.496h46.897h13.241h21.098v-4.061c0,0,0,0,0-3.979C86.634,27.146,84.166,24.637,81.138,23.926L81.138,23.926z"/>
						
							<rect id="XMLID_2993_" x="2.15" y="0.168" fill="#33A8DF" stroke="#FFFFFF" stroke-width="2" width="22.741" height="32.498"/>
						
							<rect id="XMLID_2992_" x="24.893" y="0.168" fill="#33A8DF" stroke="#FFFFFF" stroke-width="2" width="27.622" height="32.498"/>
						
							<rect id="XMLID_2991_" x="0.523" y="34.287" fill="#33A8DF" stroke="#FFFFFF" stroke-width="2" width="25.998" height="4.875"/>
						<path id="XMLID_2990_" fill="#33A8DF" stroke="#FFFFFF" stroke-width="2" d="M42.735,39.043c0,3.586-2.902,6.49-6.493,6.49
							c-3.58,0-6.489-2.904-6.489-6.49s2.909-6.49,6.489-6.49C39.833,32.553,42.735,35.457,42.735,39.043L42.735,39.043z"/>
						
							<rect id="XMLID_2989_" x="75.266" y="34.287" fill="#33A8DF" stroke="#FFFFFF" stroke-width="2" width="12.996" height="4.875"/>
						<path id="XMLID_2988_" fill="#33A8DF" stroke="#FFFFFF" stroke-width="2" d="M78.519,39.043c0,3.586-2.901,6.49-6.482,6.49
							c-3.593,0-6.5-2.904-6.5-6.49s2.907-6.49,6.5-6.49C75.617,32.553,78.519,35.457,78.519,39.043L78.519,39.043z"/>
						<path id="XMLID_2987_" fill="#33A8DF" stroke="#FFFFFF" stroke-width="2" d="M75.151,39.043c0,1.723-1.394,3.115-3.115,3.115
							c-1.729,0-3.124-1.393-3.124-3.115s1.395-3.121,3.124-3.121C73.758,35.922,75.151,37.32,75.151,39.043L75.151,39.043z"/>
						<circle id="XMLID_2986_" fill="#33A8DF" stroke="#FFFFFF" stroke-width="2" cx="36.245" cy="39.043" r="3.116"/>
						<path id="XMLID_2985_" fill="#33A8DF" stroke="#FFFFFF" stroke-width="2" d="M56.826,23.477h9.423
							c0,0-2.262-4.926-2.717-5.746c-0.449-0.821-1.146-2.379-2.792-2.379h-3.914V23.477L56.826,23.477z"/>
					</g>
					<path id="XMLID_2983_" fill="#29A9E0" d="M192.408,190.777c-5.85,0-6.907-4.32-11.922-4.32c-4.902,0-6.096,4.32-11.95,4.32
						c-5.845,0-6.935-4.32-11.946-4.32c-4.902,0-6.1,4.32-11.951,4.32s-6.93-4.32-11.943-4.32c-4.899,0-6.106,4.32-11.954,4.32
						c-5.847,0-6.931-4.32-11.951-4.32c-4.896,0-6.1,4.32-11.949,4.32c-5.853,0-6.937-4.32-11.95-4.32
						c-4.902,0-6.114,4.32-11.959,4.32c-5.846,0-6.949-4.32-11.973-4.32c-4.893,0-6.13,4.32-11.988,4.32
						c-5.843,0-6.995-4.32-12.015-4.32c-4.896,0-6.249,4.32-12.094,4.32c-5.85,0-7.375-4.32-12.244-4.32v31.807h179.819
						L192.408,190.777L192.408,190.777z"/>
					<path id="XMLID_2982_" fill="none" stroke="#FFFFFF" stroke-width="2" d="M192.438,190.777c-5.855,0-6.937-4.32-11.949-4.32
						c-4.903,0-6.098,4.32-11.951,4.32c-5.846,0-6.934-4.32-11.946-4.32c-4.903,0-6.1,4.32-11.952,4.32
						c-5.851,0-6.929-4.32-11.943-4.32c-4.898,0-6.1,4.32-11.951,4.32c-5.846,0-6.928-4.32-11.953-4.32
						c-4.896,0-6.096,4.32-11.945,4.32c-5.849,0-6.927-4.32-11.944-4.32c-4.904,0-6.104,4.32-11.947,4.32
						c-5.85,0-6.937-4.32-11.951-4.32c-4.902,0-6.098,4.32-11.95,4.32c-5.854,0-6.935-4.32-11.945-4.32
						c-4.904,0-6.1,4.32-11.947,4.32c-5.847,0-6.934-4.32-11.954-4.32"/>
					<path id="XMLID_2981_" fill="none" stroke="#FFFFFF" stroke-width="2" d="M192.438,203.006c-5.855,0-6.937-4.314-11.949-4.314
						c-4.903,0-6.098,4.314-11.951,4.314c-5.846,0-6.934-4.314-11.946-4.314c-4.903,0-6.1,4.314-11.952,4.314
						c-5.851,0-6.929-4.314-11.943-4.314c-4.898,0-6.1,4.314-11.951,4.314c-5.846,0-6.928-4.314-11.953-4.314
						c-4.896,0-6.096,4.314-11.945,4.314c-5.849,0-6.927-4.314-11.944-4.314c-4.904,0-6.104,4.314-11.947,4.314
						c-5.85,0-6.937-4.314-11.951-4.314c-4.902,0-6.098,4.314-11.95,4.314c-5.854,0-6.935-4.314-11.945-4.314
						c-4.904,0-6.1,4.314-11.947,4.314c-5.847,0-6.934-4.314-11.954-4.314"/>
					<path id="XMLID_2980_" fill="none" stroke="#FFFFFF" stroke-width="2" d="M192.438,215.236c-5.855,0-6.937-4.314-11.949-4.314
						c-4.903,0-6.098,4.314-11.951,4.314c-5.846,0-6.934-4.314-11.946-4.314c-4.903,0-6.1,4.314-11.952,4.314
						c-5.851,0-6.929-4.314-11.943-4.314c-4.898,0-6.1,4.314-11.951,4.314c-5.846,0-6.928-4.314-11.953-4.314
						c-4.896,0-6.096,4.314-11.945,4.314c-5.849,0-6.927-4.314-11.944-4.314c-4.904,0-6.104,4.314-11.947,4.314
						c-5.85,0-6.937-4.314-11.951-4.314c-4.902,0-6.098,4.314-11.95,4.314c-5.854,0-6.935-4.314-11.945-4.314
						c-4.904,0-6.1,4.314-11.947,4.314c-5.847,0-6.934-4.314-11.954-4.314"/>
					
						<rect id="XMLID_2979_" x="12.812" y="86.234" fill="none" stroke="#FFFFFF" stroke-width="2" width="180.209" height="140.818"/>
					<path id="XMLID_2978_" fill="none" stroke="#FFFFFF" stroke-width="2" d="M186.188,71.338H20.143
						c-10.969,0-19.858,8.891-19.858,19.859v150.635c0,10.969,8.89,19.859,19.858,19.859h166.044
						c10.967,0,19.855-8.892,19.855-19.859V91.197C206.043,80.229,197.152,71.338,186.188,71.338L186.188,71.338z"/>
					<g id="XMLID_2967_" transform="translate(23.000000, 96.000000)">
						<rect id="XMLID_2977_" x="0.799" y="0.113" fill="none" stroke="#FFFFFF" stroke-width="2" width="63.81" height="22.352"/>
						<path id="XMLID_2975_" fill="#FFFFFF" d="M18.242,17.926h-3.717L8.518,7.488H8.434c0.119,1.846,0.179,3.16,0.179,3.945v6.492
							H6.002V4.13h3.689l5.991,10.332h0.066c-0.098-1.793-0.142-3.059-0.142-3.801V4.13h2.635L18.242,17.926L18.242,17.926z"/>
						<polygon id="XMLID_2973_" fill="#FFFFFF" points="29.66,17.926 21.715,17.926 21.715,4.131 29.66,4.131 29.66,6.526 
							24.638,6.526 24.638,9.553 29.311,9.553 29.311,11.953 24.638,11.953 24.638,15.512 29.66,15.512 						"/>
						<path id="XMLID_2970_" fill="#FFFFFF" d="M45.979,17.926h-3.327l-1.872-7.248c-0.068-0.258-0.186-0.791-0.355-1.6
							c-0.164-0.809-0.262-1.348-0.29-1.629c-0.035,0.342-0.129,0.887-0.279,1.639s-0.27,1.287-0.349,1.613l-1.858,7.225h-3.328
							L30.805,4.131h2.876l1.764,7.527c0.31,1.393,0.535,2.598,0.673,3.617c0.04-0.361,0.119-0.914,0.261-1.666
							c0.133-0.752,0.263-1.335,0.381-1.753l2.01-7.726h2.769l2.007,7.726c0.092,0.347,0.197,0.878,0.332,1.587
							c0.131,0.711,0.231,1.322,0.301,1.832c0.064-0.492,0.165-1.104,0.303-1.837c0.138-0.729,0.266-1.327,0.379-1.78l1.754-7.527
							h2.878L45.979,17.926L45.979,17.926z"/>
						<path id="XMLID_2968_" fill="#FFFFFF" d="M59.373,14.094c0,1.248-0.453,2.227-1.348,2.947
							c-0.896,0.717-2.143,1.078-3.741,1.078c-1.471,0-2.774-0.281-3.909-0.836v-2.715c0.931,0.416,1.721,0.707,2.365,0.873
							c0.646,0.172,1.236,0.262,1.768,0.262c0.644,0,1.135-0.129,1.476-0.371c0.35-0.246,0.519-0.611,0.519-1.094
							c0-0.273-0.078-0.509-0.227-0.725c-0.152-0.211-0.375-0.414-0.664-0.607c-0.296-0.193-0.889-0.506-1.792-0.932
							c-0.841-0.4-1.474-0.781-1.894-1.143c-0.424-0.369-0.761-0.791-1.012-1.279c-0.256-0.482-0.378-1.049-0.378-1.695
							c0-1.223,0.412-2.18,1.239-2.878c0.831-0.7,1.975-1.052,3.432-1.052c0.717,0,1.402,0.088,2.057,0.256
							c0.653,0.172,1.33,0.412,2.043,0.721l-0.945,2.271c-0.734-0.299-1.347-0.51-1.825-0.629c-0.483-0.123-0.955-0.178-1.423-0.178
							c-0.553,0-0.976,0.125-1.271,0.385c-0.299,0.256-0.444,0.594-0.444,1.006c0,0.26,0.059,0.484,0.179,0.679
							c0.121,0.192,0.313,0.377,0.571,0.558c0.263,0.176,0.88,0.5,1.854,0.967c1.288,0.615,2.173,1.234,2.65,1.854
							C59.134,12.436,59.373,13.197,59.373,14.094L59.373,14.094z"/>
					</g>
					<circle id="XMLID_2966_" fill="none" stroke="#FFFFFF" stroke-width="2" cx="185.268" cy="241.93" r="7.169"/>
					<path id="XMLID_2965_" fill="none" stroke="#FFFFFF" stroke-width="2" d="M161.137,241.93c0,2.113,1.709,3.832,3.824,3.832
						c2.121,0,3.832-1.719,3.832-3.832s-1.711-3.832-3.832-3.832C162.846,238.098,161.137,239.814,161.137,241.93L161.137,241.93z"
						/>
					<path id="XMLID_2964_" fill="none" stroke="#FFFFFF" stroke-width="2" d="M147.583,241.93c0,2.113,1.715,3.832,3.831,3.832
						c2.115,0,3.826-1.719,3.826-3.832s-1.711-3.832-3.826-3.832C149.298,238.098,147.583,239.814,147.583,241.93L147.583,241.93z"
						/>
					<polyline id="XMLID_2963_" fill="none" stroke="#FFFFFF" stroke-width="2" points="79.138,0.752 127.727,64.17 175.908,0.752 
											"/>
					<path id="XMLID_2962_" fill="#33A8DF" stroke="#FFFFFF" stroke-width="2" d="M127.521,57.465
						c-7.66,0-13.871,6.213-13.871,13.873h27.744C141.395,63.678,135.189,57.465,127.521,57.465L127.521,57.465z"/>
				</g>
			</g>
		</g>
	</g>
</g>
</svg>
