<?xml version="1.0" encoding="UTF-8"?>
<svg width="299px" height="149px" viewBox="0 0 299 149" version="1.1" xmlns="http://www.w3.org/2000/svg" xmlns:xlink="http://www.w3.org/1999/xlink">
    <!-- Generator: Sketch 40.3 (33839) - http://www.bohemiancoding.com/sketch -->
    <title>XMLID_2883_</title>
    <desc>Created with Sketch.</desc>
    <defs></defs>
    <g id="Page-1" stroke="none" stroke-width="1" fill="none" fill-rule="evenodd">
        <g id="[2016.10.17]-iPrepare_All-Desktop-(NoDisaster)" transform="translate(-8747.000000, -11696.000000)">
            <g id="draft">
                <g id="Group" transform="translate(8500.000000, 6149.000000)">
                    <g id="XMLID_2883_" transform="translate(247.000000, 5548.000000)">
                        <g id="XMLID_2953_" transform="translate(0.000000, 55.000000)">
                            <path d="M219.133,6.996 C213.532,6.996 212.16,11.927 205.475,11.927 C198.785,11.927 197.549,6.996 191.816,6.996 C186.217,6.996 184.846,11.927 178.159,11.927 C171.471,11.927 170.232,6.996 164.497,6.996 C158.895,6.996 157.523,11.927 150.837,11.927 C144.148,11.927 142.915,6.996 137.185,6.996 C131.573,6.996 130.206,11.927 123.527,11.927 C116.836,11.927 115.595,6.996 109.861,6.996 C104.261,6.996 102.886,11.927 96.203,11.927 C89.514,11.927 88.277,6.996 82.547,6.996 C76.937,6.996 75.568,11.927 68.888,11.927 C62.198,11.927 60.959,6.996 55.225,6.996 C49.622,6.996 48.25,11.927 41.563,11.927 C34.876,11.927 33.645,6.996 27.911,6.996 C22.307,6.996 20.936,11.927 14.247,11.927 C7.561,11.927 6.322,6.996 0.588,6.996" id="XMLID_2960_" stroke="#FFFFFF" stroke-width="2"></path>
                            <path d="M219.133,25.247 C213.532,25.247 212.16,30.182 205.475,30.182 C198.785,30.182 197.549,25.247 191.816,25.247 C186.217,25.247 184.846,30.182 178.159,30.182 C171.471,30.182 170.232,25.247 164.497,25.247 C158.895,25.247 157.523,30.182 150.837,30.182 C144.148,30.182 142.915,25.247 137.185,25.247 C131.573,25.247 130.206,30.182 123.527,30.182 C116.836,30.182 115.595,25.247 109.861,25.247 C104.261,25.247 102.886,30.182 96.203,30.182 C89.514,30.182 88.277,25.247 82.547,25.247 C76.937,25.247 75.568,30.182 68.888,30.182 C62.198,30.182 60.959,25.247 55.225,25.247 C49.622,25.247 48.25,30.182 41.563,30.182 C34.876,30.182 33.645,25.247 27.911,25.247 C22.307,25.247 20.936,30.182 14.247,30.182 C7.561,30.182 6.322,25.247 0.588,25.247" id="XMLID_2959_" stroke="#FFFFFF" stroke-width="2"></path>
                            <path d="M219.133,43.506 C213.532,43.506 212.16,48.437 205.475,48.437 C198.785,48.437 197.549,43.506 191.816,43.506 C186.217,43.506 184.846,48.437 178.159,48.437 C171.471,48.437 170.232,43.506 164.497,43.506 C158.895,43.506 157.523,48.437 150.837,48.437 C144.148,48.437 142.915,43.506 137.185,43.506 C131.573,43.506 130.206,48.437 123.527,48.437 C116.836,48.437 115.595,43.506 109.861,43.506 C104.261,43.506 102.886,48.437 96.203,48.437 C89.514,48.437 88.277,43.506 82.547,43.506 C76.937,43.506 75.568,48.437 68.888,48.437 C62.198,48.437 60.959,43.506 55.225,43.506 C49.622,43.506 48.25,48.437 41.563,48.437 C34.876,48.437 33.645,43.506 27.911,43.506 C22.307,43.506 20.936,48.437 14.247,48.437 C7.561,48.437 6.322,43.506 0.588,43.506" id="XMLID_2958_" stroke="#FFFFFF" stroke-width="2"></path>
                            <path d="M219.133,61.761 C213.532,61.761 212.16,66.697 205.475,66.697 C198.785,66.697 197.549,61.761 191.816,61.761 C186.217,61.761 184.846,66.697 178.159,66.697 C171.471,66.697 170.232,61.761 164.497,61.761 C158.895,61.761 157.523,66.697 150.837,66.697 C144.148,66.697 142.915,61.761 137.185,61.761 C131.573,61.761 130.206,66.697 123.527,66.697 C116.836,66.697 115.595,61.761 109.861,61.761 C104.261,61.761 102.886,66.697 96.203,66.697 C89.514,66.697 88.277,61.761 82.547,61.761 C76.937,61.761 75.568,66.697 68.888,66.697 C62.198,66.697 60.959,61.761 55.225,61.761 C49.622,61.761 48.25,66.697 41.563,66.697 C34.876,66.697 33.645,61.761 27.911,61.761 C22.307,61.761 20.936,66.697 14.247,66.697 C7.561,66.697 6.322,61.761 0.588,61.761" id="XMLID_2957_" stroke="#FFFFFF" stroke-width="2"></path>
                            <path d="M219.133,80.016 C213.532,80.016 212.16,84.951 205.475,84.951 C198.785,84.951 197.549,80.016 191.816,80.016 C186.217,80.016 184.846,84.951 178.159,84.951 C171.471,84.951 170.232,80.016 164.497,80.016 C158.895,80.016 157.523,84.951 150.837,84.951 C144.148,84.951 142.915,80.016 137.185,80.016 C131.573,80.016 130.206,84.951 123.527,84.951 C116.836,84.951 115.595,80.016 109.861,80.016 C104.261,80.016 102.886,84.951 96.203,84.951 C89.514,84.951 88.277,80.016 82.547,80.016 C76.937,80.016 75.568,84.951 68.888,84.951 C62.198,84.951 60.959,80.016 55.225,80.016 C49.622,80.016 48.25,84.951 41.563,84.951 C34.876,84.951 33.645,80.016 27.911,80.016 C22.307,80.016 20.936,84.951 14.247,84.951 C7.561,84.951 6.322,80.016 0.588,80.016" id="XMLID_2956_" stroke="#FFFFFF" stroke-width="2"></path>
                            <polygon id="XMLID_2955_" fill="#29A9E0" points="249.571 1.577 124.986 1.577 94.498 1.577 36.299 92.589 124.986 92.589 249.571 92.589"></polygon>
                            <polyline id="XMLID_2954_" stroke="#FFFFFF" stroke-width="2" points="36.299 91.661 94.498 0.646 161.119 0.646"></polyline>
                        </g>
                        <g id="XMLID_2935_" transform="translate(106.000000, 0.000000)" stroke="#FFFFFF" stroke-width="2">
                            <path d="M37.584,75.233 C37.584,82.106 32.019,87.672 25.146,87.672 C18.275,87.672 12.704,82.106 12.704,75.233 C12.704,68.364 18.275,62.799 25.146,62.799 C32.019,62.8 37.584,68.364 37.584,75.233 L37.584,75.233 Z" id="XMLID_2952_" fill="#33A8DF"></path>
                            <path d="M67.178,75.233 C67.178,82.106 61.608,87.672 54.74,87.672 C47.867,87.672 42.299,82.106 42.299,75.233 C42.299,68.364 47.867,62.799 54.74,62.799 C61.607,62.8 67.178,68.364 67.178,75.233 L67.178,75.233 Z" id="XMLID_2951_" fill="#33A8DF"></path>
                            <path d="M181.859,47.394 C180.518,44.761 175.56,35.379 172.46,30.031 C169.382,24.674 167.777,22.539 163.039,22.539 L143.727,22.539 L143.727,63.017 L9.65,63.017 L9.65,75.473 L143.308,75.473 L168.686,75.473 L182.478,75.473 C182.479,75.472 182.686,49.002 181.859,47.394 L181.859,47.394 Z" id="XMLID_2950_" fill="#33A8DF"></path>
                            <rect id="XMLID_2949_" fill="#33A8DF" x="3.424" y="0.741" width="43.594" height="62.274"></rect>
                            <rect id="XMLID_2948_" fill="#33A8DF" x="47.018" y="0.741" width="96.709" height="62.274"></rect>
                            <rect id="XMLID_2947_" fill="#33A8DF" x="0.311" y="69.489" width="49.814" height="5.982"></rect>
                            <g id="XMLID_2944_" transform="translate(152.000000, 63.000000)" fill="#33A8DF">
                                <path d="M25.656,12.472 C25.656,19.339 20.092,24.907 13.218,24.907 C6.346,24.907 0.773,19.34 0.773,12.472 C0.773,5.597 6.346,0.034 13.218,0.034 C20.092,0.033 25.656,5.597 25.656,12.472 L25.656,12.472 Z" id="XMLID_2946_"></path>
                                <path d="M19.195,12.472 C19.195,15.771 16.517,18.447 13.217,18.447 C9.913,18.447 7.235,15.771 7.235,12.472 C7.235,9.166 9.914,6.49 13.217,6.49 C16.518,6.489 19.195,9.166 19.195,12.472 L19.195,12.472 Z" id="XMLID_2945_"></path>
                            </g>
                            <g id="XMLID_2941_" transform="translate(57.000000, 63.000000)" fill="#33A8DF">
                                <path d="M25.483,12.472 C25.483,19.339 19.916,24.907 13.045,24.907 C6.177,24.907 0.609,19.34 0.609,12.472 C0.609,5.597 6.176,0.034 13.045,0.034 C19.916,0.033 25.483,5.597 25.483,12.472 L25.483,12.472 Z" id="XMLID_2943_"></path>
                                <path d="M19.025,12.472 C19.025,15.771 16.353,18.447 13.045,18.447 C9.74,18.447 7.071,15.771 7.071,12.472 C7.071,9.166 9.74,6.49 13.045,6.49 C16.354,6.489 19.025,9.166 19.025,12.472 L19.025,12.472 Z" id="XMLID_2942_"></path>
                            </g>
                            <g id="XMLID_2938_" transform="translate(86.000000, 63.000000)" fill="#33A8DF">
                                <path d="M25.47,12.472 C25.47,19.339 19.903,24.907 13.028,24.907 C6.165,24.907 0.592,19.34 0.592,12.472 C0.592,5.597 6.164,0.034 13.028,0.034 C19.902,0.033 25.47,5.597 25.47,12.472 L25.47,12.472 Z" id="XMLID_2940_"></path>
                                <path d="M19.006,12.472 C19.006,15.771 16.332,18.447 13.027,18.447 C9.73,18.447 7.058,15.771 7.058,12.472 C7.058,9.166 9.73,6.49 13.027,6.49 C16.332,6.489 19.006,9.166 19.006,12.472 L19.006,12.472 Z" id="XMLID_2939_"></path>
                            </g>
                            <polyline id="XMLID_2937_" points="149.955 24.093 149.955 63.016 142.173 63.016"></polyline>
                            <path d="M156.183,44.33 L174.246,44.33 C174.246,44.33 169.911,34.891 169.045,33.317 C168.178,31.744 166.835,28.764 163.683,28.764 L156.183,28.764 L156.183,44.33 L156.183,44.33 Z" id="XMLID_2936_" fill="#33A8DF"></path>
                        </g>
                        <g id="XMLID_2932_" transform="translate(175.000000, 11.000000)" stroke="#FFFFFF" stroke-width="2" fill="#33A8DF">
                            <path d="M51.656,20.879 C51.656,32.144 42.521,41.28 31.256,41.28 C19.986,41.28 10.858,32.143 10.858,20.879 C10.858,9.612 19.987,0.477 31.256,0.477 C42.521,0.477 51.656,9.612 51.656,20.879 L51.656,20.879 Z" id="XMLID_2934_"></path>
                            <rect id="XMLID_2933_" x="0.061" y="12.259" width="62.391" height="17.239"></rect>
                        </g>
                        <g id="XMLID_2909_" transform="translate(213.000000, 69.000000)" stroke="#FFFFFF" stroke-width="2" fill="#33A8DF">
                            <rect id="XMLID_2931_" x="3.854" y="33.127" width="25.589" height="21.964"></rect>
                            <rect id="XMLID_2930_" x="29.443" y="33.127" width="25.588" height="21.964"></rect>
                            <rect id="XMLID_2929_" x="0.088" y="55.403" width="25.592" height="21.963"></rect>
                            <rect id="XMLID_2928_" x="25.68" y="55.403" width="25.594" height="21.963"></rect>
                            <rect id="XMLID_2927_" x="29.443" y="55.403" width="25.588" height="21.963"></rect>
                            <rect id="XMLID_2926_" x="55.031" y="55.403" width="25.592" height="21.963"></rect>
                            <rect id="XMLID_2925_" x="11.6" y="11.161" width="25.586" height="21.966"></rect>
                            <rect id="XMLID_2924_" x="37.186" y="11.161" width="25.585" height="21.966"></rect>
                            <polygon id="XMLID_2923_" points="33.562 0.661 8.103 0.661 11.6 11.161 37.186 11.161"></polygon>
                            <polygon id="XMLID_2922_" points="40.809 0.661 66.267 0.661 62.771 11.161 37.186 11.161"></polygon>
                            <g id="XMLID_2919_" transform="translate(42.000000, 17.000000)">
                                <path d="M13.105,5.638 C13.105,8.468 10.81,10.761 7.98,10.761 C5.15,10.761 2.859,8.468 2.859,5.638 C2.859,2.812 5.15,0.513 7.98,0.513 C10.81,0.513 13.105,2.812 13.105,5.638 L13.105,5.638 Z" id="XMLID_2921_"></path>
                                <rect id="XMLID_2920_" x="0.15" y="3.476" width="15.664" height="4.328"></rect>
                            </g>
                            <g id="XMLID_2913_" transform="translate(33.000000, 33.000000)">
                                <rect id="XMLID_2918_" x="0.562" y="0.127" width="25.587" height="21.964"></rect>
                                <rect id="XMLID_2917_" x="26.148" y="0.127" width="25.593" height="21.964"></rect>
                                <g id="XMLID_2914_" transform="translate(31.000000, 5.000000)">
                                    <circle id="XMLID_2916_" cx="7.943" cy="6.108" r="5.124"></circle>
                                    <rect id="XMLID_2915_" x="0.111" y="3.946" width="15.666" height="4.324"></rect>
                                </g>
                            </g>
                            <g id="XMLID_2910_" transform="translate(59.000000, 61.000000)">
                                <circle id="XMLID_2912_" cx="8.83" cy="5.385" r="5.122"></circle>
                                <rect id="XMLID_2911_" x="0.994" y="3.218" width="15.666" height="4.334"></rect>
                            </g>
                        </g>
                        <g id="XMLID_2884_" transform="translate(77.000000, 62.000000)">
                            <polyline id="XMLID_2908_" stroke="#FFFFFF" stroke-width="2" fill="#33A8DF" points="94.83 27.137 94.83 4.368 86.088 0.36 86.088 27.137"></polyline>
                            <rect id="XMLID_2907_" stroke="#FFFFFF" stroke-width="2" fill="#33A8DF" x="0.84" y="27.137" width="78.688" height="56.839"></rect>
                            <rect id="XMLID_2906_" stroke="#FFFFFF" stroke-width="2" fill="#33A8DF" x="66.418" y="27.137" width="48.09" height="56.839"></rect>
                            <g id="XMLID_2890_" transform="translate(77.000000, 41.000000)">
                                <path d="M0.47,10.359 C0.47,4.839 4.942,0.358 10.477,0.358 C12.019,0.358 13.473,0.739 14.784,1.368 L14.895,1.35 L41.694,12.006 L41.694,12.006 C46.116,13.985 51.952,17.192 52.585,26.171 C53.224,35.192 45.183,42.975 36.139,42.975 C32.104,42.975 28.39,41.503 25.532,39.077 L25.515,39.082 L25.478,39.043 C24.925,38.577 24.405,38.063 23.931,37.526 L4.25,18.186 L4.271,18.155 C1.976,16.318 0.47,13.534 0.47,10.359 L0.47,10.359 Z" id="XMLID_2905_" stroke="#FFFFFF" stroke-width="2" fill="#33A8DF"></path>
                                <g id="XMLID_2899_" transform="translate(6.000000, 6.000000)">
                                    <path d="M4.477,6.985 C3.027,6.985 1.846,5.807 1.846,4.359 C1.846,2.914 3.027,1.738 4.477,1.738 C5.921,1.738 7.096,2.914 7.096,4.359 C7.096,5.808 5.921,6.985 4.477,6.985 L4.477,6.985 Z" id="Shape" fill="#33A8DF"></path>
                                    <path d="M4.477,2.738 C5.369,2.738 6.096,3.465 6.096,4.359 C6.096,5.255 5.368,5.985 4.477,5.985 C3.577,5.985 2.846,5.256 2.846,4.359 C2.846,3.465 3.576,2.738 4.477,2.738 L4.477,2.738 Z M4.477,0.738 C2.47,0.738 0.846,2.36 0.846,4.359 C0.846,6.363 2.47,7.985 4.477,7.985 C6.469,7.985 8.096,6.363 8.096,4.359 C8.096,2.36 6.469,0.738 4.477,0.738 L4.477,0.738 L4.477,0.738 Z" id="Shape" fill="#FFFFFF"></path>
                                </g>
                                <g id="XMLID_2893_" transform="translate(26.000000, 17.000000)">
                                    <path d="M10.088,18.094 C5.408,18.094 1.602,14.286 1.602,9.607 C1.602,4.928 5.409,1.123 10.088,1.123 C14.769,1.123 18.576,4.929 18.576,9.607 C18.576,14.286 14.769,18.094 10.088,18.094 L10.088,18.094 Z" id="Shape" fill="#33A8DF"></path>
                                    <path d="M10.088,2.122 C14.217,2.122 17.576,5.479 17.576,9.606 C17.576,13.734 14.217,17.093 10.088,17.093 C5.96,17.093 2.602,13.734 2.602,9.606 C2.602,5.479 5.96,2.122 10.088,2.122 L10.088,2.122 Z M10.088,0.122 C4.848,0.122 0.602,4.368 0.602,9.606 C0.602,14.848 4.848,19.093 10.088,19.093 C15.326,19.093 19.576,14.848 19.576,9.606 C19.576,4.368 15.326,0.122 10.088,0.122 L10.088,0.122 L10.088,0.122 Z" id="Shape" fill="#FFFFFF"></path>
                                </g>
                            </g>
                            <rect id="XMLID_2889_" stroke="#FFFFFF" stroke-width="2" fill="#33A8DF" x="11.031" y="49" width="40.814" height="34.976"></rect>
                            <path d="M51.846,58.713 L11.031,58.713" id="XMLID_2888_" stroke="#FFFFFF" stroke-width="2" fill="#33A8DF"></path>
                            <path d="M51.846,66.204 L11.031,66.204" id="XMLID_2886_" stroke="#FFFFFF" stroke-width="2" fill="#33A8DF"></path>
                            <path d="M51.846,74.264 L11.031,74.264" id="XMLID_2885_" stroke="#FFFFFF" stroke-width="2" fill="#33A8DF"></path>
                        </g>
                    </g>
                </g>
            </g>
        </g>
    </g>
</svg>