<?xml version="1.0" encoding="UTF-8"?>
<svg width="86px" height="86px" viewBox="0 0 86 86" version="1.1" xmlns="http://www.w3.org/2000/svg" xmlns:xlink="http://www.w3.org/1999/xlink">
    <!-- Generator: Sketch 40.3 (33839) - http://www.bohemiancoding.com/sketch -->
    <title>Group 6</title>
    <desc>Created with Sketch.</desc>
    <defs></defs>
    <g id="Page-1" stroke="none" stroke-width="1" fill="none" fill-rule="evenodd">
        <g id="[2016.10.17]-iPrepare_All-Desktop-(NoDisaster)" transform="translate(-2060.000000, -4792.000000)">
            <g id="draft">
                <g id="Group-6" transform="translate(2060.000000, 4792.000000)">
                    <circle id="XMLID_465_" fill="#F2F2F2" cx="43" cy="43.25" r="42.336"></circle>
                    <g id="XMLID_466_" transform="translate(14.000000, 18.000000)" fill="#053576">
                        <g id="XMLID_467_">
                            <path d="M20.993,34.461 C20.777,34.461 20.561,34.405 20.368,34.294 L1.473,23.385 C1.086,23.162 0.848,22.749 0.848,22.302 C0.848,21.855 1.087,21.443 1.473,21.219 L36.382,1.065 C36.769,0.841 37.245,0.841 37.632,1.065 L56.527,11.974 C56.914,12.197 57.152,12.61 57.152,13.057 C57.152,13.504 56.914,13.916 56.527,14.14 L21.618,34.295 C21.425,34.405 21.209,34.461 20.993,34.461 L20.993,34.461 Z M4.598,22.302 L20.994,31.768 L53.403,13.057 L37.008,3.592 L4.598,22.302 L4.598,22.302 Z" id="XMLID_468_"></path>
                        </g>
                        <g id="XMLID_471_" transform="translate(0.000000, 19.000000)">
                            <path d="M20.993,23.284 C20.777,23.284 20.561,23.228 20.368,23.117 L1.473,12.208 C0.875,11.863 0.67,11.098 1.015,10.5 C1.36,9.902 2.126,9.698 2.723,10.042 L20.993,20.59 L55.277,0.797 C55.874,0.452 56.639,0.656 56.985,1.255 C57.33,1.853 57.125,2.617 56.527,2.963 L21.618,23.117 C21.425,23.228 21.209,23.284 20.993,23.284 L20.993,23.284 Z" id="XMLID_472_"></path>
                        </g>
                        <g id="XMLID_473_" transform="translate(0.000000, 27.000000)">
                            <path d="M20.993,23.107 C20.777,23.107 20.561,23.051 20.368,22.94 L1.473,12.031 C0.875,11.686 0.67,10.921 1.015,10.323 C1.36,9.725 2.126,9.521 2.723,9.865 L20.993,20.413 L55.277,0.62 C55.874,0.275 56.639,0.479 56.985,1.078 C57.33,1.676 57.125,2.44 56.527,2.786 L21.618,22.94 C21.425,23.052 21.209,23.107 20.993,23.107 L20.993,23.107 Z" id="XMLID_474_"></path>
                        </g>
                    </g>
                </g>
            </g>
        </g>
    </g>
</svg>