<?xml version="1.0" encoding="utf-8"?>
<!-- Generator: Adobe Illustrator 16.0.0, SVG Export Plug-In . SVG Version: 6.00 Build 0)  -->
<!DOCTYPE svg PUBLIC "-//W3C//DTD SVG 1.0//EN" "http://www.w3.org/TR/2001/REC-SVG-20010904/DTD/svg10.dtd">
<svg version="1.0" id="Layer_1" xmlns="http://www.w3.org/2000/svg" xmlns:xlink="http://www.w3.org/1999/xlink" x="0px" y="0px"
	 width="204.371px" height="168.516px" viewBox="0 0 204.371 168.516" enable-background="new 0 0 204.371 168.516"
	 xml:space="preserve">
<g id="XMLID_4571_">
	<g id="XMLID_4620_">
		<g id="XMLID_4639_">
			<path id="XMLID_4643_" fill="#29A9E0" d="M55.465,48.368c-55.004,0,0,22.828,0,22.828s-55.004,22.821,0,22.821
				c56.165,0,78.303,14.137,78.303,14.137V71.196V34.23C133.768,34.23,111.63,48.368,55.465,48.368z"/>
			<path id="XMLID_4640_" fill="#FFFFFF" d="M133.768,109.657c-0.282,0-0.561-0.077-0.808-0.233
				c-0.22-0.139-22.558-13.9-77.495-13.9c-16.982,0-24.96-2.039-25.869-6.605c-1.278-6.391,13.873-14.074,22.062-17.722
				c-8.189-3.65-23.341-11.335-22.062-17.726c0.909-4.571,8.887-6.607,25.869-6.607c54.938,0,77.275-13.764,77.495-13.902
				c0.458-0.297,1.047-0.315,1.533-0.05c0.478,0.265,0.779,0.771,0.779,1.319v73.924c0,0.549-0.302,1.055-0.779,1.318
				C134.266,109.595,134.018,109.657,133.768,109.657z M132.262,36.778c-7.002,3.541-30.209,13.096-76.797,13.096
				c-20.491,0-22.726,3.201-22.917,4.185c-0.683,3.42,11.662,10.835,23.493,15.747c0.561,0.233,0.93,0.78,0.93,1.39
				c0,0.609-0.369,1.156-0.93,1.39c-11.827,4.912-24.176,12.325-23.493,15.743c0.191,0.979,2.426,4.183,22.917,4.183
				c46.588,0,69.795,9.555,76.797,13.094V36.778z"/>
		</g>
		<g id="XMLID_4634_">
			<rect id="XMLID_4638_" x="40.337" y="48.327" fill="#29A9E0" width="15.128" height="45.731"/>
			<path id="XMLID_4635_" fill="#FFFFFF" d="M55.465,95.564H40.337c-0.835,0-1.505-0.673-1.505-1.506V48.327
				c0-0.831,0.67-1.505,1.505-1.505h15.128c0.831,0,1.506,0.674,1.506,1.505v45.731C56.971,94.891,56.296,95.564,55.465,95.564z
				 M41.843,92.552H53.96v-42.72H41.843V92.552z"/>
		</g>
		<g id="XMLID_4631_">
			<polyline id="XMLID_4633_" fill="#29A9E0" points="31.729,123.166 40.337,94.058 55.465,94.058 45.833,126.623 			"/>
			<path id="XMLID_4632_" fill="#FFFFFF" d="M45.833,128.127c-0.141,0-0.286-0.021-0.427-0.063c-0.796-0.235-1.251-1.074-1.016-1.87
				l9.06-30.63H41.458l-8.287,28.027c-0.235,0.799-1.082,1.258-1.87,1.02c-0.796-0.236-1.254-1.074-1.02-1.871l8.609-29.107
				c0.188-0.641,0.776-1.08,1.446-1.08h15.128c0.475,0,0.922,0.225,1.204,0.604c0.286,0.382,0.376,0.874,0.238,1.327l-9.632,32.562
				C47.084,127.703,46.483,128.127,45.833,128.127z"/>
		</g>
		<g id="XMLID_4628_">
			<path id="XMLID_4630_" fill="#29A9E0" d="M45.841,126.623c-0.58,3.459-3.583,6.093-7.205,6.093c-4.038,0-7.307-3.27-7.307-7.304
				c0-0.787,0.125-1.545,0.355-2.258"/>
			<path id="XMLID_4629_" fill="#FFFFFF" d="M38.636,134.22c-4.861,0-8.812-3.951-8.812-8.809c0-0.927,0.145-1.844,0.431-2.727
				c0.259-0.789,1.105-1.223,1.897-0.962c0.792,0.257,1.224,1.107,0.965,1.899c-0.188,0.577-0.282,1.18-0.282,1.789
				c0,3.197,2.603,5.799,5.802,5.799c2.846,0,5.253-2.035,5.72-4.835c0.138-0.825,0.937-1.386,1.729-1.239
				c0.823,0.137,1.376,0.91,1.239,1.732C46.617,131.127,42.96,134.22,38.636,134.22z"/>
		</g>
		<g id="XMLID_4622_">
			<path id="XMLID_4627_" fill="#29A9E0" d="M40.337,48.327c-12.627,0-22.866,10.237-22.866,22.869
				c0,12.624,10.239,22.862,22.866,22.862V48.327z"/>
			<path id="XMLID_4624_" fill="#FFFFFF" d="M40.337,95.564c-13.442,0-24.372-10.932-24.372-24.368
				c0-13.441,10.93-24.374,24.372-24.374c0.831,0,1.506,0.674,1.506,1.505v45.731C41.843,94.891,41.168,95.564,40.337,95.564z
				 M38.832,49.885C27.753,50.66,18.976,59.921,18.976,71.196c0,11.271,8.777,20.53,19.856,21.306V49.885z"/>
		</g>
	</g>
	<g id="XMLID_4617_">
		<line id="XMLID_4619_" fill="#29A9E0" x1="18.321" y1="64.868" x2="26.225" y2="64.868"/>
		<path id="XMLID_4618_" fill="#FFFFFF" d="M26.225,66.374h-7.903c-0.831,0-1.506-0.672-1.506-1.505s0.675-1.505,1.506-1.505h7.903
			c0.831,0,1.505,0.672,1.505,1.505S27.056,66.374,26.225,66.374z"/>
	</g>
	<g id="XMLID_4614_">
		<line id="XMLID_4616_" fill="#29A9E0" x1="17.463" y1="71.066" x2="26.225" y2="71.066"/>
		<path id="XMLID_4615_" fill="#FFFFFF" d="M26.225,72.571h-8.762c-0.831,0-1.506-0.672-1.506-1.505
			c0-0.833,0.675-1.505,1.506-1.505h8.762c0.831,0,1.505,0.672,1.505,1.505C27.729,71.899,27.056,72.571,26.225,72.571z"/>
	</g>
	<g id="XMLID_4611_">
		<line id="XMLID_4613_" fill="#29A9E0" x1="18.321" y1="77.258" x2="26.225" y2="77.258"/>
		<path id="XMLID_4612_" fill="#FFFFFF" d="M26.225,78.764h-7.903c-0.831,0-1.506-0.674-1.506-1.505s0.675-1.505,1.506-1.505h7.903
			c0.831,0,1.505,0.674,1.505,1.505S27.056,78.764,26.225,78.764z"/>
	</g>
	<g id="XMLID_4572_">
		<g id="XMLID_4606_">
			<g id="XMLID_4607_">
				<g id="XMLID_4608_">
					<line id="XMLID_4610_" fill="#29A9E0" x1="168.998" y1="71.066" x2="197.643" y2="71.066"/>
					<path id="XMLID_4609_" fill="#FFFFFF" d="M197.643,72.571h-28.645c-0.835,0-1.506-0.672-1.506-1.505
						c0-0.833,0.671-1.505,1.506-1.505h28.645c0.831,0,1.506,0.672,1.506,1.505C199.148,71.899,198.474,72.571,197.643,72.571z"/>
				</g>
			</g>
		</g>
		<g id="XMLID_4584_">
			<g id="XMLID_4602_">
				<g id="XMLID_4603_">
					<line id="XMLID_4605_" fill="#29A9E0" x1="165.521" y1="58.094" x2="190.332" y2="43.77"/>
					<path id="XMLID_4604_" fill="#FFFFFF" d="M165.521,59.6c-0.517,0-1.027-0.269-1.301-0.753c-0.42-0.718-0.173-1.64,0.548-2.055
						l24.812-14.325c0.714-0.416,1.639-0.174,2.054,0.551c0.416,0.719,0.169,1.641-0.548,2.056l-24.812,14.324
						C166.035,59.535,165.775,59.6,165.521,59.6z"/>
				</g>
			</g>
			<g id="XMLID_4585_">
				<g id="XMLID_4586_">
					<line id="XMLID_4601_" fill="#29A9E0" x1="170.347" y1="118.345" x2="156.022" y2="93.541"/>
					<path id="XMLID_4600_" fill="#FFFFFF" d="M170.347,119.85c-0.518,0-1.023-0.27-1.302-0.753l-14.324-24.804
						c-0.416-0.72-0.169-1.641,0.549-2.056c0.714-0.416,1.643-0.175,2.058,0.551l14.328,24.804c0.412,0.718,0.166,1.64-0.556,2.055
						C170.864,119.785,170.605,119.85,170.347,119.85z"/>
				</g>
			</g>
		</g>
		<g id="XMLID_4574_">
			<g id="XMLID_4580_">
				<g id="XMLID_4581_">
					<line id="XMLID_4583_" fill="#29A9E0" x1="156.022" y1="48.599" x2="170.347" y2="23.789"/>
					<path id="XMLID_4582_" fill="#FFFFFF" d="M156.022,50.104c-0.255,0-0.514-0.066-0.753-0.203
						c-0.718-0.416-0.965-1.334-0.549-2.055l14.324-24.81c0.412-0.719,1.341-0.962,2.055-0.551c0.722,0.416,0.964,1.337,0.549,2.056
						l-14.321,24.81C157.049,49.833,156.539,50.104,156.022,50.104z"/>
				</g>
			</g>
			<g id="XMLID_4576_">
				<g id="XMLID_4577_">
					<line id="XMLID_4579_" fill="#29A9E0" x1="190.332" y1="98.363" x2="165.524" y2="84.044"/>
					<path id="XMLID_4578_" fill="#FFFFFF" d="M190.332,99.868c-0.259,0-0.518-0.064-0.753-0.202l-24.807-14.318
						c-0.718-0.415-0.965-1.334-0.55-2.057c0.416-0.721,1.341-0.96,2.055-0.55l24.808,14.318c0.717,0.415,0.964,1.337,0.548,2.056
						C191.354,99.597,190.85,99.868,190.332,99.868z"/>
				</g>
			</g>
		</g>
	</g>
</g>
</svg>
