<?xml version="1.0" encoding="utf-8"?>
<!-- Generator: Adobe Illustrator 16.0.0, SVG Export Plug-In . SVG Version: 6.00 Build 0)  -->
<!DOCTYPE svg PUBLIC "-//W3C//DTD SVG 1.0//EN" "http://www.w3.org/TR/2001/REC-SVG-20010904/DTD/svg10.dtd">
<svg version="1.0" id="Layer_1" xmlns="http://www.w3.org/2000/svg" xmlns:xlink="http://www.w3.org/1999/xlink" x="0px" y="0px"
	 width="204.371px" height="168.516px" viewBox="0 0 204.371 168.516" enable-background="new 0 0 204.371 168.516"
	 xml:space="preserve">
<g id="XMLID_4488_">
	<g id="XMLID_4531_">
		<g id="XMLID_4566_">
			<path id="XMLID_4570_" fill="#29A9E0" d="M75.653,36.309v-0.333c0-2.742-2.223-4.967-4.971-4.967H28.615h-0.004
				c-2.74,0-4.963,2.225-4.963,4.967v0.333l0,0v82.081c0,6.14,4.967,11.106,11.105,11.106h94.082h0.003
				c6.136,0,11.103-4.967,11.103-11.106V36.309H75.653z"/>
			<path id="XMLID_4567_" fill="#FFFFFF" d="M128.839,131.001H34.754c-6.954,0-12.611-5.656-12.611-12.611V35.976
				c0-3.567,2.901-6.472,6.469-6.472h42.071c3.172,0,5.818,2.288,6.37,5.3h62.889c0.831,0,1.505,0.674,1.505,1.505v82.081
				C141.446,125.345,135.792,131.001,128.839,131.001z M28.615,32.515c-1.909,0-3.462,1.552-3.462,3.461v82.414
				c0,5.296,4.309,9.602,9.601,9.602h94.085c5.292,0,9.597-4.306,9.597-9.602V37.814H75.653c-0.835,0-1.505-0.674-1.505-1.505
				v-0.333c0-1.909-1.553-3.461-3.466-3.461H28.615z"/>
		</g>
		<g id="XMLID_4540_">
			<g id="XMLID_4561_">
				<polygon id="XMLID_4565_" fill="#29A9E0" points="124.978,48.858 124.978,92.873 38.619,92.873 38.619,60.76 50.521,48.858 				
					"/>
				<path id="XMLID_4562_" fill="#FFFFFF" d="M124.978,94.377H38.619c-0.831,0-1.505-0.673-1.505-1.505V60.76
					c0-0.4,0.156-0.782,0.438-1.064l11.902-11.902c0.282-0.282,0.666-0.441,1.066-0.441h74.456c0.831,0,1.506,0.674,1.506,1.505
					v44.015C126.483,93.705,125.809,94.377,124.978,94.377z M40.126,91.367h83.347V50.363H51.145l-11.019,11.02V91.367z"/>
			</g>
			<g id="XMLID_4541_">
				<g id="XMLID_4542_">
					<polygon id="XMLID_4551_" fill="#29A9E0" points="50.521,48.858 50.521,60.76 38.619,60.76 					"/>
					<path id="XMLID_4548_" fill="#FFFFFF" d="M50.521,62.265H38.619c-0.611,0-1.159-0.367-1.392-0.929
						c-0.23-0.562-0.102-1.209,0.325-1.641l11.902-11.902c0.432-0.431,1.082-0.559,1.643-0.327c0.561,0.233,0.929,0.785,0.929,1.392
						V60.76C52.026,61.59,51.353,62.265,50.521,62.265z M42.254,59.254h6.762v-6.763L42.254,59.254z"/>
				</g>
			</g>
		</g>
		<g id="XMLID_4532_">
			<g id="XMLID_4535_">
				<path id="XMLID_4539_" fill="#29A9E0" d="M128.836,62.271H96.051h-5.99l-9.216,7.595H34.754h-0.003
					c-6.136,0-11.103,4.967-11.103,11.11v37.461c0.023,6.116,4.979,11.06,11.103,11.06h94.085h0.003
					c6.136,0,11.103-4.967,11.103-11.106V73.375C139.941,67.244,134.975,62.271,128.836,62.271z"/>
				<path id="XMLID_4536_" fill="#FFFFFF" d="M128.839,131.001H34.751c-6.928,0-12.581-5.633-12.608-12.56V80.976
					c0-6.957,5.657-12.615,12.608-12.615h45.552l8.797-7.252c0.271-0.221,0.608-0.343,0.961-0.343h38.775
					c6.956,0,12.61,5.657,12.61,12.609v45.016C141.446,125.345,135.792,131.001,128.839,131.001z M34.754,71.372
					c-5.292,0-9.601,4.31-9.601,9.604v37.461c0.02,5.266,4.324,9.555,9.598,9.555h94.088c5.292,0,9.597-4.306,9.597-9.602V73.375
					c0-5.292-4.305-9.598-9.6-9.598H90.602l-8.797,7.25c-0.271,0.223-0.611,0.345-0.96,0.345H34.754z"/>
			</g>
		</g>
	</g>
	<g id="XMLID_4489_">
		<g id="XMLID_4513_">
			<g id="XMLID_4514_">
				<g id="XMLID_4515_">
					<g id="XMLID_4516_">
						<line id="XMLID_4530_" fill="#29A9E0" x1="160.812" y1="36.309" x2="189.458" y2="36.309"/>
						<path id="XMLID_4517_" fill="#FFFFFF" d="M189.458,37.814h-28.646c-0.831,0-1.506-0.674-1.506-1.505s0.675-1.505,1.506-1.505
							h28.646c0.83,0,1.505,0.674,1.505,1.505S190.288,37.814,189.458,37.814z"/>
					</g>
				</g>
			</g>
		</g>
		<g id="XMLID_4507_">
			<g id="XMLID_4508_">
				<g id="XMLID_4509_">
					<g id="XMLID_4510_">
						<line id="XMLID_4512_" fill="#29A9E0" x1="160.812" y1="55.009" x2="183.432" y2="55.009"/>
						<path id="XMLID_4511_" fill="#FFFFFF" d="M183.432,56.514h-22.619c-0.831,0-1.506-0.674-1.506-1.505s0.675-1.505,1.506-1.505
							h22.619c0.831,0,1.506,0.674,1.506,1.505S184.263,56.514,183.432,56.514z"/>
					</g>
				</g>
			</g>
		</g>
		<g id="XMLID_4498_">
			<g id="XMLID_4499_">
				<g id="XMLID_4501_">
					<g id="XMLID_4502_">
						<line id="XMLID_4506_" fill="#29A9E0" x1="160.812" y1="73.606" x2="174.388" y2="73.606"/>
						<path id="XMLID_4503_" fill="#FFFFFF" d="M174.388,75.112h-13.575c-0.831,0-1.506-0.675-1.506-1.506
							c0-0.833,0.675-1.505,1.506-1.505h13.575c0.836,0,1.506,0.672,1.506,1.505C175.894,74.437,175.224,75.112,174.388,75.112z"/>
					</g>
				</g>
			</g>
		</g>
	</g>
</g>
</svg>
