<?xml version="1.0" encoding="UTF-8"?>
<svg width="399px" height="285px" viewBox="0 0 399 285" version="1.1" xmlns="http://www.w3.org/2000/svg" xmlns:xlink="http://www.w3.org/1999/xlink">
    <!-- Generator: Sketch 40.3 (33839) - http://www.bohemiancoding.com/sketch -->
    <title>XMLID_1622_</title>
    <desc>Created with Sketch.</desc>
    <defs></defs>
    <g id="Page-1" stroke="none" stroke-width="1" fill="none" fill-rule="evenodd">
        <g id="[2016.10.17]-iPrepare_All-Desktop-(NoDisaster)" transform="translate(-8696.000000, -7771.000000)">
            <g id="draft">
                <g id="Group" transform="translate(8500.000000, 6149.000000)">
                    <g id="XMLID_1622_" transform="translate(197.000000, 1623.000000)">
                        <polyline id="XMLID_4425_" stroke="#FFFFFF" stroke-width="2" fill="#35A6DE" points="33.382 31.073 396.576 31.073 396.576 282.691 33.382 282.691"></polyline>
                        <path d="M0.697,232.287 C0.697,250.348 15.327,264.975 33.382,264.975 L379.656,264.975 L379.656,50.748 L33.382,50.748" id="XMLID_4424_" stroke="#FFFFFF" stroke-width="2" fill="#35A6DE"></path>
                        <path d="M0.697,250.004 L0.697,32.852 C0.697,14.804 15.327,0.173 33.382,0.173 C51.439,0.173 66.068,14.804 66.068,32.852 L66.068,250.004 C66.068,231.953 51.439,217.322 33.382,217.322 C15.327,217.322 0.697,231.953 0.697,250.004 C0.697,268.066 15.327,282.692 33.382,282.692" id="XMLID_4422_" stroke="#FFFFFF" stroke-width="2" fill="#35A6DE"></path>
                        <g id="XMLID_4387_" transform="translate(82.000000, 170.000000)">
                            <g id="XMLID_4400_" transform="translate(66.000000, 0.000000)">
                                <rect id="XMLID_4421_" stroke="#FFFFFF" stroke-width="2" fill="#35A6DE" x="81.828" y="41.788" width="46.579" height="27.609"></rect>
                                <rect id="XMLID_4420_" stroke="#FFFFFF" stroke-width="2" fill="#35A6DE" x="9.959" y="18.98" width="46.584" height="50.417"></rect>
                                <g id="XMLID_4416_" transform="translate(0.000000, 51.000000)" stroke="#FFFFFF" stroke-width="2" fill="#35A6DE">
                                    <rect id="XMLID_4419_" x="11.081" y="0.939" width="24.168" height="17.458"></rect>
                                    <rect id="XMLID_4418_" x="0.334" y="0.939" width="14.769" height="17.458"></rect>
                                    <rect id="XMLID_4417_" x="20.625" y="7.653" width="9.749" height="10.744"></rect>
                                </g>
                                <rect id="XMLID_4415_" stroke="#FFFFFF" stroke-width="2" fill="#35A6DE" x="35.25" y="18.98" width="46.579" height="50.417"></rect>
                                <rect id="XMLID_4414_" fill="#FFFFFF" x="41.322" y="54.972" width="3.107" height="4.135"></rect>
                                <rect id="XMLID_4413_" fill="#FFFFFF" x="73.621" y="54.972" width="3.103" height="4.135"></rect>
                                <g id="XMLID_4411_" transform="translate(47.000000, 54.000000)" stroke="#FFFFFF" stroke-width="2" fill="#35A6DE">
                                    <rect id="XMLID_4412_" x="0.82" y="0.912" width="22.763" height="14.485"></rect>
                                </g>
                                <g id="XMLID_4409_" transform="translate(92.000000, 54.000000)" stroke="#FFFFFF" stroke-width="2" fill="#35A6DE">
                                    <rect id="XMLID_4410_" x="0.24" y="0.912" width="29.588" height="14.485"></rect>
                                </g>
                                <polygon id="XMLID_4408_" stroke="#FFFFFF" stroke-width="2" fill="#35A6DE" points="123.417 34.684 81.828 34.684 81.828 41.788 128.407 41.788"></polygon>
                                <rect id="XMLID_4407_" stroke="#FFFFFF" stroke-width="2" fill="#35A6DE" x="35.03" y="5.665" width="6.006" height="13.315"></rect>
                                <rect id="XMLID_4406_" stroke="#FFFFFF" stroke-width="2" fill="#35A6DE" x="22.708" y="0.196" width="6.008" height="18.784"></rect>
                                <g id="XMLID_4402_" transform="translate(21.000000, 38.000000)">
                                    <rect id="Rectangle-path" fill="#35A6DE" x="1.156" y="1.919" width="1.105" height="2.141"></rect>
                                    <polygon id="Shape" fill="#FFFFFF" points="3.262 0.919 0.156 0.919 0.156 5.06 3.262 5.06"></polygon>
                                </g>
                                <rect id="XMLID_4401_" fill="#FFFFFF" x="21.156" y="28.504" width="3.105" height="4.141"></rect>
                            </g>
                            <g id="XMLID_4388_" transform="translate(0.000000, 17.000000)">
                                <path d="M48.91,24.311 C48.91,37.696 38.061,48.547 24.678,48.547 C11.295,48.547 0.449,37.695 0.449,24.311 C0.449,10.933 11.296,0.083 24.678,0.083 C38.062,0.083 48.91,10.933 48.91,24.311 L48.91,24.311 Z" id="XMLID_4399_" stroke="#FFFFFF" stroke-width="2" fill="#35A6DE"></path>
                                <g id="XMLID_4389_" transform="translate(17.000000, 13.000000)" fill="#FFFFFF">
                                    <path d="M14.461,22.062 L0.756,22.062 L0.756,20.025 L6.244,14.5 C7.921,12.809 9.022,11.599 9.558,10.879 C10.091,10.155 10.487,9.45 10.751,8.768 C11.017,8.084 11.15,7.342 11.15,6.555 C11.15,5.446 10.818,4.559 10.136,3.909 C9.466,3.261 8.528,2.933 7.329,2.933 C6.459,2.933 5.641,3.074 4.866,3.364 C4.09,3.643 3.229,4.166 2.28,4.915 L1.021,3.305 C2.944,1.708 5.04,0.906 7.299,0.906 C9.258,0.906 10.792,1.411 11.909,2.414 C13.018,3.419 13.576,4.762 13.576,6.459 C13.576,7.777 13.206,9.083 12.463,10.38 C11.72,11.674 10.334,13.312 8.299,15.288 L3.73,19.751 L3.73,19.865 L14.459,19.865 L14.459,22.062 L14.461,22.062 Z" id="XMLID_4390_"></path>
                                </g>
                            </g>
                        </g>
                        <g id="XMLID_1644_" transform="translate(82.000000, 77.000000)">
                            <g id="XMLID_4374_" transform="translate(71.000000, 0.000000)" stroke-width="2" stroke="#FFFFFF" fill="#35A6DE">
                                <g id="XMLID_4375_">
                                    <circle id="XMLID_4386_" cx="12.305" cy="39.677" r="6.506"></circle>
                                    <path d="M94.25,25.116 C93.545,23.744 90.958,18.833 89.337,16.038 C87.727,13.233 86.888,12.117 84.41,12.117 L74.309,12.117 L74.309,33.284 L4.204,33.284 L4.204,39.797 L74.094,39.797 L87.36,39.797 L94.572,39.797 C94.571,39.797 94.683,25.954 94.25,25.116 L94.25,25.116 Z" id="XMLID_4385_"></path>
                                    <rect id="XMLID_4384_" x="0.947" y="0.723" width="22.793" height="32.561"></rect>
                                    <rect id="XMLID_4383_" x="23.74" y="0.723" width="50.569" height="32.561"></rect>
                                    <g id="XMLID_4381_" transform="translate(79.000000, 33.000000)">
                                        <path d="M13.05,6.797 C13.05,10.393 10.141,13.302 6.545,13.302 C2.948,13.302 0.038,10.393 0.038,6.797 C0.038,3.207 2.948,0.292 6.545,0.292 C10.141,0.292 13.05,3.207 13.05,6.797 L13.05,6.797 Z" id="XMLID_4382_"></path>
                                    </g>
                                    <g id="XMLID_4379_" transform="translate(29.000000, 33.000000)">
                                        <path d="M13.284,6.797 C13.284,10.393 10.377,13.302 6.782,13.302 C3.191,13.302 0.277,10.393 0.277,6.797 C0.277,3.207 3.191,0.292 6.782,0.292 C10.377,0.292 13.284,3.207 13.284,6.797 L13.284,6.797 Z" id="XMLID_4380_"></path>
                                    </g>
                                    <g id="XMLID_4377_" transform="translate(44.000000, 33.000000)">
                                        <path d="M13.442,6.797 C13.442,10.393 10.531,13.302 6.939,13.302 C3.347,13.302 0.434,10.393 0.434,6.797 C0.434,3.207 3.347,0.292 6.939,0.292 C10.531,0.292 13.442,3.207 13.442,6.797 L13.442,6.797 Z" id="XMLID_4378_"></path>
                                    </g>
                                    <path d="M79.038,24.595 L88.482,24.595 C88.482,24.595 86.22,19.661 85.766,18.836 C85.31,18.013 84.611,16.455 82.965,16.455 L79.037,16.455 L79.037,24.595 L79.038,24.595 Z" id="XMLID_4376_"></path>
                                </g>
                            </g>
                            <g id="XMLID_4361_" transform="translate(94.000000, 21.000000)" stroke-width="2" stroke="#FFFFFF" fill="#35A6DE">
                                <g id="XMLID_4362_">
                                    <path d="M18.601,39.689 C18.601,43.276 15.69,46.186 12.094,46.186 C8.507,46.186 5.593,43.276 5.593,39.689 C5.593,36.094 8.507,33.178 12.094,33.178 C15.689,33.179 18.601,36.094 18.601,39.689 L18.601,39.689 Z" id="XMLID_4373_"></path>
                                    <path d="M94.045,25.126 C93.334,23.754 90.749,18.843 89.127,16.048 C87.515,13.247 86.678,12.13 84.2,12.13 L74.101,12.13 L74.101,33.293 L3.993,33.293 L3.993,39.807 L73.885,39.807 L87.156,39.807 L94.368,39.807 C94.368,39.807 94.478,25.966 94.045,25.126 L94.045,25.126 Z" id="XMLID_4372_"></path>
                                    <rect id="XMLID_4371_" x="0.74" y="0.731" width="22.791" height="32.561"></rect>
                                    <rect id="XMLID_4370_" x="23.531" y="0.731" width="50.57" height="32.561"></rect>
                                    <g id="XMLID_4368_" transform="translate(78.000000, 33.000000)">
                                        <path d="M13.841,6.807 C13.841,10.399 10.935,13.308 7.342,13.308 C3.746,13.308 0.833,10.399 0.833,6.807 C0.833,3.214 3.746,0.304 7.342,0.304 C10.935,0.304 13.841,3.213 13.841,6.807 L13.841,6.807 Z" id="XMLID_4369_"></path>
                                    </g>
                                    <g id="XMLID_4366_" transform="translate(29.000000, 33.000000)">
                                        <path d="M13.078,6.807 C13.078,10.399 10.169,13.308 6.576,13.308 C2.983,13.308 0.074,10.399 0.074,6.807 C0.074,3.214 2.983,0.304 6.576,0.304 C10.169,0.304 13.078,3.213 13.078,6.807 L13.078,6.807 Z" id="XMLID_4367_"></path>
                                    </g>
                                    <g id="XMLID_4364_" transform="translate(44.000000, 33.000000)">
                                        <path d="M13.235,6.807 C13.235,10.399 10.324,13.308 6.729,13.308 C3.144,13.308 0.226,10.399 0.226,6.807 C0.226,3.214 3.144,0.304 6.729,0.304 C10.324,0.304 13.235,3.213 13.235,6.807 L13.235,6.807 Z" id="XMLID_4365_"></path>
                                    </g>
                                    <path d="M78.833,24.608 L88.278,24.608 C88.278,24.608 86.009,19.67 85.561,18.845 C85.105,18.02 84.403,16.458 82.757,16.458 L78.832,16.458 L78.832,24.608 L78.833,24.608 Z" id="XMLID_4363_"></path>
                                </g>
                            </g>
                            <g id="XMLID_1645_">
                                <path d="M48.91,24.594 C48.91,37.975 38.061,48.829 24.678,48.829 C11.295,48.829 0.449,37.975 0.449,24.594 C0.449,11.211 11.296,0.368 24.678,0.368 C38.062,0.368 48.91,11.211 48.91,24.594 L48.91,24.594 Z" id="XMLID_4360_" stroke="#FFFFFF" stroke-width="2" fill="#35A6DE"></path>
                                <g id="XMLID_1646_" transform="translate(19.000000, 14.000000)" fill="#FFFFFF">
                                    <path d="M7.53,21.339 L5.216,21.339 L5.216,6.478 C5.216,5.244 5.253,4.075 5.331,2.969 C5.127,3.17 4.906,3.382 4.659,3.594 C4.412,3.818 3.278,4.743 1.265,6.376 L0.009,4.751 L5.53,0.488 L7.53,0.488 L7.53,21.339 L7.53,21.339 Z" id="XMLID_4337_"></path>
                                </g>
                            </g>
                        </g>
                        <g id="XMLID_1635_" transform="translate(291.000000, 83.000000)" stroke="#FFFFFF" stroke-width="2" fill="#35A6DE">
                            <circle id="XMLID_1643_" cx="3.594" cy="3.829" r="3.273"></circle>
                            <path d="M13.557,3.829 L57.103,3.829" id="XMLID_1642_"></path>
                            <path d="M13.557,19.957 L45.788,19.957" id="XMLID_1641_"></path>
                            <path d="M13.557,12.156 L65.641,12.156" id="XMLID_1640_"></path>
                            <path d="M6.867,36.47 C6.867,38.279 5.402,39.743 3.594,39.743 C1.788,39.743 0.322,38.279 0.322,36.47 C0.322,34.665 1.789,33.2 3.594,33.2 C5.402,33.2 6.867,34.665 6.867,36.47 L6.867,36.47 Z" id="XMLID_1639_"></path>
                            <path d="M13.557,36.47 L57.103,36.47" id="XMLID_1638_"></path>
                            <path d="M13.557,52.601 L45.788,52.601" id="XMLID_1637_"></path>
                            <path d="M13.557,44.8 L65.641,44.8" id="XMLID_1636_"></path>
                        </g>
                        <g id="XMLID_1623_" transform="translate(291.000000, 184.000000)" stroke="#FFFFFF" stroke-width="2" fill="#35A6DE">
                            <path d="M6.867,3.53 C6.867,5.343 5.402,6.805 3.594,6.805 C1.788,6.805 0.322,5.343 0.322,3.53 C0.322,1.724 1.789,0.26 3.594,0.26 C5.402,0.261 6.867,1.725 6.867,3.53 L6.867,3.53 Z" id="XMLID_1634_"></path>
                            <path d="M13.557,3.53 L57.103,3.53" id="XMLID_1633_"></path>
                            <path d="M13.557,19.661 L45.788,19.661" id="XMLID_1632_"></path>
                            <path d="M13.557,11.859 L65.641,11.859" id="XMLID_1629_"></path>
                            <path d="M6.867,36.179 C6.867,37.987 5.402,39.448 3.594,39.448 C1.788,39.448 0.322,37.987 0.322,36.179 C0.322,34.367 1.789,32.903 3.594,32.903 C5.402,32.902 6.867,34.366 6.867,36.179 L6.867,36.179 Z" id="XMLID_1627_"></path>
                            <path d="M13.557,36.179 L57.103,36.179" id="XMLID_1626_"></path>
                            <path d="M13.557,52.307 L45.788,52.307" id="XMLID_1625_"></path>
                            <path d="M13.557,44.505 L65.641,44.505" id="XMLID_1624_"></path>
                        </g>
                    </g>
                </g>
            </g>
        </g>
    </g>
</svg>