<?xml version="1.0" encoding="utf-8"?>
<!-- Generator: Adobe Illustrator 16.0.0, SVG Export Plug-In . SVG Version: 6.00 Build 0)  -->
<!DOCTYPE svg PUBLIC "-//W3C//DTD SVG 1.0//EN" "http://www.w3.org/TR/2001/REC-SVG-20010904/DTD/svg10.dtd">
<svg version="1.0" id="Layer_1" xmlns="http://www.w3.org/2000/svg" xmlns:xlink="http://www.w3.org/1999/xlink" x="0px" y="0px"
	 width="204.371px" height="168.516px" viewBox="0 0 204.371 168.516" enable-background="new 0 0 204.371 168.516"
	 xml:space="preserve">
<g id="XMLID_4749_">
	<g id="XMLID_4767_">
		<g id="XMLID_4768_">
			<path id="XMLID_4770_" fill="#29A9E0" d="M49.652,73.69c-4.093,3.199-4.819,9.106-1.619,13.204
				c3.199,4.088,9.106,4.813,13.201,1.615l16.616-12.984L57.332,91.558c-4.092,3.199-4.82,9.111-1.623,13.199
				c3.199,4.098,9.104,4.822,13.204,1.627l20.52-16.033l-16.619,12.984c-4.093,3.198-4.82,9.105-1.621,13.199
				c3.194,4.092,9.11,4.817,13.203,1.618l16.617-12.979L90.355,113.5c-4.094,3.199-4.823,9.107-1.625,13.203
				c3.203,4.094,9.111,4.818,13.206,1.619l30.036-23.466l11.482-8.974h19.352l-8.128-57.325c0,0-1.568,0-7.748,0
				c-11.35,0-18.345-6.37-31.315-6.37c-10.062,0-22.143,7.644-35.538,18.114c-4.093,3.195-4.82,9.107-1.623,13.199
				c3.197,4.093,9.104,4.822,13.197,1.619l8.145-6.414l26.951-6.848"/>
			<path id="XMLID_4769_" fill="#FFFFFF" d="M96.16,131.819c-3.254,0-6.463-1.438-8.613-4.19c-1.799-2.297-2.587-5.155-2.234-8.049
				c0.014-0.086,0.025-0.172,0.035-0.262l-0.027,0.02c-2.295,1.795-5.164,2.595-8.042,2.234c-2.899-0.354-5.482-1.815-7.272-4.108
				c-1.987-2.552-2.671-5.716-2.128-8.671c-4.546,2.187-10.146,1.007-13.358-3.109c-1.792-2.293-2.584-5.151-2.227-8.045
				c0.261-2.112,1.109-4.061,2.448-5.656c-3.001-0.196-5.9-1.615-7.894-4.163c-1.796-2.298-2.586-5.155-2.232-8.049
				c0.351-2.893,1.814-5.472,4.112-7.264c0.646-0.51,1.6-0.4,2.112,0.259c0.512,0.654,0.395,1.6-0.256,2.113
				c-1.667,1.297-2.725,3.167-2.981,5.261c-0.259,2.094,0.319,4.163,1.616,5.829c2.682,3.426,7.665,4.038,11.089,1.356
				l16.619-12.983c0.646-0.51,1.598-0.4,2.111,0.258c0.514,0.655,0.398,1.6-0.261,2.113L58.257,92.747
				c-1.662,1.298-2.717,3.167-2.975,5.261c-0.255,2.094,0.319,4.159,1.609,5.821c2.682,3.435,7.659,4.05,11.094,1.368l3.805-2.971
				c0.033-0.028,0.062-0.052,0.096-0.079l16.62-12.983c0.65-0.51,1.6-0.4,2.112,0.262c0.512,0.651,0.395,1.6-0.261,2.109
				l-16.701,13.051c-3.356,2.697-3.938,7.617-1.276,11.023c1.297,1.662,3.164,2.717,5.257,2.976
				c2.088,0.251,4.165-0.317,5.835-1.619l16.614-12.979c0.645-0.51,1.598-0.4,2.109,0.258c0.515,0.655,0.397,1.604-0.259,2.113
				l-10.655,8.331c-1.662,1.298-2.721,3.167-2.978,5.261c-0.261,2.094,0.313,4.163,1.613,5.829
				c2.686,3.435,7.658,4.038,11.096,1.356l41.519-32.436c0.259-0.208,0.589-0.322,0.924-0.322h17.621l-7.703-54.313h-6.442
				c-5.726,0-10.465-1.58-15.046-3.101c-4.824-1.607-9.814-3.27-16.27-3.27c-10.442,0-23.356,8.997-34.613,17.798
				c-1.662,1.297-2.721,3.164-2.98,5.257c-0.255,2.097,0.317,4.164,1.614,5.826c1.306,1.666,3.17,2.721,5.264,2.979
				c2.124,0.263,4.167-0.317,5.829-1.619l8.134-6.406c0.163-0.133,0.357-0.228,0.563-0.278l26.949-6.849
				c0.819-0.215,1.62,0.282,1.83,1.086c0.207,0.807-0.282,1.626-1.086,1.831l-26.647,6.771l-7.887,6.217
				c-2.3,1.795-5.161,2.587-8.048,2.234c-2.896-0.353-5.478-1.815-7.272-4.112c-1.794-2.293-2.586-5.151-2.229-8.044
				c0.354-2.893,1.818-5.472,4.112-7.268C90.812,40,104.261,30.683,115.615,30.683c6.943,0,12.171,1.739,17.218,3.421
				c4.56,1.517,8.856,2.948,14.098,2.948h7.748c0.748,0,1.382,0.549,1.488,1.293l8.134,57.326c0.061,0.435-0.061,0.87-0.353,1.199
				c-0.288,0.329-0.7,0.518-1.142,0.518h-18.836l-41.105,32.122C100.872,131.062,98.508,131.815,96.16,131.819z"/>
		</g>
	</g>
	<g id="XMLID_4763_">
		<g id="XMLID_4764_">
			<path id="XMLID_4766_" fill="#29A9E0" d="M116.623,43.603c-10.328-7.382-18.826-11.415-27.19-11.415
				c-12.976,0-19.968,6.37-31.316,6.37c-6.181,0-7.746,0-7.746,0l-8.135,57.325H61.59l11.483,8.974l30.037,23.466
				c4.093,3.199,10.007,2.475,13.207-1.619c3.193-4.096,2.466-10.004-1.627-13.203l-10.659-8.326l16.618,12.979
				c4.095,3.199,10.007,2.474,13.205-1.618c3.195-4.094,2.471-10.001-1.625-13.199l-16.614-12.984l20.522,16.033
				c4.091,3.195,9.999,2.471,13.197-1.627c3.197-4.088,2.474-10-1.625-13.199l-20.516-16.033l16.617,12.984
				c4.095,3.198,10.005,2.473,13.203-1.615c3.199-4.098,2.47-10.005-1.622-13.204"/>
			<path id="XMLID_4765_" fill="#FFFFFF" d="M108.879,131.823c-2.421,0-4.757-0.8-6.693-2.312L61.073,97.388H42.235
				c-0.434,0-0.849-0.188-1.137-0.518c-0.286-0.329-0.416-0.765-0.353-1.199l8.13-57.326c0.104-0.745,0.741-1.293,1.494-1.293h7.746
				c5.237,0,9.54-1.431,14.094-2.948c5.055-1.683,10.274-3.421,17.223-3.421c8.205,0,16.599,3.496,28.064,11.693
				c0.675,0.486,0.833,1.427,0.346,2.102c-0.48,0.678-1.428,0.827-2.1,0.349c-10.914-7.801-18.779-11.133-26.311-11.133
				c-6.458,0-11.449,1.662-16.269,3.27c-4.585,1.521-9.32,3.101-15.048,3.101h-6.442l-7.7,54.313H61.59
				c0.337,0,0.662,0.114,0.923,0.322l41.522,32.436c3.433,2.682,8.407,2.078,11.097-1.36c2.676-3.431,2.063-8.405-1.366-11.086
				l-10.657-8.331c-0.656-0.51-0.772-1.458-0.257-2.113c0.514-0.658,1.458-0.768,2.111-0.258l16.611,12.979
				c1.662,1.302,3.729,1.878,5.832,1.619c2.097-0.259,3.965-1.313,5.259-2.976c2.663-3.406,2.082-8.33-1.28-11.023l-16.702-13.051
				c-0.651-0.51-0.772-1.458-0.259-2.109c0.512-0.662,1.464-0.771,2.113-0.262l16.623,12.983c0.029,0.027,0.063,0.051,0.099,0.079
				l3.803,2.971c3.439,2.682,8.41,2.066,11.084-1.364c1.304-1.666,1.88-3.731,1.623-5.825s-1.315-3.963-2.981-5.261l-20.517-16.034
				c-0.655-0.514-0.774-1.458-0.261-2.113c0.512-0.659,1.461-0.768,2.107-0.258l16.618,12.983c3.436,2.677,8.41,2.069,11.092-1.36
				c1.298-1.662,1.874-3.731,1.615-5.825c-0.257-2.094-1.313-3.963-2.976-5.261c-0.654-0.514-0.772-1.459-0.261-2.113
				c0.512-0.663,1.463-0.772,2.109-0.259c2.3,1.792,3.76,4.371,4.118,7.264c0.352,2.894-0.441,5.751-2.234,8.049
				c-1.989,2.548-4.896,3.967-7.894,4.163c1.339,1.596,2.189,3.544,2.45,5.656c0.354,2.894-0.438,5.752-2.23,8.045
				c-3.217,4.12-8.823,5.296-13.356,3.109c0.539,2.955-0.142,6.119-2.126,8.671c-1.794,2.293-4.376,3.755-7.271,4.108
				c-2.888,0.353-5.755-0.439-8.05-2.234l-0.032-0.023c0.418,2.854-0.276,5.868-2.187,8.314c-1.796,2.297-4.38,3.76-7.272,4.112
				C109.778,131.795,109.328,131.823,108.879,131.823z"/>
		</g>
	</g>
	<g id="XMLID_4758_">
		<polygon id="XMLID_4762_" fill="#29A9E0" points="12.365,102.049 41.063,102.049 51.297,32.188 22.599,32.188 		"/>
		<path id="XMLID_4759_" fill="#FFFFFF" d="M41.063,103.554H12.365c-0.44,0-0.854-0.188-1.141-0.521
			c-0.288-0.329-0.412-0.768-0.353-1.199L21.109,31.97c0.105-0.739,0.739-1.288,1.489-1.288h28.698c0.443,0,0.854,0.19,1.143,0.52
			c0.286,0.333,0.41,0.772,0.352,1.204l-10.234,69.863C42.447,103.005,41.811,103.554,41.063,103.554z M14.103,100.543h25.663
			l9.791-66.851h-25.66L14.103,100.543z"/>
	</g>
	<g id="XMLID_4755_">
		<path id="XMLID_4757_" fill="#29A9E0" d="M154.679,38.558c0,0-1.568,0-7.748,0c-11.35,0-18.345-6.37-31.315-6.37
			c-10.062,0-22.143,7.644-35.538,18.114c-4.093,3.195-4.82,9.107-1.623,13.199c3.197,4.093,9.104,4.822,13.197,1.619l12.772-9.522
			l22.323-3.74l28.646,21.832"/>
		<path id="XMLID_4756_" fill="#FFFFFF" d="M155.393,75.196c-0.322,0-0.64-0.098-0.912-0.306L126.354,53.45l-21.32,3.571
			L92.55,66.328c-2.265,1.776-5.11,2.576-8.013,2.211c-2.896-0.353-5.478-1.815-7.272-4.112c-1.794-2.293-2.586-5.151-2.229-8.044
			c0.354-2.893,1.818-5.472,4.112-7.268C90.812,40,104.261,30.683,115.615,30.683c6.943,0,12.171,1.739,17.218,3.421
			c4.56,1.517,8.856,2.948,14.098,2.948h7.748c0.829,0,1.503,0.674,1.503,1.505c0,0.831-0.674,1.505-1.503,1.505h-7.748
			c-5.726,0-10.465-1.58-15.046-3.101c-4.824-1.607-9.814-3.27-16.27-3.27c-10.442,0-23.356,8.997-34.613,17.798
			c-1.662,1.297-2.721,3.164-2.98,5.257c-0.253,2.097,0.317,4.164,1.614,5.826c1.306,1.666,3.17,2.721,5.264,2.979
			c2.124,0.263,4.167-0.317,5.829-1.619l12.797-9.542c0.188-0.141,0.416-0.239,0.649-0.278l22.32-3.74
			c0.433-0.067,0.835,0.035,1.163,0.29l28.647,21.832c0.66,0.502,0.786,1.446,0.286,2.109
			C156.296,74.992,155.845,75.196,155.393,75.196z"/>
	</g>
	<g id="XMLID_4750_">
		<polygon id="XMLID_4754_" fill="#29A9E0" points="192.681,102.049 163.981,102.049 153.745,32.188 182.449,32.188 		"/>
		<path id="XMLID_4751_" fill="#FFFFFF" d="M192.744,103.554c-0.017,0-0.042,0.004-0.063,0h-28.699
			c-0.747,0-1.386-0.549-1.491-1.285l-10.234-69.863c-0.061-0.431,0.062-0.871,0.353-1.204c0.286-0.329,0.696-0.52,1.137-0.52
			h28.704c0.743,0,1.38,0.549,1.487,1.288l10.179,69.451c0.087,0.192,0.132,0.404,0.132,0.628
			C194.247,102.88,193.573,103.554,192.744,103.554z M165.277,100.543h25.663l-9.793-66.851h-25.661L165.277,100.543z"/>
	</g>
</g>
</svg>
