<?xml version="1.0" encoding="utf-8"?>
<!-- Generator: Adobe Illustrator 16.0.0, SVG Export Plug-In . SVG Version: 6.00 Build 0)  -->
<!DOCTYPE svg PUBLIC "-//W3C//DTD SVG 1.1//EN" "http://www.w3.org/Graphics/SVG/1.1/DTD/svg11.dtd">
<svg version="1.1" id="Layer_1" xmlns="http://www.w3.org/2000/svg" xmlns:xlink="http://www.w3.org/1999/xlink" x="0px" y="0px"
	 width="94px" height="24.8px" viewBox="0 0 94 24.8" enable-background="new 0 0 94 24.8" xml:space="preserve">
<g>
	<path fill="#FFFFFF" d="M23.4,11.6c-0.2-0.7-0.4-1.3-0.8-1.8c-0.3-0.5-0.8-0.9-1.3-1.3C20.8,8.2,20.2,8,19.4,8
		c-0.9,0-1.6,0.2-2.2,0.5c-0.6,0.3-1.1,0.7-1.4,1.2c-0.3,0.5-0.6,1.1-0.7,1.8c-0.1,0.7-0.2,1.4-0.2,2.1c0,0.7,0.1,1.3,0.2,2
		c0.2,0.7,0.4,1.3,0.8,1.8c0.4,0.5,0.8,0.9,1.4,1.3c0.6,0.3,1.3,0.5,2.1,0.5c0.8,0,1.4-0.2,1.9-0.5c0.5-0.3,1-0.7,1.3-1.3
		c0.3-0.5,0.6-1.1,0.8-1.8c0.2-0.7,0.2-1.3,0.2-2C23.7,12.9,23.6,12.2,23.4,11.6 M14.8,7.1v2.5h0.1c0.4-0.9,1-1.6,1.8-2.1
		c0.8-0.5,1.8-0.7,2.8-0.7c1,0,1.8,0.2,2.6,0.6c0.7,0.4,1.3,0.9,1.8,1.5c0.5,0.6,0.8,1.4,1.1,2.2c0.2,0.8,0.4,1.7,0.4,2.6
		c0,0.9-0.1,1.8-0.4,2.6c-0.2,0.8-0.6,1.6-1.1,2.2c-0.5,0.6-1.1,1.1-1.8,1.5c-0.7,0.4-1.6,0.5-2.6,0.5c-0.5,0-0.9-0.1-1.4-0.2
		c-0.5-0.1-0.9-0.3-1.3-0.5c-0.4-0.2-0.8-0.5-1.1-0.9c-0.3-0.4-0.5-0.8-0.7-1.2h-0.1v7.2h-1.6V7.1H14.8z"/>
	<path fill="#FFFFFF" d="M29.2,7.1v3h0.1c0.4-1.1,1-1.9,1.9-2.4c0.8-0.6,1.9-0.8,3-0.8v1.6c-0.7,0-1.4,0.1-2,0.3
		c-0.6,0.2-1.1,0.5-1.5,1c-0.4,0.4-0.8,0.9-1,1.5c-0.2,0.6-0.4,1.2-0.4,1.9V20h-1.6v-13H29.2z"/>
	<path fill="#FFFFFF" d="M44.2,10.9c-0.2-0.6-0.5-1-0.8-1.5c-0.4-0.4-0.8-0.8-1.3-1C41.6,8.2,41,8,40.4,8c-0.7,0-1.2,0.1-1.7,0.4
		c-0.5,0.3-0.9,0.6-1.3,1c-0.4,0.4-0.6,0.9-0.8,1.5c-0.2,0.6-0.3,1.1-0.4,1.7h8.4C44.5,12,44.4,11.5,44.2,10.9 M36.3,15.7
		c0.2,0.6,0.4,1.2,0.8,1.6c0.4,0.5,0.8,0.9,1.3,1.2c0.5,0.3,1.2,0.5,1.9,0.5c1.2,0,2.1-0.3,2.7-0.9c0.7-0.6,1.1-1.4,1.4-2.4H46
		c-0.3,1.5-0.9,2.6-1.8,3.4c-0.9,0.8-2.2,1.2-3.8,1.2c-1,0-1.9-0.2-2.7-0.5c-0.7-0.4-1.3-0.9-1.8-1.5c-0.5-0.6-0.8-1.4-1-2.2
		c-0.2-0.8-0.3-1.7-0.3-2.6c0-0.9,0.1-1.7,0.3-2.5c0.2-0.8,0.6-1.6,1-2.2c0.5-0.6,1.1-1.2,1.8-1.6c0.7-0.4,1.6-0.6,2.7-0.6
		c1,0,1.9,0.2,2.7,0.6c0.7,0.4,1.3,1,1.8,1.6c0.5,0.7,0.8,1.5,1,2.3c0.2,0.9,0.3,1.8,0.3,2.7h-10C36.1,14.5,36.2,15.1,36.3,15.7"/>
	<path fill="#FFFFFF" d="M58.3,11.6c-0.2-0.7-0.4-1.3-0.8-1.8c-0.3-0.5-0.8-0.9-1.3-1.3C55.7,8.2,55.1,8,54.3,8
		c-0.9,0-1.6,0.2-2.2,0.5c-0.6,0.3-1.1,0.7-1.4,1.2c-0.4,0.5-0.6,1.1-0.7,1.8c-0.1,0.7-0.2,1.4-0.2,2.1c0,0.7,0.1,1.3,0.2,2
		c0.2,0.7,0.4,1.3,0.8,1.8c0.4,0.5,0.8,0.9,1.4,1.3c0.6,0.3,1.3,0.5,2.1,0.5c0.8,0,1.4-0.2,1.9-0.5c0.5-0.3,1-0.7,1.3-1.3
		c0.3-0.5,0.6-1.1,0.8-1.8c0.2-0.7,0.2-1.3,0.2-2C58.6,12.9,58.5,12.2,58.3,11.6 M49.7,7.1v2.5h0.1c0.4-0.9,1-1.6,1.8-2.1
		c0.8-0.5,1.8-0.7,2.8-0.7c1,0,1.8,0.2,2.6,0.6c0.7,0.4,1.3,0.9,1.8,1.5c0.5,0.6,0.8,1.4,1.1,2.2c0.2,0.8,0.4,1.7,0.4,2.6
		c0,0.9-0.1,1.8-0.4,2.6c-0.2,0.8-0.6,1.6-1.1,2.2c-0.5,0.6-1.1,1.1-1.8,1.5c-0.7,0.4-1.6,0.5-2.6,0.5c-0.5,0-0.9-0.1-1.4-0.2
		c-0.5-0.1-0.9-0.3-1.3-0.5c-0.4-0.2-0.8-0.5-1.1-0.9c-0.3-0.4-0.5-0.8-0.7-1.2h-0.1v7.2h-1.6V7.1H49.7z"/>
	<path fill="#FFFFFF" d="M70.8,12.9c-0.1,0.2-0.3,0.3-0.6,0.4c-0.3,0.1-0.5,0.1-0.8,0.2c-0.7,0.1-1.4,0.2-2.1,0.3
		c-0.7,0.1-1.4,0.2-1.9,0.4c-0.6,0.2-1.1,0.4-1.4,0.8c-0.4,0.3-0.6,0.8-0.6,1.5c0,0.4,0.1,0.8,0.2,1.1c0.2,0.3,0.4,0.6,0.6,0.8
		c0.3,0.2,0.6,0.4,0.9,0.5c0.3,0.1,0.7,0.2,1.1,0.2c0.6,0,1.2-0.1,1.7-0.3c0.5-0.2,1-0.5,1.4-0.8s0.7-0.8,1-1.3
		c0.2-0.5,0.4-1.1,0.4-1.7L70.8,12.9L70.8,12.9z M62.9,9.1c0.3-0.6,0.6-1,1.1-1.4c0.5-0.4,1-0.6,1.6-0.8c0.6-0.2,1.3-0.2,2.1-0.2
		c0.6,0,1.1,0.1,1.7,0.2C70,7,70.5,7.2,70.9,7.5c0.5,0.3,0.8,0.7,1.1,1.3c0.3,0.5,0.4,1.3,0.4,2.1v6.9c0,0.6,0.3,1,0.9,1
		c0.2,0,0.4,0,0.5-0.1v1.3c-0.2,0-0.4,0.1-0.5,0.1c-0.1,0-0.3,0-0.5,0c-0.4,0-0.7-0.1-1-0.2c-0.2-0.1-0.4-0.3-0.6-0.5
		c-0.1-0.2-0.2-0.4-0.3-0.7c0-0.3-0.1-0.6-0.1-0.9H71c-0.3,0.4-0.6,0.8-0.9,1.1c-0.3,0.3-0.6,0.6-1,0.8s-0.8,0.4-1.2,0.5
		c-0.5,0.1-1,0.2-1.6,0.2c-0.6,0-1.2-0.1-1.7-0.2c-0.5-0.1-1-0.4-1.4-0.7c-0.4-0.3-0.7-0.7-0.9-1.2s-0.3-1-0.3-1.7
		c0-0.9,0.2-1.6,0.6-2.1c0.4-0.5,0.9-0.9,1.6-1.2c0.7-0.3,1.4-0.5,2.2-0.6c0.8-0.1,1.7-0.2,2.5-0.3c0.3,0,0.6-0.1,0.9-0.1
		s0.5-0.1,0.6-0.3c0.2-0.1,0.3-0.3,0.4-0.5c0.1-0.2,0.1-0.5,0.1-0.9c0-0.5-0.1-1-0.3-1.3c-0.2-0.3-0.4-0.6-0.7-0.8
		c-0.3-0.2-0.7-0.3-1.1-0.4C68.4,8.1,68,8,67.5,8c-1,0-1.8,0.2-2.5,0.7c-0.6,0.5-1,1.2-1,2.3h-1.6C62.5,10.3,62.7,9.6,62.9,9.1"/>
	<path fill="#FFFFFF" d="M77.1,7.1v3h0c0.4-1.1,1-1.9,1.9-2.4c0.8-0.6,1.9-0.8,3-0.8v1.6c-0.7,0-1.4,0.1-2,0.3
		c-0.6,0.2-1.1,0.5-1.5,1c-0.4,0.4-0.8,0.9-1,1.5c-0.2,0.6-0.4,1.2-0.4,1.9V20h-1.6v-13H77.1z"/>
	<path fill="#FFFFFF" d="M92.1,10.9c-0.2-0.6-0.5-1-0.8-1.5c-0.4-0.4-0.8-0.8-1.3-1C89.5,8.2,88.9,8,88.3,8c-0.7,0-1.2,0.1-1.7,0.4
		c-0.5,0.3-0.9,0.6-1.3,1c-0.4,0.4-0.6,0.9-0.8,1.5c-0.2,0.6-0.3,1.1-0.4,1.7h8.4C92.4,12,92.3,11.5,92.1,10.9 M84.3,15.7
		c0.2,0.6,0.4,1.2,0.8,1.6c0.4,0.5,0.8,0.9,1.3,1.2c0.5,0.3,1.2,0.5,1.9,0.5c1.2,0,2.1-0.3,2.7-0.9c0.7-0.6,1.1-1.4,1.4-2.4h1.6
		c-0.3,1.5-1,2.6-1.8,3.4c-0.9,0.8-2.2,1.2-3.8,1.2c-1,0-1.9-0.2-2.6-0.5c-0.7-0.4-1.3-0.9-1.8-1.5c-0.5-0.6-0.8-1.4-1-2.2
		c-0.2-0.8-0.3-1.7-0.3-2.6c0-0.9,0.1-1.7,0.3-2.5c0.2-0.8,0.6-1.6,1-2.2c0.5-0.6,1.1-1.2,1.8-1.6c0.7-0.4,1.6-0.6,2.6-0.6
		c1,0,1.9,0.2,2.7,0.6c0.7,0.4,1.3,1,1.8,1.6c0.5,0.7,0.8,1.5,1,2.3c0.2,0.9,0.3,1.8,0.3,2.7H84C84,14.5,84.1,15.1,84.3,15.7"/>
	<path fill="#FFFFFF" d="M7.4,8.3c0,1.1-0.9,2-2,2s-2-0.9-2-2c0-1.1,0.9-2,2-2S7.4,7.2,7.4,8.3"/>
	<path fill="#FFFFFF" d="M8.1,13.8c0-1.2-0.9-2.1-2.1-2.1H4.8c-1.2,0-2.1,0.9-2.1,2.1v3.8c0,0.5,0.2,0.9,0.4,1.3h0
		c0,0,0.5,0.6,0.7,1.2l0.4,3.8l0,0c0,0.5,0.4,0.9,0.9,0.9h0.5c0.5,0,0.9-0.4,0.9-0.9L6.9,20c0.2-0.6,0.7-1.2,0.7-1.2h0
		c0.3-0.4,0.4-0.8,0.4-1.3V13.8z"/>
	<path fill="#FFFFFF" d="M5.4,3.5c-1.1,0-2,0.4-2.8,1.1c0,0,0,0,0,0c-0.2,0.2-0.2,0.5,0,0.7c0.2,0.2,0.5,0.2,0.7,0v0
		c0.5-0.5,1.3-0.9,2.1-0.9s1.5,0.3,2.1,0.9l0,0c0.2,0.2,0.5,0.2,0.7,0c0.2-0.2,0.2-0.5,0-0.7c0,0,0,0,0,0C7.4,3.9,6.5,3.5,5.4,3.5"
		/>
	<path fill="#FFFFFF" d="M5.4,1.7c-1.6,0-3,0.6-4,1.6c0,0,0,0,0,0c-0.2,0.2-0.2,0.5,0,0.7c0.2,0.2,0.5,0.2,0.7,0l0,0
		c0.8-0.8,2-1.4,3.3-1.4c1.3,0,2.5,0.5,3.3,1.4c0.2,0.2,0.5,0.2,0.7,0c0.2-0.2,0.2-0.5,0-0.7c0,0,0,0,0,0C8.4,2.4,6.9,1.7,5.4,1.7"
		/>
	<path fill="#FFFFFF" d="M10.6,2.2C9.3,0.8,7.4,0,5.4,0c-2,0-3.9,0.8-5.2,2.2c0,0,0,0,0,0C0,2.4,0,2.7,0.1,2.9
		c0.2,0.2,0.5,0.2,0.7,0C2,1.7,3.6,1,5.4,1s3.4,0.7,4.5,1.9c0.2,0.2,0.5,0.2,0.7,0C10.8,2.7,10.8,2.4,10.6,2.2
		C10.6,2.2,10.6,2.2,10.6,2.2"/>
</g>
</svg>
