<?xml version="1.0" encoding="utf-8"?>
<!-- Generator: Adobe Illustrator 16.0.0, SVG Export Plug-In . SVG Version: 6.00 Build 0)  -->
<!DOCTYPE svg PUBLIC "-//W3C//DTD SVG 1.1//EN" "http://www.w3.org/Graphics/SVG/1.1/DTD/svg11.dtd">
<svg version="1.1" id="Layer_1" xmlns="http://www.w3.org/2000/svg" xmlns:xlink="http://www.w3.org/1999/xlink" x="0px" y="0px"
	 width="94px" height="24.8px" viewBox="0 0 94 24.8" enable-background="new 0 0 94 24.8" xml:space="preserve">
<g>
	<path d="M23.4,11.6c-0.2-0.7-0.4-1.3-0.8-1.8c-0.3-0.5-0.8-0.9-1.3-1.3C20.8,8.2,20.2,8,19.4,8c-0.9,0-1.6,0.2-2.2,0.5
		c-0.6,0.3-1.1,0.7-1.4,1.2c-0.3,0.5-0.6,1.1-0.7,1.8s-0.2,1.4-0.2,2.1s0.1,1.3,0.2,2c0.2,0.7,0.4,1.3,0.8,1.8s0.8,0.9,1.4,1.301
		c0.6,0.299,1.3,0.5,2.1,0.5c0.8,0,1.4-0.201,1.9-0.5c0.5-0.301,1-0.701,1.3-1.301c0.3-0.5,0.6-1.1,0.8-1.8c0.2-0.7,0.2-1.3,0.2-2
		C23.7,12.9,23.6,12.2,23.4,11.6 M14.8,7.1v2.5h0.1c0.4-0.9,1-1.6,1.8-2.1c0.8-0.5,1.8-0.7,2.8-0.7s1.8,0.2,2.6,0.6
		c0.7,0.4,1.3,0.9,1.8,1.5s0.8,1.4,1.1,2.2c0.2,0.8,0.4,1.7,0.4,2.601c0,0.899-0.1,1.799-0.4,2.6c-0.2,0.8-0.6,1.6-1.1,2.199
		C23.4,19.1,22.8,19.6,22.1,20c-0.7,0.4-1.6,0.5-2.6,0.5c-0.5,0-0.9-0.1-1.4-0.199S17.2,20,16.8,19.8c-0.4-0.2-0.8-0.5-1.1-0.9
		c-0.3-0.4-0.5-0.8-0.7-1.199h-0.1V24.9h-1.6V7.1H14.8z"/>
	<path d="M29.2,7.1v3h0.1c0.4-1.1,1-1.9,1.9-2.4c0.8-0.6,1.9-0.8,3-0.8v1.6c-0.7,0-1.4,0.1-2,0.3c-0.6,0.2-1.1,0.5-1.5,1
		c-0.4,0.4-0.8,0.9-1,1.5c-0.2,0.6-0.4,1.2-0.4,1.901V20h-1.6V7h1.5V7.1z"/>
	<path d="M44.2,10.9c-0.2-0.6-0.5-1-0.8-1.5c-0.4-0.4-0.8-0.8-1.3-1C41.6,8.2,41,8,40.4,8c-0.7,0-1.2,0.1-1.7,0.4
		c-0.5,0.3-0.9,0.6-1.3,1s-0.6,0.9-0.8,1.5c-0.2,0.6-0.3,1.1-0.4,1.7h8.4C44.5,12,44.4,11.5,44.2,10.9 M36.3,15.701
		c0.2,0.6,0.4,1.199,0.8,1.6c0.4,0.5,0.8,0.9,1.3,1.199c0.5,0.301,1.2,0.5,1.9,0.5c1.2,0,2.1-0.299,2.7-0.899
		c0.7-0.601,1.1-1.399,1.4-2.399H46c-0.3,1.5-0.9,2.6-1.8,3.399c-0.9,0.8-2.2,1.2-3.8,1.2c-1,0-1.9-0.2-2.7-0.5
		c-0.7-0.4-1.3-0.9-1.8-1.5s-0.8-1.4-1-2.2c-0.2-0.8-0.3-1.7-0.3-2.601c0-0.899,0.1-1.7,0.3-2.5c0.2-0.8,0.6-1.6,1-2.2
		c0.5-0.6,1.1-1.2,1.8-1.6c0.7-0.4,1.6-0.6,2.7-0.6c1,0,1.9,0.2,2.7,0.6c0.7,0.4,1.3,1,1.8,1.6c0.5,0.7,0.8,1.5,1,2.3
		c0.2,0.9,0.3,1.8,0.3,2.7h-10C36.1,14.5,36.2,15.1,36.3,15.701"/>
	<path d="M58.3,11.6c-0.2-0.7-0.399-1.3-0.8-1.8c-0.3-0.5-0.8-0.9-1.3-1.3C55.7,8.2,55.1,8,54.3,8c-0.899,0-1.6,0.2-2.2,0.5
		C51.5,8.8,51,9.2,50.7,9.7c-0.4,0.5-0.601,1.1-0.7,1.8s-0.2,1.4-0.2,2.1s0.101,1.3,0.2,2c0.2,0.7,0.4,1.3,0.8,1.8
		c0.4,0.5,0.8,0.9,1.4,1.301c0.6,0.299,1.3,0.5,2.1,0.5s1.4-0.201,1.9-0.5c0.5-0.301,1-0.701,1.3-1.301c0.3-0.5,0.6-1.1,0.8-1.8
		s0.2-1.3,0.2-2C58.6,12.9,58.5,12.2,58.3,11.6 M49.7,7.1v2.5h0.1c0.4-0.9,1-1.6,1.8-2.1C52.4,7,53.4,6.8,54.4,6.8S56.2,7,57,7.4
		c0.7,0.4,1.3,0.9,1.8,1.5s0.8,1.4,1.101,2.2c0.199,0.8,0.399,1.7,0.399,2.601c0,0.899-0.1,1.799-0.399,2.6
		C59.7,17.1,59.3,17.9,58.8,18.5C58.3,19.1,57.7,19.6,57,20c-0.7,0.4-1.6,0.5-2.6,0.5c-0.5,0-0.9-0.1-1.4-0.199S52.1,20,51.7,19.8
		c-0.4-0.2-0.8-0.5-1.101-0.9c-0.3-0.4-0.5-0.8-0.699-1.199H49.8V24.9h-1.6V7.1H49.7z"/>
	<path d="M70.8,12.9c-0.1,0.2-0.3,0.301-0.6,0.4s-0.5,0.1-0.8,0.199C68.7,13.6,68,13.701,67.3,13.8S65.9,14,65.4,14.201
		C64.8,14.4,64.3,14.6,64,15c-0.4,0.301-0.6,0.801-0.6,1.5c0,0.4,0.1,0.801,0.199,1.101c0.2,0.3,0.4,0.601,0.601,0.8
		c0.3,0.2,0.6,0.4,0.899,0.5c0.301,0.1,0.7,0.2,1.101,0.2c0.6,0,1.2-0.101,1.7-0.3c0.5-0.2,1-0.5,1.399-0.801
		c0.4-0.299,0.7-0.799,1-1.299c0.2-0.5,0.4-1.101,0.4-1.701L70.8,12.9L70.8,12.9z M62.9,9.1c0.3-0.6,0.6-1,1.1-1.4
		c0.5-0.4,1-0.6,1.6-0.8C66.2,6.7,66.9,6.7,67.7,6.7c0.6,0,1.1,0.1,1.7,0.2C70,7,70.5,7.2,70.9,7.5c0.5,0.3,0.8,0.7,1.1,1.3
		c0.3,0.5,0.4,1.3,0.4,2.1v6.9c0,0.6,0.3,1,0.899,1c0.2,0,0.4,0,0.5-0.1V20C73.6,20,73.4,20.1,73.3,20.1c-0.1,0-0.3,0-0.5,0
		c-0.399,0-0.7-0.101-1-0.2c-0.2-0.1-0.399-0.3-0.6-0.5C71.1,19.201,71,19,70.9,18.701c0-0.301-0.101-0.601-0.101-0.9H71
		c-0.3,0.4-0.6,0.8-0.9,1.1c-0.3,0.301-0.6,0.6-1,0.801C68.7,19.9,68.3,20.1,67.9,20.201c-0.5,0.1-1,0.199-1.601,0.199
		c-0.6,0-1.2-0.1-1.7-0.199c-0.5-0.101-1-0.4-1.399-0.701c-0.4-0.299-0.7-0.699-0.9-1.199s-0.3-1-0.3-1.7
		c0-0.899,0.2-1.601,0.6-2.101C63,14,63.5,13.6,64.2,13.3c0.7-0.301,1.399-0.5,2.2-0.6c0.8-0.1,1.699-0.2,2.5-0.3
		c0.3,0,0.6-0.1,0.899-0.1s0.5-0.1,0.601-0.3c0.199-0.1,0.3-0.3,0.399-0.5C70.9,11.3,70.9,11,70.9,10.6c0-0.5-0.101-1-0.301-1.3
		C70.4,9,70.2,8.7,69.9,8.5C69.6,8.3,69.2,8.2,68.8,8.1C68.4,8.1,68,8,67.5,8c-1,0-1.8,0.2-2.5,0.7c-0.6,0.5-1,1.2-1,2.3h-1.6
		C62.5,10.3,62.7,9.6,62.9,9.1"/>
	<path d="M77.1,7.1v3l0,0c0.4-1.1,1-1.9,1.9-2.4c0.8-0.6,1.9-0.8,3-0.8v1.6c-0.7,0-1.4,0.1-2,0.3c-0.6,0.2-1.1,0.5-1.5,1
		c-0.4,0.4-0.8,0.9-1,1.5c-0.2,0.6-0.4,1.2-0.4,1.901V20h-1.6V7h1.6V7.1z"/>
	<path d="M92.1,10.9c-0.199-0.6-0.5-1-0.8-1.5C90.9,9,90.5,8.6,90,8.4C89.5,8.2,88.9,8,88.3,8c-0.7,0-1.2,0.1-1.7,0.4
		c-0.5,0.3-0.899,0.6-1.3,1c-0.399,0.4-0.6,0.9-0.8,1.5s-0.3,1.1-0.4,1.7h8.4C92.4,12,92.3,11.5,92.1,10.9 M84.3,15.701
		c0.2,0.6,0.4,1.199,0.8,1.6c0.4,0.5,0.801,0.9,1.301,1.199C86.9,18.8,87.6,19,88.3,19c1.2,0,2.101-0.299,2.7-0.899
		c0.7-0.601,1.1-1.399,1.4-2.399H94c-0.3,1.5-1,2.6-1.8,3.399c-0.9,0.8-2.2,1.2-3.8,1.2c-1,0-1.9-0.2-2.601-0.5
		c-0.7-0.4-1.3-0.9-1.8-1.5s-0.8-1.4-1-2.2s-0.3-1.7-0.3-2.601c0-0.899,0.1-1.7,0.3-2.5s0.6-1.6,1-2.2c0.5-0.6,1.1-1.2,1.8-1.6
		C86.5,6.8,87.4,6.6,88.4,6.6S90.3,6.8,91.1,7.2c0.7,0.4,1.301,1,1.801,1.6c0.5,0.7,0.8,1.5,1,2.3c0.199,0.9,0.3,1.8,0.3,2.7H84
		C84,14.5,84.1,15.1,84.3,15.701"/>
	<path d="M7.4,8.3c0,1.1-0.9,2-2,2s-2-0.9-2-2c0-1.1,0.9-2,2-2S7.4,7.2,7.4,8.3"/>
	<path d="M8.1,13.8c0-1.2-0.9-2.1-2.1-2.1H4.8c-1.2,0-2.1,0.9-2.1,2.1v3.8c0,0.5,0.2,0.899,0.4,1.3l0,0c0,0,0.5,0.6,0.7,1.2l0.4,3.8
		l0,0c0,0.5,0.4,0.9,0.9,0.9h0.5c0.5,0,0.9-0.4,0.9-0.9L6.9,20C7.1,19.4,7.6,18.8,7.6,18.8l0,0C7.9,18.4,8,18,8,17.5V13.8H8.1z"/>
	<path d="M5.4,3.5c-1.1,0-2,0.4-2.8,1.1l0,0c-0.2,0.2-0.2,0.5,0,0.7c0.2,0.2,0.5,0.2,0.7,0l0,0c0.5-0.5,1.3-0.9,2.1-0.9
		c0.8,0,1.5,0.3,2.1,0.9l0,0c0.2,0.2,0.5,0.2,0.7,0c0.2-0.2,0.2-0.5,0-0.7l0,0C7.4,3.9,6.5,3.5,5.4,3.5"/>
	<path d="M5.4,1.7c-1.6,0-3,0.6-4,1.6l0,0C1.2,3.5,1.2,3.8,1.4,4c0.2,0.2,0.5,0.2,0.7,0l0,0c0.8-0.8,2-1.4,3.3-1.4
		c1.3,0,2.5,0.5,3.3,1.4c0.2,0.2,0.5,0.2,0.7,0c0.2-0.2,0.2-0.5,0-0.7l0,0C8.4,2.4,6.9,1.7,5.4,1.7"/>
	<path d="M10.6,2.2C9.3,0.8,7.4,0,5.4,0S1.5,0.8,0.2,2.2l0,0C0,2.4,0,2.7,0.1,2.9c0.2,0.2,0.5,0.2,0.7,0C2,1.7,3.6,1,5.4,1
		c1.8,0,3.4,0.7,4.5,1.9c0.2,0.2,0.5,0.2,0.7,0C10.8,2.7,10.8,2.4,10.6,2.2L10.6,2.2"/>
</g>
</svg>
