<?xml version="1.0" encoding="utf-8"?>
<!-- Generator: Adobe Illustrator 16.0.0, SVG Export Plug-In . SVG Version: 6.00 Build 0)  -->
<!DOCTYPE svg PUBLIC "-//W3C//DTD SVG 1.0//EN" "http://www.w3.org/TR/2001/REC-SVG-20010904/DTD/svg10.dtd">
<svg version="1.0" id="Layer_1" xmlns="http://www.w3.org/2000/svg" xmlns:xlink="http://www.w3.org/1999/xlink" x="0px" y="0px"
	 width="300px" height="300px" viewBox="0 0 300 300" enable-background="new 0 0 300 300" xml:space="preserve">
<path fill="#FFFFFF" d="M150,0C67.157,0,0,67.157,0,150s67.157,150,150,150s150-67.157,150-150S232.843,0,150,0z M180.092,106.123
	h-12.388c-4.527,0-7.579,0.947-9.156,2.842c-1.577,1.892-2.367,4.734-2.367,8.521v14.916h23.124l-3.08,23.358h-20.044v59.9h-24.149
	v-59.9h-20.122v-23.358h20.122v-17.203c0-9.786,2.734-17.374,8.206-22.768c5.472-5.392,12.759-8.09,21.859-8.09
	c7.734,0,13.733,0.317,17.995,0.947V106.123z"/>
</svg>
