<?xml version="1.0" encoding="utf-8"?>
<!-- Generator: Adobe Illustrator 16.0.0, SVG Export Plug-In . SVG Version: 6.00 Build 0)  -->
<!DOCTYPE svg PUBLIC "-//W3C//DTD SVG 1.0//EN" "http://www.w3.org/TR/2001/REC-SVG-20010904/DTD/svg10.dtd">
<svg version="1.0" id="Layer_1" xmlns="http://www.w3.org/2000/svg" xmlns:xlink="http://www.w3.org/1999/xlink" x="0px" y="0px"
	 width="300px" height="300px" viewBox="0 0 300 300" enable-background="new 0 0 300 300" xml:space="preserve">
<path fill="#FFFFFF" d="M150,0C67.157,0,0,67.157,0,150s67.157,150,150,150s150-67.157,150-150S232.843,0,150,0z M198.98,125.884
	c0.052,0.731,0.077,1.827,0.077,3.286c0,6.781-0.992,13.55-2.972,20.303c-1.982,6.755-4.995,13.238-9.037,19.443
	c-4.044,6.209-8.856,11.699-14.437,16.471s-12.31,8.582-20.186,11.424c-7.876,2.844-16.302,4.264-25.273,4.264
	c-14.136,0-27.07-3.781-38.807-11.346c1.824,0.209,3.858,0.312,6.101,0.312c11.737,0,22.196-3.598,31.378-10.795
	c-5.477-0.104-10.382-1.789-14.711-5.047c-4.33-3.26-7.303-7.422-8.919-12.479c1.722,0.26,3.311,0.389,4.773,0.389
	c2.243,0,4.458-0.285,6.649-0.861c-5.841-1.199-10.68-4.107-14.514-8.725c-3.834-4.614-5.751-9.973-5.751-16.077v-0.312
	c3.549,1.982,7.355,3.05,11.425,3.207c-3.442-2.295-6.181-5.293-8.215-8.999c-2.035-3.703-3.051-7.717-3.051-12.049
	c0-4.587,1.145-8.84,3.442-12.753c6.31,7.775,13.991,13.994,23.042,18.663c9.051,4.666,18.74,7.262,29.066,7.783
	c-0.416-1.98-0.624-3.911-0.624-5.789c0-6.989,2.464-12.948,7.394-17.877c4.93-4.929,10.889-7.394,17.877-7.394
	c7.304,0,13.46,2.659,18.466,7.98c5.685-1.095,11.033-3.13,16.042-6.104c-1.933,6-5.636,10.642-11.113,13.928
	c4.853-0.52,9.705-1.826,14.552-3.913C208.16,117.929,203.938,122.286,198.98,125.884z"/>
</svg>
